Strait-Regular.otf.ufo
<glyph name="exclam" format="1">
  <advance width="294"/>
  <unicode hex="0021"/>
  <outline>
    <contour>
      <point x="147" y="99" type="curve" name="hr00"/>
      <point x="112" y="99" smooth="yes"/>
      <point x="90" y="99" smooth="yes"/>
      <point x="90" y="44" type="curve" smooth="yes"/>
      <point x="90" y="-12" smooth="yes"/>
      <point x="112" y="-12" smooth="yes"/>
      <point x="147" y="-12" type="curve" smooth="yes"/>
      <point x="182" y="-12" smooth="yes"/>
      <point x="204" y="-12" smooth="yes"/>
      <point x="204" y="44" type="curve" smooth="yes"/>
      <point x="204" y="99" smooth="yes"/>
      <point x="182" y="99" smooth="yes"/>
    </contour>
    <contour>
      <point x="114" y="179" type="line"/>
      <point x="180" y="179" type="line"/>
      <point x="192" y="696" type="line"/>
      <point x="102" y="696" type="line"/>
    </contour>
  </outline>
</glyph>
<glyph name="quotedbl" format="1">
  <advance width="331"/>
  <unicode hex="0022"/>
  <outline>
    <contour>
      <point x="60" y="487" type="line" name="hr00"/>
      <point x="115" y="487" type="line"/>
      <point x="131" y="700" type="line"/>
      <point x="45" y="700" type="line"/>
    </contour>
    <contour>
      <point x="215" y="487" type="line"/>
      <point x="270" y="487" type="line"/>
      <point x="286" y="700" type="line"/>
      <point x="200" y="700" type="line"/>
    </contour>
  </outline>
</glyph>
<glyph name="numbersign" format="1">
  <advance width="593"/>
  <unicode hex="0023"/>
  <outline>
    <contour>
      <point x="88" y="452" type="line" name="hr00"/>
      <point x="76" y="387" type="line"/>
      <point x="156" y="387" type="line"/>
      <point x="131" y="247" type="line"/>
      <point x="52" y="247" type="line"/>
      <point x="40" y="182" type="line"/>
      <point x="119" y="182" type="line"/>
      <point x="87" y="0" type="line"/>
      <point x="157" y="0" type="line"/>
      <point x="189" y="182" type="line"/>
      <point x="354" y="182" type="line"/>
      <point x="322" y="0" type="line"/>
      <point x="392" y="0" type="line"/>
      <point x="424" y="182" type="line"/>
      <point x="504" y="182" type="line"/>
      <point x="517" y="247" type="line"/>
      <point x="436" y="247" type="line"/>
      <point x="461" y="387" type="line"/>
      <point x="540" y="387" type="line"/>
      <point x="553" y="452" type="line"/>
      <point x="472" y="452" type="line"/>
      <point x="507" y="646" type="line"/>
      <point x="437" y="646" type="line"/>
      <point x="402" y="452" type="line"/>
      <point x="237" y="452" type="line"/>
      <point x="272" y="646" type="line"/>
      <point x="202" y="646" type="line"/>
      <point x="167" y="452" type="line"/>
    </contour>
    <contour>
      <point x="201" y="247" type="line"/>
      <point x="226" y="387" type="line"/>
      <point x="391" y="387" type="line"/>
      <point x="366" y="247" type="line"/>
    </contour>
  </outline>
</glyph>
<glyph name="dollar" format="1">
  <advance width="500"/>
  <unicode hex="0024"/>
  <outline>
    <contour>
      <point x="216" y="-100" type="line" name="hr00"/>
      <point x="280" y="-100" type="line"/>
      <point x="280" y="-11" type="line"/>
      <point x="396" y="0" smooth="yes"/>
      <point x="440" y="83" smooth="yes"/>
      <point x="440" y="167" type="curve" smooth="yes"/>
      <point x="440" y="302" smooth="yes"/>
      <point x="390" y="329" smooth="yes"/>
      <point x="311" y="348" type="curve" smooth="yes"/>
      <point x="216" y="371" type="line" smooth="yes"/>
      <point x="154" y="386" smooth="yes"/>
      <point x="142" y="410" smooth="yes"/>
      <point x="142" y="487" type="curve" smooth="yes"/>
      <point x="142" y="574" smooth="yes"/>
      <point x="193" y="586" smooth="yes"/>
      <point x="250" y="586" type="curve" smooth="yes"/>
      <point x="312" y="586"/>
      <point x="374" y="572"/>
      <point x="399" y="565" type="curve"/>
      <point x="417" y="625" type="line"/>
      <point x="381" y="638"/>
      <point x="334" y="652"/>
      <point x="280" y="656" type="curve"/>
      <point x="280" y="750" type="line"/>
      <point x="217" y="750" type="line"/>
      <point x="217" y="655" type="line"/>
      <point x="115" y="643" smooth="yes"/>
      <point x="62" y="581" smooth="yes"/>
      <point x="62" y="490" type="curve" smooth="yes"/>
      <point x="62" y="374" smooth="yes"/>
      <point x="82" y="327" smooth="yes"/>
      <point x="179" y="304" type="curve" smooth="yes"/>
      <point x="278" y="281" type="line" smooth="yes"/>
      <point x="347" y="265" smooth="yes"/>
      <point x="356" y="227" smooth="yes"/>
      <point x="356" y="169" type="curve" smooth="yes"/>
      <point x="356" y="90" smooth="yes"/>
      <point x="317" y="59" smooth="yes"/>
      <point x="242" y="59" type="curve" smooth="yes"/>
      <point x="181" y="59"/>
      <point x="115" y="74"/>
      <point x="78" y="87" type="curve"/>
      <point x="60" y="25" type="line"/>
      <point x="105" y="5"/>
      <point x="161" y="-7"/>
      <point x="216" y="-11" type="curve"/>
    </contour>
  </outline>
</glyph>
<glyph name="ampersand" format="1">
  <advance width="508"/>
  <unicode hex="0026"/>
  <outline>
    <contour>
      <point x="284" y="346" type="line"/>
      <point x="364" y="392" type="line" smooth="yes"/>
      <point x="437" y="433" smooth="yes"/>
      <point x="442" y="456" smooth="yes"/>
      <point x="442" y="538" type="curve" smooth="yes"/>
      <point x="442" y="615" smooth="yes"/>
      <point x="424" y="691" smooth="yes"/>
      <point x="269" y="691" type="curve" smooth="yes"/>
      <point x="112" y="691" smooth="yes"/>
      <point x="92" y="615" smooth="yes"/>
      <point x="92" y="538" type="curve" smooth="yes"/>
      <point x="92" y="476" smooth="yes"/>
      <point x="104" y="439" smooth="yes"/>
      <point x="143" y="391" type="curve" smooth="yes"/>
      <point x="165" y="363" type="line"/>
      <point x="108" y="331" type="line" smooth="yes"/>
      <point x="52" y="299" smooth="yes"/>
      <point x="40" y="230" smooth="yes"/>
      <point x="40" y="173" type="curve" smooth="yes" name="hr01"/>
      <point x="40" y="93" smooth="yes"/>
      <point x="47" y="-12" smooth="yes"/>
      <point x="216" y="-12" type="curve" smooth="yes"/>
      <point x="334" y="-12"/>
      <point x="382" y="17"/>
      <point x="406" y="62" type="curve"/>
      <point x="466" y="-13" type="line" name="hr02"/>
      <point x="563" y="0" type="line"/>
    </contour>
    <contour>
      <point x="222" y="59" type="curve" name="hr03"/>
      <point x="131" y="59" smooth="yes"/>
      <point x="123" y="110" smooth="yes"/>
      <point x="123" y="123" type="curve" smooth="yes"/>
      <point x="123" y="214" type="line" smooth="yes"/>
      <point x="123" y="240" smooth="yes"/>
      <point x="132" y="259" smooth="yes"/>
      <point x="178" y="285" type="curve" smooth="yes"/>
      <point x="212" y="304" type="line"/>
      <point x="358" y="122" type="line"/>
      <point x="352" y="97" smooth="yes"/>
      <point x="326" y="59" smooth="yes"/>
    </contour>
    <contour>
      <point x="175" y="565" type="line" name="hr04"/>
      <point x="175" y="578" smooth="yes"/>
      <point x="184" y="620" smooth="yes"/>
      <point x="267" y="620" type="curve" smooth="yes"/>
      <point x="350" y="620" smooth="yes"/>
      <point x="359" y="576" smooth="yes"/>
      <point x="359" y="565" type="curve" smooth="yes"/>
      <point x="359" y="510" type="line" smooth="yes"/>
      <point x="359" y="485" smooth="yes"/>
      <point x="353" y="472" smooth="yes"/>
      <point x="320" y="453" type="curve" smooth="yes"/>
      <point x="237" y="405" type="line"/>
      <point x="204" y="446" type="line" smooth="yes"/>
      <point x="179" y="478" smooth="yes"/>
      <point x="175" y="495" smooth="yes"/>
      <point x="175" y="511" type="curve" smooth="yes"/>
    </contour>
  </outline>
</glyph>
<glyph name="quotesingle" format="1">
  <advance width="176"/>
  <unicode hex="0027"/>
  <outline>
    <contour>
      <point x="60" y="487" type="line" name="hr00"/>
      <point x="115" y="487" type="line"/>
      <point x="131" y="700" type="line"/>
      <point x="45" y="700" type="line"/>
    </contour>
  </outline>
</glyph>
<glyph name="parenleft" format="1">
  <advance width="340"/>
  <unicode hex="0028"/>
  <outline>
    <contour>
      <point x="166" y="559" type="line" name="hr00"/>
      <point x="166" y="664"/>
      <point x="180" y="745"/>
      <point x="295" y="745" type="curve"/>
      <point x="290" y="810" type="line"/>
      <point x="81" y="810" smooth="yes"/>
      <point x="79" y="689" smooth="yes"/>
      <point x="79" y="349" type="curve" smooth="yes"/>
      <point x="79" y="9"/>
      <point x="81" y="-112"/>
      <point x="290" y="-112" type="curve"/>
      <point x="295" y="-47" type="line"/>
      <point x="180" y="-47" smooth="yes"/>
      <point x="166" y="34" smooth="yes"/>
      <point x="166" y="139" type="curve" smooth="yes"/>
    </contour>
  </outline>
</glyph>
<glyph name="parenright" format="1">
  <advance width="340"/>
  <unicode hex="0029"/>
  <outline>
    <contour>
      <point x="174" y="139" type="line" name="hr00"/>
      <point x="174" y="34"/>
      <point x="160" y="-47"/>
      <point x="45" y="-47" type="curve"/>
      <point x="50" y="-112" type="line"/>
      <point x="259" y="-112" smooth="yes"/>
      <point x="261" y="9" smooth="yes"/>
      <point x="261" y="349" type="curve" smooth="yes"/>
      <point x="261" y="689"/>
      <point x="259" y="810"/>
      <point x="50" y="810" type="curve"/>
      <point x="45" y="745" type="line"/>
      <point x="160" y="745" smooth="yes"/>
      <point x="174" y="664" smooth="yes"/>
      <point x="174" y="559" type="curve" smooth="yes"/>
    </contour>
  </outline>
</glyph>
<glyph name="asterisk" format="1">
  <advance width="407"/>
  <unicode hex="002A"/>
  <outline>
    <contour>
      <point x="235" y="626" type="line" name="hr00"/>
      <point x="235" y="744" type="line"/>
      <point x="173" y="744" type="line"/>
      <point x="173" y="626" type="line"/>
      <point x="61" y="663" type="line"/>
      <point x="40" y="604" type="line"/>
      <point x="151" y="567" type="line"/>
      <point x="84" y="470" type="line"/>
      <point x="137" y="435" type="line"/>
      <point x="158" y="465"/>
      <point x="183" y="498"/>
      <point x="203" y="529" type="curve"/>
      <point x="274" y="435" type="line"/>
      <point x="324" y="473" type="line"/>
      <point x="255" y="567" type="line"/>
      <point x="367" y="605" type="line"/>
      <point x="346" y="663" type="line"/>
    </contour>
  </outline>
</glyph>
<glyph name="plus" format="1">
  <advance width="500"/>
  <unicode hex="002B"/>
  <outline>
    <contour>
      <point x="60" y="352" type="line" name="hr00"/>
      <point x="60" y="282" type="line"/>
      <point x="215" y="282" type="line"/>
      <point x="215" y="127" type="line"/>
      <point x="285" y="127" type="line"/>
      <point x="285" y="282" type="line"/>
      <point x="440" y="282" type="line"/>
      <point x="440" y="352" type="line"/>
      <point x="285" y="352" type="line"/>
      <point x="285" y="507" type="line"/>
      <point x="215" y="507" type="line"/>
      <point x="215" y="352" type="line"/>
    </contour>
  </outline>
</glyph>
<glyph name="comma" format="1">
  <advance width="240"/>
  <unicode hex="002C"/>
  <outline>
    <contour>
      <point x="121" y="99" type="curve" name="hr00"/>
      <point x="86" y="99" smooth="yes"/>
      <point x="64" y="99" smooth="yes"/>
      <point x="64" y="44" type="curve" smooth="yes"/>
      <point x="64" y="9"/>
      <point x="72" y="-4"/>
      <point x="87" y="-9" type="curve"/>
      <point x="46" y="-112" type="line"/>
      <point x="91" y="-136" type="line"/>
      <point x="145" y="-51" type="line" smooth="yes"/>
      <point x="158" y="-30" smooth="yes"/>
      <point x="168" y="-10" smooth="yes"/>
      <point x="174" y="11" type="curve" smooth="yes"/>
      <point x="176" y="19" smooth="yes"/>
      <point x="178" y="30" smooth="yes"/>
      <point x="178" y="44" type="curve" smooth="yes"/>
      <point x="178" y="99" smooth="yes"/>
      <point x="156" y="99" smooth="yes"/>
    </contour>
  </outline>
</glyph>
<glyph name="slash" format="1">
  <advance width="352"/>
  <unicode hex="002F"/>
  <outline>
    <contour>
      <point x="352" y="700" type="line" name="hr00"/>
      <point x="276" y="700" type="line"/>
      <point x="0" y="0" type="line"/>
      <point x="76" y="0" type="line"/>
    </contour>
  </outline>
</glyph>
<glyph name="zero" format="1">
  <advance width="500"/>
  <unicode hex="0030"/>
  <outline>
    <contour>
      <point x="453" y="323" type="curve" name="hr00"/>
      <point x="453" y="529" smooth="yes"/>
      <point x="453" y="658" smooth="yes"/>
      <point x="250" y="658" type="curve" smooth="yes"/>
      <point x="47" y="658" smooth="yes"/>
      <point x="47" y="529" smooth="yes"/>
      <point x="47" y="323" type="curve" smooth="yes"/>
      <point x="47" y="117" smooth="yes"/>
      <point x="47" y="-12" smooth="yes"/>
      <point x="250" y="-12" type="curve" smooth="yes"/>
      <point x="453" y="-12" smooth="yes"/>
      <point x="453" y="117" smooth="yes"/>
    </contour>
    <contour>
      <point x="365" y="166" type="line"/>
      <point x="365" y="110" smooth="yes"/>
      <point x="365" y="59" smooth="yes"/>
      <point x="252" y="59" type="curve" smooth="yes"/>
      <point x="135" y="59" smooth="yes"/>
      <point x="135" y="110" smooth="yes"/>
      <point x="135" y="166" type="curve" smooth="yes"/>
      <point x="135" y="480" type="line" smooth="yes"/>
      <point x="135" y="536" smooth="yes"/>
      <point x="135" y="587" smooth="yes"/>
      <point x="248" y="587" type="curve" smooth="yes"/>
      <point x="365" y="587" smooth="yes"/>
      <point x="365" y="536" smooth="yes"/>
      <point x="365" y="480" type="curve" smooth="yes"/>
    </contour>
  </outline>
</glyph>
<glyph name="one" format="1">
  <advance width="500"/>
  <unicode hex="0031"/>
  <outline>
    <contour>
      <point x="325" y="658" type="line" name="hr00"/>
      <point x="308" y="658" type="line"/>
      <point x="84" y="570" type="line"/>
      <point x="109" y="506" type="line"/>
      <point x="239" y="556" type="line"/>
      <point x="239" y="70" type="line"/>
      <point x="123" y="70" type="line"/>
      <point x="123" y="0" type="line"/>
      <point x="435" y="0" type="line"/>
      <point x="435" y="70" type="line"/>
      <point x="325" y="70" type="line"/>
    </contour>
  </outline>
</glyph>
<glyph name="two" format="1">
  <advance width="500"/>
  <unicode hex="0032"/>
  <outline>
    <contour>
      <point x="436" y="489" type="curve" name="hr00"/>
      <point x="436" y="600" smooth="yes"/>
      <point x="362" y="658" smooth="yes"/>
      <point x="244" y="658" type="curve" smooth="yes"/>
      <point x="170" y="658"/>
      <point x="113" y="642"/>
      <point x="69" y="625" type="curve"/>
      <point x="88" y="561" type="line"/>
      <point x="134" y="575" smooth="yes"/>
      <point x="188" y="587" smooth="yes"/>
      <point x="244" y="587" type="curve" smooth="yes"/>
      <point x="315" y="587" smooth="yes"/>
      <point x="348" y="563" smooth="yes"/>
      <point x="348" y="489" type="curve" smooth="yes"/>
      <point x="348" y="425" smooth="yes"/>
      <point x="330" y="388" smooth="yes"/>
      <point x="289" y="341" type="curve" smooth="yes"/>
      <point x="60" y="76" type="line"/>
      <point x="60" y="0" type="line"/>
      <point x="436" y="0" type="line"/>
      <point x="436" y="70" type="line"/>
      <point x="157" y="70" type="line"/>
      <point x="355" y="299" type="line" smooth="yes"/>
      <point x="396" y="346" smooth="yes"/>
      <point x="436" y="407" smooth="yes"/>
    </contour>
  </outline>
</glyph>
<glyph name="three" format="1">
  <advance width="500"/>
  <unicode hex="0033"/>
  <outline>
    <contour>
      <point x="227" y="658" type="curve"/>
      <point x="158" y="658"/>
      <point x="88" y="637"/>
      <point x="59" y="625" type="curve"/>
      <point x="78" y="561" type="line"/>
      <point x="131" y="577" smooth="yes"/>
      <point x="182" y="587" smooth="yes"/>
      <point x="224" y="587" type="curve" smooth="yes"/>
      <point x="321" y="587" smooth="yes"/>
      <point x="328" y="539" smooth="yes"/>
      <point x="328" y="489" type="curve" smooth="yes"/>
      <point x="328" y="442" smooth="yes"/>
      <point x="328" y="371" smooth="yes"/>
      <point x="251" y="365" type="curve" smooth="yes"/>
      <point x="141" y="356" type="line"/>
      <point x="141" y="294" type="line"/>
      <point x="264" y="285" type="line" smooth="yes"/>
      <point x="347" y="279" smooth="yes"/>
      <point x="348" y="208" smooth="yes"/>
      <point x="348" y="161" type="curve" smooth="yes" name="hr01"/>
      <point x="348" y="111" smooth="yes"/>
      <point x="348" y="63" smooth="yes"/>
      <point x="227" y="63" type="curve" smooth="yes"/>
      <point x="169" y="63"/>
      <point x="134" y="71"/>
      <point x="82" y="83" type="curve"/>
      <point x="58" y="21" type="line"/>
      <point x="86" y="9" smooth="yes"/>
      <point x="147" y="-10" smooth="yes"/>
      <point x="227" y="-10" type="curve" smooth="yes"/>
      <point x="395" y="-10" smooth="yes"/>
      <point x="437" y="82" smooth="yes"/>
      <point x="437" y="181" type="curve" smooth="yes"/>
      <point x="437" y="266"/>
      <point x="404" y="310"/>
      <point x="329" y="334" type="curve"/>
      <point x="329" y="339" type="line"/>
      <point x="384" y="364" smooth="yes"/>
      <point x="416" y="411" smooth="yes"/>
      <point x="416" y="489" type="curve" smooth="yes" name="hr02"/>
      <point x="416" y="578" smooth="yes"/>
      <point x="373" y="658" smooth="yes"/>
    </contour>
  </outline>
</glyph>
<glyph name="four" format="1">
  <advance width="500"/>
  <unicode hex="0034"/>
  <outline>
    <contour>
      <point x="396" y="440" type="line" name="hr00"/>
      <point x="341" y="440" type="line"/>
      <point x="316" y="354" type="line"/>
      <point x="316" y="228" type="line"/>
      <point x="112" y="228" type="line"/>
      <point x="253" y="650" type="line"/>
      <point x="173" y="650" type="line"/>
      <point x="30" y="221" type="line"/>
      <point x="30" y="158" type="line"/>
      <point x="316" y="158" type="line"/>
      <point x="316" y="0" type="line"/>
      <point x="396" y="0" type="line"/>
      <point x="396" y="158" type="line"/>
      <point x="469" y="158" type="line"/>
      <point x="469" y="228" type="line"/>
      <point x="396" y="228" type="line"/>
    </contour>
  </outline>
</glyph>
<glyph name="five" format="1">
  <advance width="500"/>
  <unicode hex="0035"/>
  <outline>
    <contour>
      <point x="166" y="369" type="line" name="hr00"/>
      <point x="166" y="580" type="line"/>
      <point x="405" y="580" type="line"/>
      <point x="405" y="650" type="line"/>
      <point x="86" y="650" type="line"/>
      <point x="86" y="340" type="line"/>
      <point x="124" y="302" type="line"/>
      <point x="265" y="291" type="line" smooth="yes"/>
      <point x="350" y="284" smooth="yes"/>
      <point x="350" y="219" smooth="yes"/>
      <point x="350" y="168" type="curve" smooth="yes"/>
      <point x="350" y="117" smooth="yes"/>
      <point x="350" y="63" smooth="yes"/>
      <point x="235" y="63" type="curve" smooth="yes"/>
      <point x="170" y="63"/>
      <point x="136" y="71"/>
      <point x="84" y="83" type="curve"/>
      <point x="60" y="21" type="line"/>
      <point x="89" y="9" smooth="yes"/>
      <point x="152" y="-10" smooth="yes"/>
      <point x="235" y="-10" type="curve" smooth="yes"/>
      <point x="414" y="-10" smooth="yes"/>
      <point x="439" y="91" smooth="yes"/>
      <point x="439" y="188" type="curve" smooth="yes"/>
      <point x="439" y="269" smooth="yes"/>
      <point x="415" y="349" smooth="yes"/>
      <point x="270" y="361" type="curve" smooth="yes"/>
    </contour>
  </outline>
</glyph>
<glyph name="six" format="1">
  <advance width="500"/>
  <unicode hex="0036"/>
  <outline>
    <contour>
      <point x="421" y="625" type="line" name="hr00"/>
      <point x="377" y="642" smooth="yes"/>
      <point x="320" y="658" smooth="yes"/>
      <point x="253" y="658" type="curve" smooth="yes"/>
      <point x="97" y="658" smooth="yes"/>
      <point x="53" y="595" smooth="yes"/>
      <point x="53" y="368" type="curve" smooth="yes"/>
      <point x="53" y="111" smooth="yes"/>
      <point x="53" y="-12" smooth="yes"/>
      <point x="253" y="-12" type="curve" smooth="yes"/>
      <point x="422" y="-12" smooth="yes"/>
      <point x="446" y="90" smooth="yes"/>
      <point x="446" y="192" type="curve" smooth="yes"/>
      <point x="446" y="296" smooth="yes"/>
      <point x="427" y="384" smooth="yes"/>
      <point x="259" y="384" type="curve" smooth="yes"/>
      <point x="208" y="384"/>
      <point x="170" y="375"/>
      <point x="142" y="361" type="curve"/>
      <point x="142" y="499" type="line" smooth="yes"/>
      <point x="142" y="560" smooth="yes"/>
      <point x="175" y="587" smooth="yes"/>
      <point x="246" y="587" type="curve" smooth="yes"/>
      <point x="302" y="587"/>
      <point x="356" y="575"/>
      <point x="402" y="561" type="curve"/>
    </contour>
    <contour>
      <point x="358" y="130" type="line"/>
      <point x="358" y="110" smooth="yes"/>
      <point x="358" y="59" smooth="yes"/>
      <point x="252" y="59" type="curve" smooth="yes"/>
      <point x="146" y="59" smooth="yes"/>
      <point x="142" y="110" smooth="yes"/>
      <point x="142" y="130" type="curve" smooth="yes"/>
      <point x="142" y="302" type="line"/>
      <point x="176" y="311" smooth="yes"/>
      <point x="215" y="316" smooth="yes"/>
      <point x="252" y="316" type="curve" smooth="yes"/>
      <point x="358" y="316" smooth="yes"/>
      <point x="358" y="256" smooth="yes"/>
      <point x="358" y="237" type="curve" smooth="yes"/>
    </contour>
  </outline>
</glyph>
<glyph name="seven" format="1">
  <advance width="500"/>
  <unicode hex="0037"/>
  <outline>
    <contour>
      <point x="68" y="650" type="line" name="hr00"/>
      <point x="68" y="580" type="line"/>
      <point x="330" y="580" type="line"/>
      <point x="330" y="473" smooth="yes"/>
      <point x="322" y="397" smooth="yes"/>
      <point x="270" y="294" type="curve" smooth="yes"/>
      <point x="120" y="0" type="line"/>
      <point x="208" y="0" type="line"/>
      <point x="352" y="287" type="line" smooth="yes"/>
      <point x="406" y="395" smooth="yes"/>
      <point x="410" y="472" smooth="yes"/>
      <point x="410" y="580" type="curve" smooth="yes"/>
      <point x="410" y="650" type="line"/>
    </contour>
  </outline>
</glyph>
<glyph name="eight" format="1">
  <advance width="500"/>
  <unicode hex="0038"/>
  <outline>
    <contour>
      <point x="51" y="165" type="curve" name="hr00"/>
      <point x="51" y="66" smooth="yes"/>
      <point x="86" y="-12" smooth="yes"/>
      <point x="252" y="-12" type="curve" smooth="yes"/>
      <point x="439" y="-12" smooth="yes"/>
      <point x="448" y="85" smooth="yes"/>
      <point x="448" y="165" type="curve" smooth="yes"/>
      <point x="448" y="220"/>
      <point x="448" y="290"/>
      <point x="393" y="325" type="curve"/>
      <point x="447" y="355" smooth="yes"/>
      <point x="448" y="450" smooth="yes"/>
      <point x="448" y="501" type="curve" smooth="yes"/>
      <point x="448" y="591" smooth="yes"/>
      <point x="401" y="658" smooth="yes"/>
      <point x="252" y="658" type="curve" smooth="yes"/>
      <point x="77" y="658" smooth="yes"/>
      <point x="51" y="571" smooth="yes"/>
      <point x="51" y="481" type="curve" smooth="yes"/>
      <point x="51" y="410"/>
      <point x="51" y="347"/>
      <point x="110" y="312" type="curve"/>
      <point x="51" y="286" smooth="yes"/>
      <point x="51" y="218" smooth="yes"/>
    </contour>
    <contour>
      <point x="139" y="523" type="line"/>
      <point x="139" y="536" smooth="yes"/>
      <point x="144" y="587" smooth="yes"/>
      <point x="252" y="587" type="curve" smooth="yes"/>
      <point x="360" y="587" smooth="yes"/>
      <point x="360" y="536" smooth="yes"/>
      <point x="360" y="523" type="curve" smooth="yes"/>
      <point x="360" y="337" type="line"/>
      <point x="209" y="365" type="line" smooth="yes"/>
      <point x="157" y="375" smooth="yes"/>
      <point x="139" y="394" smooth="yes"/>
      <point x="139" y="423" type="curve" smooth="yes"/>
    </contour>
    <contour>
      <point x="360" y="123" type="line"/>
      <point x="360" y="110" smooth="yes"/>
      <point x="360" y="59" smooth="yes"/>
      <point x="252" y="59" type="curve" smooth="yes"/>
      <point x="144" y="59" smooth="yes"/>
      <point x="139" y="110" smooth="yes"/>
      <point x="139" y="123" type="curve" smooth="yes"/>
      <point x="139" y="305" type="line"/>
      <point x="290" y="277" type="line" smooth="yes"/>
      <point x="342" y="267" smooth="yes"/>
      <point x="360" y="248" smooth="yes"/>
      <point x="360" y="219" type="curve" smooth="yes"/>
    </contour>
  </outline>
</glyph>
<glyph name="nine" format="1">
  <advance width="500"/>
  <unicode hex="0039"/>
  <outline>
    <contour>
      <point x="76" y="19" type="line" name="hr00"/>
      <point x="103" y="7" smooth="yes"/>
      <point x="178" y="-12" smooth="yes"/>
      <point x="252" y="-12" type="curve" smooth="yes"/>
      <point x="449" y="-12" smooth="yes"/>
      <point x="454" y="112" smooth="yes"/>
      <point x="454" y="324" type="curve" smooth="yes"/>
      <point x="454" y="546" smooth="yes"/>
      <point x="443" y="658" smooth="yes"/>
      <point x="259" y="658" type="curve" smooth="yes"/>
      <point x="84" y="658" smooth="yes"/>
      <point x="61" y="557" smooth="yes"/>
      <point x="61" y="452" type="curve" smooth="yes"/>
      <point x="61" y="326" smooth="yes"/>
      <point x="82" y="252" smooth="yes"/>
      <point x="257" y="252" type="curve" smooth="yes"/>
      <point x="309" y="252"/>
      <point x="340" y="264"/>
      <point x="365" y="274" type="curve"/>
      <point x="365" y="144" type="line" smooth="yes"/>
      <point x="365" y="80" smooth="yes"/>
      <point x="315" y="60" smooth="yes"/>
      <point x="249" y="60" type="curve" smooth="yes"/>
      <point x="201" y="60"/>
      <point x="146" y="71"/>
      <point x="95" y="83" type="curve"/>
    </contour>
    <contour>
      <point x="149" y="505" type="line"/>
      <point x="149" y="535" smooth="yes"/>
      <point x="149" y="587" smooth="yes"/>
      <point x="247" y="587" type="curve" smooth="yes"/>
      <point x="365" y="587" smooth="yes"/>
      <point x="365" y="535" smooth="yes"/>
      <point x="365" y="505" type="curve" smooth="yes"/>
      <point x="365" y="334" type="line"/>
      <point x="330" y="326" smooth="yes"/>
      <point x="295" y="320" smooth="yes"/>
      <point x="257" y="320" type="curve" smooth="yes"/>
      <point x="149" y="320" smooth="yes"/>
      <point x="149" y="378" smooth="yes"/>
      <point x="149" y="397" type="curve" smooth="yes"/>
    </contour>
  </outline>
</glyph>
<glyph name="colon" format="1">
  <advance width="240"/>
  <unicode hex="003A"/>
  <outline>
    <contour>
      <point x="121" y="99" type="curve" name="hr00"/>
      <point x="86" y="99" smooth="yes"/>
      <point x="64" y="99" smooth="yes"/>
      <point x="64" y="44" type="curve" smooth="yes"/>
      <point x="64" y="-12" smooth="yes"/>
      <point x="86" y="-12" smooth="yes"/>
      <point x="121" y="-12" type="curve" smooth="yes"/>
      <point x="156" y="-12" smooth="yes"/>
      <point x="178" y="-12" smooth="yes"/>
      <point x="178" y="44" type="curve" smooth="yes"/>
      <point x="178" y="99" smooth="yes"/>
      <point x="156" y="99" smooth="yes"/>
    </contour>
    <contour>
      <point x="121" y="449" type="curve"/>
      <point x="86" y="449" smooth="yes"/>
      <point x="64" y="449" smooth="yes"/>
      <point x="64" y="394" type="curve" smooth="yes"/>
      <point x="64" y="338" smooth="yes"/>
      <point x="86" y="338" smooth="yes"/>
      <point x="121" y="338" type="curve" smooth="yes"/>
      <point x="156" y="338" smooth="yes"/>
      <point x="178" y="338" smooth="yes"/>
      <point x="178" y="394" type="curve" smooth="yes"/>
      <point x="178" y="449" smooth="yes"/>
      <point x="156" y="449" smooth="yes"/>
    </contour>
  </outline>
</glyph>
<glyph name="less" format="1">
  <advance width="500"/>
  <unicode hex="003C"/>
  <outline>
    <contour>
      <point x="60" y="352" type="line" name="hr00"/>
      <point x="60" y="282" type="line"/>
      <point x="440" y="122" type="line"/>
      <point x="440" y="192" type="line"/>
      <point x="137" y="317" type="line"/>
      <point x="440" y="442" type="line"/>
      <point x="440" y="512" type="line"/>
    </contour>
  </outline>
</glyph>
<glyph name="equal" format="1">
  <advance width="500"/>
  <unicode hex="003D"/>
  <outline>
    <contour>
      <point x="60" y="452" type="line" name="hr00"/>
      <point x="60" y="382" type="line"/>
      <point x="440" y="382" type="line"/>
      <point x="440" y="452" type="line"/>
    </contour>
    <contour>
      <point x="60" y="252" type="line"/>
      <point x="60" y="182" type="line"/>
      <point x="440" y="182" type="line"/>
      <point x="440" y="252" type="line"/>
    </contour>
  </outline>
</glyph>
<glyph name="question" format="1">
  <advance width="361"/>
  <unicode hex="003F"/>
  <outline>
    <contour>
      <point x="149" y="641" type="curve" name="hr00"/>
      <point x="234" y="641" smooth="yes"/>
      <point x="246" y="614" smooth="yes"/>
      <point x="246" y="540" type="curve" smooth="yes"/>
      <point x="246" y="476" smooth="yes"/>
      <point x="229" y="440" smooth="yes"/>
      <point x="188" y="393" type="curve" smooth="yes"/>
      <point x="135" y="332" type="line" smooth="yes"/>
      <point x="94" y="285"/>
      <point x="92" y="261"/>
      <point x="92" y="179" type="curve"/>
      <point x="159" y="179" type="line"/>
      <point x="159" y="233" smooth="yes"/>
      <point x="159" y="243" smooth="yes"/>
      <point x="200" y="290" type="curve" smooth="yes"/>
      <point x="253" y="351" type="line" smooth="yes"/>
      <point x="294" y="398" smooth="yes"/>
      <point x="331" y="459" smooth="yes"/>
      <point x="331" y="541" type="curve" smooth="yes"/>
      <point x="331" y="652" smooth="yes"/>
      <point x="283" y="712" smooth="yes"/>
      <point x="149" y="712" type="curve" smooth="yes"/>
      <point x="122" y="712"/>
      <point x="65" y="705"/>
      <point x="20" y="691" type="curve"/>
      <point x="35" y="626" type="line"/>
      <point x="60" y="632" smooth="yes"/>
      <point x="97" y="641" smooth="yes"/>
    </contour>
    <contour>
      <point x="129" y="99" type="curve"/>
      <point x="94" y="99" smooth="yes"/>
      <point x="72" y="99" smooth="yes"/>
      <point x="72" y="44" type="curve" smooth="yes"/>
      <point x="72" y="-12" smooth="yes"/>
      <point x="94" y="-12" smooth="yes"/>
      <point x="129" y="-12" type="curve" smooth="yes"/>
      <point x="164" y="-12" smooth="yes"/>
      <point x="186" y="-12" smooth="yes"/>
      <point x="186" y="44" type="curve" smooth="yes"/>
      <point x="186" y="99" smooth="yes"/>
      <point x="164" y="99" smooth="yes"/>
    </contour>
  </outline>
</glyph>
<glyph name="at" format="1">
  <advance width="708"/>
  <unicode hex="0040"/>
  <outline>
    <contour>
      <point x="420" y="60" type="curve" name="hr00"/>
      <point x="501" y="60"/>
      <point x="595" y="82"/>
      <point x="632" y="97" type="curve"/>
      <point x="632" y="450" type="line" smooth="yes"/>
      <point x="632" y="598" smooth="yes"/>
      <point x="516" y="620" smooth="yes"/>
      <point x="354" y="620" type="curve" smooth="yes"/>
      <point x="192" y="620" smooth="yes"/>
      <point x="70" y="602" smooth="yes"/>
      <point x="70" y="252" type="curve" smooth="yes"/>
      <point x="70" y="-98" smooth="yes"/>
      <point x="192" y="-116" smooth="yes"/>
      <point x="354" y="-116" type="curve" smooth="yes"/>
      <point x="473" y="-116"/>
      <point x="599" y="-71"/>
      <point x="648" y="-50" type="curve"/>
      <point x="628" y="6" type="line"/>
      <point x="571" y="-13" smooth="yes"/>
      <point x="471" y="-45" smooth="yes"/>
      <point x="354" y="-45" type="curve" smooth="yes"/>
      <point x="226" y="-45" smooth="yes"/>
      <point x="159" y="-37" smooth="yes"/>
      <point x="159" y="157" type="curve" smooth="yes"/>
      <point x="159" y="347" type="line" smooth="yes"/>
      <point x="159" y="541" smooth="yes"/>
      <point x="226" y="549" smooth="yes"/>
      <point x="354" y="549" type="curve" smooth="yes"/>
      <point x="482" y="549" smooth="yes"/>
      <point x="550" y="545" smooth="yes"/>
      <point x="550" y="461" type="curve" smooth="yes"/>
      <point x="550" y="372" type="line"/>
      <point x="382" y="370" smooth="yes"/>
      <point x="285" y="367" smooth="yes"/>
      <point x="285" y="225" type="curve" smooth="yes"/>
      <point x="285" y="140" smooth="yes"/>
      <point x="301" y="60" smooth="yes"/>
    </contour>
    <contour>
      <point x="550" y="135" type="line"/>
      <point x="523" y="130" smooth="yes"/>
      <point x="492" y="125" smooth="yes"/>
      <point x="455" y="125" type="curve" smooth="yes"/>
      <point x="371" y="125" smooth="yes"/>
      <point x="367" y="158" smooth="yes"/>
      <point x="367" y="214" type="curve" smooth="yes"/>
      <point x="367" y="237" type="line" smooth="yes"/>
      <point x="367" y="315"/>
      <point x="455" y="315"/>
      <point x="550" y="315" type="curve"/>
    </contour>
  </outline>
</glyph>
<glyph name="A" format="1">
  <advance width="548"/>
  <unicode hex="0041"/>
  <outline>
    <contour>
      <point x="35" y="0" type="line" name="hr00"/>
      <point x="123" y="0" type="line"/>
      <point x="164" y="177" type="line"/>
      <point x="384" y="177" type="line"/>
      <point x="425" y="0" type="line"/>
      <point x="513" y="0" type="line"/>
      <point x="347" y="700" type="line"/>
      <point x="201" y="700" type="line"/>
    </contour>
    <contour>
      <point x="277" y="636" type="line"/>
      <point x="367" y="247" type="line"/>
      <point x="180" y="247" type="line"/>
      <point x="271" y="636" type="line"/>
    </contour>
  </outline>
</glyph>
<glyph name="B" format="1">
  <advance width="548"/>
  <unicode hex="0042"/>
  <outline>
    <contour>
      <point x="90" y="700" type="line"/>
      <point x="90" y="0" type="line"/>
      <point x="261" y="0" type="line" smooth="yes"/>
      <point x="420" y="0" smooth="yes"/>
      <point x="473" y="59" smooth="yes"/>
      <point x="473" y="195" type="curve" smooth="yes"/>
      <point x="473" y="283"/>
      <point x="446" y="329"/>
      <point x="383" y="351" type="curve"/>
      <point x="432" y="375" smooth="yes"/>
      <point x="453" y="421" smooth="yes"/>
      <point x="453" y="503" type="curve" smooth="yes" name="hr01"/>
      <point x="453" y="641" smooth="yes"/>
      <point x="404" y="700" smooth="yes"/>
      <point x="256" y="700" type="curve" smooth="yes"/>
    </contour>
    <contour>
      <point x="386" y="176" type="line" name="hr02"/>
      <point x="386" y="114" smooth="yes"/>
      <point x="386" y="71" smooth="yes"/>
      <point x="262" y="71" type="curve" smooth="yes"/>
      <point x="176" y="71" type="line"/>
      <point x="176" y="320" type="line"/>
      <point x="252" y="320" type="line" smooth="yes"/>
      <point x="386" y="320" smooth="yes"/>
      <point x="386" y="277" smooth="yes"/>
      <point x="386" y="215" type="curve" smooth="yes"/>
    </contour>
    <contour>
      <point x="366" y="483" type="line" name="hr03"/>
      <point x="366" y="420" smooth="yes"/>
      <point x="366" y="377" smooth="yes"/>
      <point x="245" y="377" type="curve" smooth="yes"/>
      <point x="176" y="377" type="line"/>
      <point x="176" y="629" type="line"/>
      <point x="255" y="629" type="line" smooth="yes"/>
      <point x="366" y="629" smooth="yes"/>
      <point x="366" y="586" smooth="yes"/>
      <point x="366" y="522" type="curve" smooth="yes"/>
    </contour>
  </outline>
</glyph>
<glyph name="C" format="1">
  <advance width="479"/>
  <unicode hex="0043"/>
  <outline>
    <contour>
      <point x="296" y="712" type="curve" name="hr00"/>
      <point x="77" y="712" smooth="yes"/>
      <point x="75" y="615" smooth="yes"/>
      <point x="75" y="349" type="curve" smooth="yes"/>
      <point x="75" y="82" smooth="yes"/>
      <point x="77" y="-12" smooth="yes"/>
      <point x="296" y="-12" type="curve" smooth="yes"/>
      <point x="352" y="-12"/>
      <point x="408" y="3"/>
      <point x="439" y="16" type="curve"/>
      <point x="420" y="75" type="line"/>
      <point x="381" y="65" smooth="yes"/>
      <point x="347" y="59" smooth="yes"/>
      <point x="297" y="59" type="curve" smooth="yes"/>
      <point x="162" y="59" smooth="yes"/>
      <point x="162" y="115" smooth="yes"/>
      <point x="162" y="193" type="curve" smooth="yes"/>
      <point x="162" y="507" type="line" smooth="yes"/>
      <point x="162" y="585" smooth="yes"/>
      <point x="162" y="641" smooth="yes"/>
      <point x="297" y="641" type="curve" smooth="yes"/>
      <point x="348" y="641"/>
      <point x="386" y="635"/>
      <point x="411" y="629" type="curve"/>
      <point x="426" y="694" type="line"/>
      <point x="381" y="708" smooth="yes"/>
      <point x="323" y="712" smooth="yes"/>
    </contour>
  </outline>
</glyph>
<glyph name="D" format="1">
  <advance width="587"/>
  <unicode hex="0044"/>
  <outline>
    <contour>
      <point x="90" y="700" type="line" name="hr00"/>
      <point x="90" y="0" type="line"/>
      <point x="290" y="0" type="line" smooth="yes"/>
      <point x="510" y="0" smooth="yes"/>
      <point x="512" y="82" smooth="yes"/>
      <point x="512" y="349" type="curve" smooth="yes"/>
      <point x="512" y="615" smooth="yes"/>
      <point x="510" y="700" smooth="yes"/>
      <point x="290" y="700" type="curve" smooth="yes"/>
    </contour>
    <contour>
      <point x="176" y="628" type="line"/>
      <point x="291" y="628" type="line" smooth="yes"/>
      <point x="425" y="628" smooth="yes"/>
      <point x="425" y="575" smooth="yes"/>
      <point x="425" y="497" type="curve" smooth="yes"/>
      <point x="425" y="205" type="line" smooth="yes"/>
      <point x="425" y="127" smooth="yes"/>
      <point x="425" y="74" smooth="yes"/>
      <point x="291" y="74" type="curve" smooth="yes"/>
      <point x="176" y="74" type="line"/>
    </contour>
  </outline>
</glyph>
<glyph name="E" format="1">
  <advance width="473"/>
  <unicode hex="0045"/>
  <outline>
    <contour>
      <point x="90" y="700" type="line" name="hr00"/>
      <point x="90" y="0" type="line"/>
      <point x="433" y="0" type="line"/>
      <point x="433" y="70" type="line"/>
      <point x="176" y="70" type="line"/>
      <point x="176" y="316" type="line"/>
      <point x="393" y="316" type="line"/>
      <point x="393" y="386" type="line"/>
      <point x="176" y="386" type="line"/>
      <point x="176" y="630" type="line"/>
      <point x="413" y="630" type="line"/>
      <point x="423" y="700" type="line"/>
    </contour>
  </outline>
</glyph>
<glyph name="F" format="1">
  <advance width="433"/>
  <unicode hex="0046"/>
  <outline>
    <contour>
      <point x="413" y="700" type="line" name="hr00"/>
      <point x="90" y="700" type="line"/>
      <point x="90" y="0" type="line"/>
      <point x="176" y="0" type="line"/>
      <point x="176" y="316" type="line"/>
      <point x="383" y="316" type="line"/>
      <point x="383" y="386" type="line"/>
      <point x="176" y="386" type="line"/>
      <point x="176" y="630" type="line"/>
      <point x="403" y="630" type="line"/>
    </contour>
  </outline>
</glyph>
<glyph name="G" format="1">
  <advance width="552"/>
  <unicode hex="0047"/>
  <outline>
    <contour>
      <point x="472" y="355" type="line" name="hr00"/>
      <point x="297" y="355" type="line"/>
      <point x="297" y="295" type="line"/>
      <point x="392" y="295" type="line"/>
      <point x="392" y="68" type="line"/>
      <point x="363" y="62" smooth="yes"/>
      <point x="335" y="59" smooth="yes"/>
      <point x="297" y="59" type="curve" smooth="yes"/>
      <point x="162" y="59" smooth="yes"/>
      <point x="162" y="115" smooth="yes"/>
      <point x="162" y="193" type="curve" smooth="yes"/>
      <point x="162" y="510" type="line" smooth="yes"/>
      <point x="162" y="588" smooth="yes"/>
      <point x="162" y="641" smooth="yes"/>
      <point x="297" y="641" type="curve" smooth="yes"/>
      <point x="348" y="641"/>
      <point x="406" y="631"/>
      <point x="431" y="625" type="curve"/>
      <point x="446" y="690" type="line"/>
      <point x="403" y="703" smooth="yes"/>
      <point x="342" y="712" smooth="yes"/>
      <point x="296" y="712" type="curve" smooth="yes"/>
      <point x="77" y="712" smooth="yes"/>
      <point x="75" y="615" smooth="yes"/>
      <point x="75" y="349" type="curve" smooth="yes"/>
      <point x="75" y="82" smooth="yes"/>
      <point x="77" y="-12" smooth="yes"/>
      <point x="296" y="-12" type="curve" smooth="yes"/>
      <point x="352" y="-12"/>
      <point x="432" y="4"/>
      <point x="472" y="26" type="curve"/>
    </contour>
  </outline>
</glyph>
<glyph name="I" format="1">
  <advance width="266"/>
  <unicode hex="0049"/>
  <outline>
    <contour>
      <point x="176" y="700" type="line" name="hr00"/>
      <point x="90" y="700" type="line"/>
      <point x="90" y="0" type="line"/>
      <point x="176" y="0" type="line"/>
    </contour>
  </outline>
</glyph>
<glyph name="J" format="1">
  <advance width="271"/>
  <unicode hex="004A"/>
  <outline>
    <contour>
      <point x="186" y="700" type="line" name="hr00"/>
      <point x="100" y="700" type="line"/>
      <point x="100" y="135" type="line" smooth="yes"/>
      <point x="100" y="82"/>
      <point x="99" y="49"/>
      <point x="26" y="47" type="curve"/>
      <point x="26" y="-9" type="line"/>
      <point x="38" y="-11" smooth="yes"/>
      <point x="49" y="-12" smooth="yes"/>
      <point x="59" y="-12" type="curve" smooth="yes"/>
      <point x="182" y="-12" smooth="yes"/>
      <point x="186" y="73" smooth="yes"/>
      <point x="186" y="157" type="curve" smooth="yes"/>
    </contour>
  </outline>
</glyph>
<glyph name="K" format="1">
  <advance width="518"/>
  <unicode hex="004B"/>
  <outline>
    <contour>
      <point x="176" y="0" type="line" name="hr00"/>
      <point x="176" y="700" type="line"/>
      <point x="90" y="700" type="line"/>
      <point x="90" y="0" type="line"/>
    </contour>
    <contour>
      <point x="386" y="700" type="line"/>
      <point x="202" y="350" type="line"/>
      <point x="386" y="0" type="line"/>
      <point x="478" y="0" type="line"/>
      <point x="293" y="350" type="line"/>
      <point x="477" y="700" type="line"/>
    </contour>
  </outline>
</glyph>
<glyph name="L" format="1">
  <advance width="422"/>
  <unicode hex="004C"/>
  <outline>
    <contour>
      <point x="90" y="700" type="line" name="hr00"/>
      <point x="90" y="0" type="line"/>
      <point x="402" y="0" type="line"/>
      <point x="402" y="70" type="line"/>
      <point x="176" y="70" type="line"/>
      <point x="176" y="700" type="line"/>
    </contour>
  </outline>
</glyph>
<glyph name="M" format="1">
  <advance width="726"/>
  <unicode hex="004D"/>
  <outline>
    <contour>
      <point x="316" y="170" type="line" name="hr00"/>
      <point x="410" y="170" type="line"/>
      <point x="542" y="563" type="line"/>
      <point x="548" y="563" type="line"/>
      <point x="561" y="0" type="line"/>
      <point x="644" y="0" type="line"/>
      <point x="623" y="700" type="line"/>
      <point x="513" y="700" type="line"/>
      <point x="366" y="258" type="line"/>
      <point x="360" y="258" type="line"/>
      <point x="213" y="700" type="line"/>
      <point x="103" y="700" type="line"/>
      <point x="82" y="0" type="line"/>
      <point x="165" y="0" type="line"/>
      <point x="178" y="563" type="line"/>
      <point x="184" y="563" type="line"/>
    </contour>
  </outline>
</glyph>
<glyph name="N" format="1">
  <advance width="597"/>
  <unicode hex="004E"/>
  <outline>
    <contour>
      <point x="216" y="700" type="line" name="hr00"/>
      <point x="90" y="700" type="line"/>
      <point x="90" y="0" type="line"/>
      <point x="174" y="0" type="line"/>
      <point x="174" y="584" type="line"/>
      <point x="180" y="584" type="line"/>
      <point x="381" y="0" type="line"/>
      <point x="507" y="0" type="line"/>
      <point x="507" y="700" type="line"/>
      <point x="423" y="700" type="line"/>
      <point x="423" y="116" type="line"/>
      <point x="417" y="116" type="line"/>
    </contour>
  </outline>
</glyph>
<glyph name="O" format="1">
  <advance width="593"/>
  <unicode hex="004F"/>
  <outline>
    <contour>
      <point x="296" y="-12" type="curve" name="hr00"/>
      <point x="516" y="-12" smooth="yes"/>
      <point x="518" y="82" smooth="yes"/>
      <point x="518" y="349" type="curve" smooth="yes"/>
      <point x="518" y="615" smooth="yes"/>
      <point x="516" y="712" smooth="yes"/>
      <point x="296" y="712" type="curve" smooth="yes"/>
      <point x="77" y="712" smooth="yes"/>
      <point x="75" y="615" smooth="yes"/>
      <point x="75" y="349" type="curve" smooth="yes"/>
      <point x="75" y="82" smooth="yes"/>
      <point x="77" y="-12" smooth="yes"/>
    </contour>
    <contour>
      <point x="431" y="193" type="line"/>
      <point x="431" y="115" smooth="yes"/>
      <point x="431" y="59" smooth="yes"/>
      <point x="297" y="59" type="curve" smooth="yes"/>
      <point x="162" y="59" smooth="yes"/>
      <point x="162" y="115" smooth="yes"/>
      <point x="162" y="193" type="curve" smooth="yes"/>
      <point x="162" y="507" type="line" smooth="yes"/>
      <point x="162" y="585" smooth="yes"/>
      <point x="162" y="641" smooth="yes"/>
      <point x="297" y="641" type="curve" smooth="yes"/>
      <point x="431" y="641" smooth="yes"/>
      <point x="431" y="585" smooth="yes"/>
      <point x="431" y="507" type="curve" smooth="yes"/>
    </contour>
  </outline>
</glyph>
<glyph name="P" format="1">
  <advance width="513"/>
  <unicode hex="0050"/>
  <outline>
    <contour>
      <point x="90" y="700" type="line" name="hr00"/>
      <point x="90" y="0" type="line"/>
      <point x="176" y="0" type="line"/>
      <point x="176" y="248" type="line"/>
      <point x="241" y="248" type="line" smooth="yes"/>
      <point x="400" y="248" smooth="yes"/>
      <point x="463" y="307" smooth="yes"/>
      <point x="463" y="474" type="curve" smooth="yes"/>
      <point x="463" y="641" smooth="yes"/>
      <point x="400" y="700" smooth="yes"/>
      <point x="241" y="700" type="curve" smooth="yes"/>
    </contour>
    <contour>
      <point x="376" y="450" type="line"/>
      <point x="376" y="372" smooth="yes"/>
      <point x="376" y="319" smooth="yes"/>
      <point x="242" y="319" type="curve" smooth="yes"/>
      <point x="176" y="319" type="line"/>
      <point x="176" y="629" type="line"/>
      <point x="242" y="629" type="line" smooth="yes"/>
      <point x="376" y="629" smooth="yes"/>
      <point x="376" y="576" smooth="yes"/>
      <point x="376" y="498" type="curve" smooth="yes"/>
    </contour>
  </outline>
</glyph>
<glyph name="Q" format="1">
  <advance width="593"/>
  <unicode hex="0051"/>
  <outline>
    <contour>
      <point x="287" y="-124" type="line" name="hr00"/>
      <point x="365" y="-124" type="line"/>
      <point x="340" y="-21" type="line"/>
      <point x="334" y="-16" type="line"/>
      <point x="334" y="-11" type="line"/>
      <point x="516" y="0" smooth="yes"/>
      <point x="518" y="98" smooth="yes"/>
      <point x="518" y="349" type="curve" smooth="yes"/>
      <point x="518" y="615" smooth="yes"/>
      <point x="516" y="712" smooth="yes"/>
      <point x="296" y="712" type="curve" smooth="yes"/>
      <point x="77" y="712" smooth="yes"/>
      <point x="75" y="615" smooth="yes"/>
      <point x="75" y="349" type="curve" smooth="yes"/>
      <point x="75" y="95"/>
      <point x="77" y="-2"/>
      <point x="266" y="-11" type="curve"/>
    </contour>
    <contour>
      <point x="431" y="193" type="line"/>
      <point x="431" y="115" smooth="yes"/>
      <point x="431" y="59" smooth="yes"/>
      <point x="297" y="59" type="curve" smooth="yes"/>
      <point x="162" y="59" smooth="yes"/>
      <point x="162" y="115" smooth="yes"/>
      <point x="162" y="193" type="curve" smooth="yes"/>
      <point x="162" y="507" type="line" smooth="yes"/>
      <point x="162" y="585" smooth="yes"/>
      <point x="162" y="641" smooth="yes"/>
      <point x="297" y="641" type="curve" smooth="yes"/>
      <point x="431" y="641" smooth="yes"/>
      <point x="431" y="585" smooth="yes"/>
      <point x="431" y="507" type="curve" smooth="yes"/>
    </contour>
  </outline>
</glyph>
<glyph name="R" format="1">
  <advance width="540"/>
  <unicode hex="0052"/>
  <outline>
    <contour>
      <point x="392" y="0" type="line" name="hr00"/>
      <point x="480" y="0" type="line"/>
      <point x="365" y="287" type="line"/>
      <point x="433" y="314" smooth="yes"/>
      <point x="463" y="375" smooth="yes"/>
      <point x="463" y="484" type="curve" smooth="yes"/>
      <point x="463" y="644" smooth="yes"/>
      <point x="400" y="700" smooth="yes"/>
      <point x="241" y="700" type="curve" smooth="yes"/>
      <point x="90" y="700" type="line"/>
      <point x="90" y="0" type="line"/>
      <point x="176" y="0" type="line"/>
      <point x="176" y="268" type="line"/>
      <point x="241" y="268" type="line" smooth="yes"/>
      <point x="255" y="268"/>
      <point x="269" y="268"/>
      <point x="282" y="269" type="curve"/>
    </contour>
    <contour>
      <point x="376" y="462" type="line"/>
      <point x="376" y="389" smooth="yes"/>
      <point x="376" y="339" smooth="yes"/>
      <point x="242" y="339" type="curve" smooth="yes"/>
      <point x="176" y="339" type="line"/>
      <point x="176" y="629" type="line"/>
      <point x="242" y="629" type="line" smooth="yes"/>
      <point x="376" y="629" smooth="yes"/>
      <point x="376" y="579" smooth="yes"/>
      <point x="376" y="506" type="curve" smooth="yes"/>
    </contour>
  </outline>
</glyph>
<glyph name="S" format="1">
  <advance width="490"/>
  <unicode hex="0053"/>
  <outline>
    <contour>
      <point x="248" y="-12" type="curve" name="hr00"/>
      <point x="385" y="-12" smooth="yes"/>
      <point x="435" y="77" smooth="yes"/>
      <point x="435" y="187" type="curve" smooth="yes"/>
      <point x="435" y="325" smooth="yes"/>
      <point x="387" y="368" smooth="yes"/>
      <point x="308" y="380" type="curve" smooth="yes"/>
      <point x="214" y="394" type="line" smooth="yes"/>
      <point x="152" y="403" smooth="yes"/>
      <point x="141" y="444" smooth="yes"/>
      <point x="141" y="518" type="curve" smooth="yes"/>
      <point x="141" y="626" smooth="yes"/>
      <point x="191" y="641" smooth="yes"/>
      <point x="247" y="641" type="curve" smooth="yes"/>
      <point x="308" y="641"/>
      <point x="368" y="627"/>
      <point x="393" y="620" type="curve"/>
      <point x="411" y="680" type="line"/>
      <point x="368" y="696" smooth="yes"/>
      <point x="312" y="712" smooth="yes"/>
      <point x="246" y="712" type="curve" smooth="yes"/>
      <point x="122" y="712" smooth="yes"/>
      <point x="57" y="638" smooth="yes"/>
      <point x="57" y="518" type="curve" smooth="yes"/>
      <point x="57" y="401" smooth="yes"/>
      <point x="75" y="335" smooth="yes"/>
      <point x="174" y="320" type="curve" smooth="yes"/>
      <point x="273" y="306" type="line" smooth="yes"/>
      <point x="344" y="296" smooth="yes"/>
      <point x="351" y="240" smooth="yes"/>
      <point x="351" y="188" type="curve" smooth="yes"/>
      <point x="351" y="90" smooth="yes"/>
      <point x="312" y="59" smooth="yes"/>
      <point x="237" y="59" type="curve" smooth="yes"/>
      <point x="176" y="59"/>
      <point x="110" y="74"/>
      <point x="73" y="87" type="curve"/>
      <point x="55" y="25" type="line"/>
      <point x="110" y="1" smooth="yes"/>
      <point x="182" y="-12" smooth="yes"/>
    </contour>
  </outline>
</glyph>
<glyph name="T" format="1">
  <advance width="400"/>
  <unicode hex="0054"/>
  <outline>
    <contour>
      <point x="10" y="700" type="line" name="hr00"/>
      <point x="10" y="630" type="line"/>
      <point x="157" y="630" type="line"/>
      <point x="157" y="0" type="line"/>
      <point x="243" y="0" type="line"/>
      <point x="243" y="630" type="line"/>
      <point x="390" y="630" type="line"/>
      <point x="390" y="700" type="line"/>
    </contour>
  </outline>
</glyph>
<glyph name="U" format="1">
  <advance width="611"/>
  <unicode hex="0055"/>
  <outline>
    <contour>
      <point x="440" y="700" type="line" name="hr00"/>
      <point x="440" y="193" type="line" smooth="yes"/>
      <point x="440" y="115" smooth="yes"/>
      <point x="440" y="62" smooth="yes"/>
      <point x="306" y="62" type="curve" smooth="yes"/>
      <point x="171" y="62" smooth="yes"/>
      <point x="171" y="115" smooth="yes"/>
      <point x="171" y="193" type="curve" smooth="yes"/>
      <point x="171" y="700" type="line"/>
      <point x="85" y="700" type="line"/>
      <point x="85" y="349" type="line" smooth="yes"/>
      <point x="85" y="82" smooth="yes"/>
      <point x="86" y="-12" smooth="yes"/>
      <point x="305" y="-12" type="curve" smooth="yes"/>
      <point x="525" y="-12" smooth="yes"/>
      <point x="526" y="82" smooth="yes"/>
      <point x="526" y="349" type="curve" smooth="yes"/>
      <point x="526" y="700" type="line"/>
    </contour>
  </outline>
</glyph>
<glyph name="V" format="1">
  <advance width="532"/>
  <unicode hex="0056"/>
  <outline>
    <contour>
      <point x="199" y="0" type="line" name="hr00"/>
      <point x="333" y="0" type="line"/>
      <point x="497" y="700" type="line"/>
      <point x="412" y="700" type="line"/>
      <point x="269" y="57" type="line"/>
      <point x="263" y="57" type="line"/>
      <point x="120" y="700" type="line"/>
      <point x="35" y="700" type="line"/>
    </contour>
  </outline>
</glyph>
<glyph name="W" format="1">
  <advance width="845"/>
  <unicode hex="0057"/>
  <outline>
    <contour>
      <point x="537" y="0" type="line" name="hr00"/>
      <point x="672" y="0" type="line"/>
      <point x="790" y="700" type="line"/>
      <point x="705" y="700" type="line"/>
      <point x="604" y="57" type="line"/>
      <point x="598" y="57" type="line"/>
      <point x="470" y="700" type="line"/>
      <point x="375" y="700" type="line"/>
      <point x="247" y="57" type="line"/>
      <point x="241" y="57" type="line"/>
      <point x="140" y="700" type="line"/>
      <point x="55" y="700" type="line"/>
      <point x="173" y="0" type="line"/>
      <point x="308" y="0" type="line"/>
      <point x="419" y="572" type="line"/>
      <point x="425" y="572" type="line"/>
    </contour>
  </outline>
</glyph>
<glyph name="X" format="1">
  <advance width="515"/>
  <unicode hex="0058"/>
  <outline>
    <contour>
      <point x="393" y="700" type="line" name="hr00"/>
      <point x="257" y="435" type="line"/>
      <point x="122" y="700" type="line"/>
      <point x="31" y="700" type="line"/>
      <point x="210" y="350" type="line"/>
      <point x="30" y="0" type="line"/>
      <point x="122" y="0" type="line"/>
      <point x="257" y="265" type="line"/>
      <point x="393" y="0" type="line"/>
      <point x="485" y="0" type="line"/>
      <point x="305" y="350" type="line"/>
      <point x="484" y="700" type="line"/>
    </contour>
  </outline>
</glyph>
<glyph name="Y" format="1">
  <advance width="478"/>
  <unicode hex="0059"/>
  <outline>
    <contour>
      <point x="279" y="0" type="line" name="hr00"/>
      <point x="279" y="225" type="line"/>
      <point x="453" y="700" type="line"/>
      <point x="365" y="700" type="line"/>
      <point x="242" y="319" type="line"/>
      <point x="236" y="319" type="line"/>
      <point x="113" y="700" type="line"/>
      <point x="25" y="700" type="line"/>
      <point x="199" y="225" type="line"/>
      <point x="199" y="0" type="line"/>
    </contour>
  </outline>
</glyph>
<glyph name="Z" format="1">
  <advance width="487"/>
  <unicode hex="005A"/>
  <outline>
    <contour>
      <point x="60" y="700" type="line" name="hr00"/>
      <point x="60" y="630" type="line"/>
      <point x="355" y="630" type="line"/>
      <point x="40" y="59" type="line"/>
      <point x="40" y="0" type="line"/>
      <point x="442" y="0" type="line"/>
      <point x="442" y="70" type="line"/>
      <point x="133" y="70" type="line"/>
      <point x="447" y="641" type="line"/>
      <point x="447" y="700" type="line"/>
    </contour>
  </outline>
</glyph>
<glyph name="bracketleft" format="1">
  <advance width="340"/>
  <unicode hex="005B"/>
  <outline>
    <contour>
      <point x="90" y="800" type="line" name="hr00"/>
      <point x="90" y="-100" type="line"/>
      <point x="280" y="-100" type="line"/>
      <point x="280" y="-30" type="line"/>
      <point x="176" y="-30" type="line"/>
      <point x="176" y="730" type="line"/>
      <point x="280" y="730" type="line"/>
      <point x="280" y="800" type="line"/>
    </contour>
  </outline>
</glyph>
<glyph name="bracketright" format="1">
  <advance width="340"/>
  <unicode hex="005D"/>
  <outline>
    <contour>
      <point x="250" y="-100" type="line" name="hr00"/>
      <point x="250" y="800" type="line"/>
      <point x="60" y="800" type="line"/>
      <point x="60" y="730" type="line"/>
      <point x="164" y="730" type="line"/>
      <point x="164" y="-30" type="line"/>
      <point x="60" y="-30" type="line"/>
      <point x="60" y="-100" type="line"/>
    </contour>
  </outline>
</glyph>
<glyph name="asciicircum" format="1">
  <advance width="500"/>
  <unicode hex="005E"/>
  <outline>
    <contour>
      <point x="285" y="646" type="line" name="hr00"/>
      <point x="215" y="646" type="line"/>
      <point x="80" y="352" type="line"/>
      <point x="150" y="352" type="line"/>
      <point x="250" y="569" type="line"/>
      <point x="350" y="352" type="line"/>
      <point x="420" y="352" type="line"/>
    </contour>
  </outline>
</glyph>
<glyph name="underscore" format="1">
  <advance width="430"/>
  <unicode hex="005F"/>
  <outline>
    <contour>
      <point x="30" y="-12" type="line" name="hr00"/>
      <point x="30" y="-77" type="line"/>
      <point x="400" y="-77" type="line"/>
      <point x="400" y="-12" type="line"/>
    </contour>
  </outline>
</glyph>
<glyph name="grave" format="1">
  <advance width="430"/>
  <unicode hex="0060"/>
  <outline>
    <contour>
      <point x="282" y="586" type="line" name="hr00"/>
      <point x="305" y="620" type="line"/>
      <point x="140" y="756" type="line"/>
      <point x="94" y="689" type="line"/>
    </contour>
  </outline>
</glyph>
<glyph name="a" format="1">
  <advance width="497"/>
  <unicode hex="0061"/>
  <outline>
    <contour>
      <point x="372" y="0" type="line"/>
      <point x="417" y="0" type="line"/>
      <point x="417" y="375" type="line" smooth="yes"/>
      <point x="417" y="470" smooth="yes"/>
      <point x="399" y="530" smooth="yes"/>
      <point x="256" y="530" type="curve" smooth="yes"/>
      <point x="189" y="530"/>
      <point x="132" y="512"/>
      <point x="91" y="492" type="curve"/>
      <point x="107" y="442" type="line"/>
      <point x="144" y="454" smooth="yes"/>
      <point x="198" y="464" smooth="yes"/>
      <point x="246" y="464" type="curve" smooth="yes"/>
      <point x="299" y="464" smooth="yes"/>
      <point x="335" y="450" smooth="yes"/>
      <point x="335" y="375" type="curve" smooth="yes"/>
      <point x="335" y="300" type="line"/>
      <point x="167" y="298" smooth="yes"/>
      <point x="70" y="295" smooth="yes"/>
      <point x="70" y="153" type="curve" smooth="yes"/>
      <point x="70" y="68" smooth="yes"/>
      <point x="86" y="-12" smooth="yes"/>
      <point x="205" y="-12" type="curve" smooth="yes" name="hr01"/>
      <point x="251" y="-12"/>
      <point x="307" y="-10"/>
      <point x="359" y="49" type="curve"/>
    </contour>
    <contour>
      <point x="335" y="140" type="line"/>
      <point x="335" y="90" smooth="yes"/>
      <point x="319" y="53" smooth="yes"/>
      <point x="240" y="53" type="curve" smooth="yes" name="hr03"/>
      <point x="156" y="53" smooth="yes"/>
      <point x="152" y="86" smooth="yes"/>
      <point x="152" y="142" type="curve" smooth="yes"/>
      <point x="152" y="165" type="line" smooth="yes"/>
      <point x="152" y="243"/>
      <point x="240" y="243"/>
      <point x="335" y="243" type="curve"/>
    </contour>
  </outline>
</glyph>
<glyph name="b" format="1">
  <advance width="514"/>
  <unicode hex="0062"/>
  <outline>
    <contour>
      <point x="172" y="374" type="line" name="hr00"/>
      <point x="172" y="424" smooth="yes"/>
      <point x="188" y="461" smooth="yes"/>
      <point x="267" y="461" type="curve" smooth="yes"/>
      <point x="351" y="461" smooth="yes"/>
      <point x="355" y="428" smooth="yes"/>
      <point x="355" y="372" type="curve" smooth="yes"/>
      <point x="355" y="147" type="line" smooth="yes"/>
      <point x="355" y="75" smooth="yes"/>
      <point x="344" y="53" smooth="yes"/>
      <point x="265" y="53" type="curve" smooth="yes"/>
      <point x="233" y="53"/>
      <point x="202" y="58"/>
      <point x="172" y="64" type="curve"/>
    </contour>
    <contour>
      <point x="90" y="720" type="line"/>
      <point x="90" y="17" type="line"/>
      <point x="165" y="-5" smooth="yes"/>
      <point x="230" y="-12" smooth="yes"/>
      <point x="267" y="-12" type="curve" smooth="yes"/>
      <point x="436" y="-12" smooth="yes"/>
      <point x="439" y="84" smooth="yes"/>
      <point x="439" y="284" type="curve" smooth="yes"/>
      <point x="439" y="449" smooth="yes"/>
      <point x="421" y="525" smooth="yes"/>
      <point x="302" y="525" type="curve" smooth="yes"/>
      <point x="262" y="525"/>
      <point x="208" y="524"/>
      <point x="167" y="486" type="curve"/>
      <point x="167" y="720" type="line"/>
    </contour>
  </outline>
</glyph>
<glyph name="c" format="1">
  <advance width="405"/>
  <unicode hex="0063"/>
  <outline>
    <contour>
      <point x="254" y="531" type="curve" name="hr00"/>
      <point x="77" y="531" smooth="yes"/>
      <point x="75" y="427" smooth="yes"/>
      <point x="75" y="260" type="curve" smooth="yes"/>
      <point x="75" y="93" smooth="yes"/>
      <point x="77" y="-12" smooth="yes"/>
      <point x="246" y="-12" type="curve" smooth="yes"/>
      <point x="299" y="-12"/>
      <point x="338" y="-2"/>
      <point x="373" y="14" type="curve"/>
      <point x="361" y="68" type="line"/>
      <point x="323" y="59" smooth="yes"/>
      <point x="286" y="52" smooth="yes"/>
      <point x="254" y="52" type="curve" smooth="yes"/>
      <point x="198" y="52" smooth="yes"/>
      <point x="158" y="74" smooth="yes"/>
      <point x="158" y="146" type="curve" smooth="yes"/>
      <point x="158" y="374" type="line" smooth="yes"/>
      <point x="158" y="426" smooth="yes"/>
      <point x="158" y="465" smooth="yes"/>
      <point x="256" y="465" type="curve" smooth="yes"/>
      <point x="304" y="465"/>
      <point x="331" y="460"/>
      <point x="355" y="454" type="curve"/>
      <point x="371" y="507" type="line"/>
      <point x="330" y="525" smooth="yes"/>
      <point x="280" y="531" smooth="yes"/>
    </contour>
  </outline>
</glyph>
<glyph name="d" format="1">
  <advance width="514"/>
  <unicode hex="0064"/>
  <outline>
    <contour>
      <point x="342" y="140" type="line"/>
      <point x="342" y="90" smooth="yes"/>
      <point x="326" y="53" smooth="yes"/>
      <point x="247" y="53" type="curve" smooth="yes"/>
      <point x="163" y="53" smooth="yes"/>
      <point x="159" y="86" smooth="yes"/>
      <point x="159" y="142" type="curve" smooth="yes"/>
      <point x="159" y="367" type="line" smooth="yes"/>
      <point x="159" y="439" smooth="yes"/>
      <point x="170" y="461" smooth="yes"/>
      <point x="249" y="461" type="curve" smooth="yes"/>
      <point x="281" y="461"/>
      <point x="312" y="456"/>
      <point x="342" y="450" type="curve"/>
    </contour>
    <contour>
      <point x="75" y="229" type="curve"/>
      <point x="75" y="64" smooth="yes"/>
      <point x="93" y="-12" smooth="yes"/>
      <point x="212" y="-12" type="curve" smooth="yes"/>
      <point x="258" y="-12"/>
      <point x="324" y="-10"/>
      <point x="366" y="49" type="curve"/>
      <point x="379" y="0" type="line" name="hr01"/>
      <point x="424" y="0" type="line"/>
      <point x="424" y="720" type="line"/>
      <point x="347" y="720" type="line"/>
      <point x="347" y="512" type="line"/>
      <point x="320" y="520" smooth="yes"/>
      <point x="284" y="525" smooth="yes"/>
      <point x="247" y="525" type="curve" smooth="yes"/>
      <point x="78" y="525" smooth="yes"/>
      <point x="75" y="429" smooth="yes"/>
    </contour>
  </outline>
</glyph>
<glyph name="e" format="1">
  <advance width="478"/>
  <unicode hex="0065"/>
  <outline>
    <contour>
      <point x="158" y="378" type="line" name="hr00"/>
      <point x="158" y="428" smooth="yes"/>
      <point x="174" y="465" smooth="yes"/>
      <point x="253" y="465" type="curve" smooth="yes"/>
      <point x="337" y="465" smooth="yes"/>
      <point x="341" y="432" smooth="yes"/>
      <point x="341" y="376" type="curve" smooth="yes"/>
      <point x="341" y="353" type="line" smooth="yes"/>
      <point x="341" y="275"/>
      <point x="253" y="275"/>
      <point x="158" y="275" type="curve"/>
    </contour>
    <contour>
      <point x="254" y="531" type="curve"/>
      <point x="77" y="531" smooth="yes"/>
      <point x="75" y="427" smooth="yes"/>
      <point x="75" y="260" type="curve" smooth="yes"/>
      <point x="75" y="93" smooth="yes"/>
      <point x="77" y="-12" smooth="yes"/>
      <point x="246" y="-12" type="curve" smooth="yes"/>
      <point x="313" y="-12"/>
      <point x="361" y="2"/>
      <point x="412" y="32" type="curve"/>
      <point x="396" y="82" type="line"/>
      <point x="349" y="62" smooth="yes"/>
      <point x="295" y="54" smooth="yes"/>
      <point x="247" y="54" type="curve" smooth="yes"/>
      <point x="194" y="54" smooth="yes"/>
      <point x="158" y="68" smooth="yes"/>
      <point x="158" y="143" type="curve" smooth="yes"/>
      <point x="158" y="218" type="line"/>
      <point x="326" y="220" smooth="yes"/>
      <point x="423" y="223" smooth="yes"/>
      <point x="423" y="375" type="curve" smooth="yes"/>
      <point x="423" y="464" smooth="yes"/>
      <point x="406" y="531" smooth="yes"/>
    </contour>
  </outline>
</glyph>
<glyph name="g" format="1">
  <advance width="519"/>
  <unicode hex="0067"/>
  <outline>
    <contour>
      <point x="342" y="161" type="line" name="hr00"/>
      <point x="342" y="111" smooth="yes"/>
      <point x="326" y="74" smooth="yes"/>
      <point x="247" y="74" type="curve" smooth="yes"/>
      <point x="163" y="74" smooth="yes"/>
      <point x="159" y="107" smooth="yes"/>
      <point x="159" y="163" type="curve" smooth="yes"/>
      <point x="159" y="372" type="line" smooth="yes"/>
      <point x="159" y="444" smooth="yes"/>
      <point x="170" y="466" smooth="yes"/>
      <point x="249" y="466" type="curve" smooth="yes"/>
      <point x="281" y="466"/>
      <point x="312" y="461"/>
      <point x="342" y="455" type="curve"/>
    </contour>
    <contour>
      <point x="347" y="-39" type="line"/>
      <point x="347" y="-114" smooth="yes"/>
      <point x="311" y="-128" smooth="yes"/>
      <point x="258" y="-128" type="curve" smooth="yes"/>
      <point x="210" y="-128"/>
      <point x="156" y="-118"/>
      <point x="119" y="-106" type="curve"/>
      <point x="103" y="-156" type="line"/>
      <point x="144" y="-176" smooth="yes"/>
      <point x="201" y="-194" smooth="yes"/>
      <point x="268" y="-194" type="curve" smooth="yes"/>
      <point x="411" y="-194" smooth="yes"/>
      <point x="429" y="-131" smooth="yes"/>
      <point x="429" y="-36" type="curve" smooth="yes"/>
      <point x="429" y="502" type="line"/>
      <point x="354" y="524" smooth="yes"/>
      <point x="284" y="531" smooth="yes"/>
      <point x="247" y="531" type="curve" smooth="yes"/>
      <point x="78" y="531" smooth="yes"/>
      <point x="75" y="429" smooth="yes"/>
      <point x="75" y="259" type="curve" smooth="yes"/>
      <point x="75" y="94" smooth="yes"/>
      <point x="93" y="10" smooth="yes"/>
      <point x="212" y="10" type="curve" smooth="yes"/>
      <point x="252" y="10"/>
      <point x="306" y="11"/>
      <point x="347" y="49" type="curve"/>
    </contour>
  </outline>
</glyph>
<glyph name="h" format="1">
  <advance width="517"/>
  <unicode hex="0068"/>
  <outline>
    <contour>
      <point x="437" y="0" type="line" name="hr00"/>
      <point x="437" y="360" type="line" smooth="yes"/>
      <point x="437" y="445" smooth="yes"/>
      <point x="421" y="525" smooth="yes"/>
      <point x="302" y="525" type="curve" smooth="yes"/>
      <point x="256" y="525"/>
      <point x="209" y="520"/>
      <point x="167" y="475" type="curve"/>
      <point x="167" y="720" type="line"/>
      <point x="90" y="720" type="line"/>
      <point x="90" y="0" type="line"/>
      <point x="172" y="0" type="line"/>
      <point x="172" y="373" type="line" smooth="yes"/>
      <point x="172" y="423" smooth="yes"/>
      <point x="188" y="460" smooth="yes"/>
      <point x="267" y="460" type="curve" smooth="yes"/>
      <point x="351" y="460" smooth="yes"/>
      <point x="355" y="427" smooth="yes"/>
      <point x="355" y="371" type="curve" smooth="yes"/>
      <point x="355" y="0" type="line"/>
    </contour>
  </outline>
</glyph>
<glyph name="i" format="1">
  <advance width="262"/>
  <unicode hex="0069"/>
  <outline>
    <contour>
      <point x="172" y="520" type="line" name="hr00"/>
      <point x="90" y="520" type="line"/>
      <point x="90" y="0" type="line"/>
      <point x="172" y="0" type="line"/>
    </contour>
    <contour>
      <point x="131" y="717" type="curve"/>
      <point x="99" y="717" smooth="yes"/>
      <point x="79" y="717" smooth="yes"/>
      <point x="79" y="667" type="curve" smooth="yes"/>
      <point x="79" y="616" smooth="yes"/>
      <point x="99" y="616" smooth="yes"/>
      <point x="131" y="616" type="curve" smooth="yes"/>
      <point x="163" y="616" smooth="yes"/>
      <point x="183" y="616" smooth="yes"/>
      <point x="183" y="667" type="curve" smooth="yes"/>
      <point x="183" y="717" smooth="yes"/>
      <point x="163" y="717" smooth="yes"/>
    </contour>
  </outline>
</glyph>
<glyph name="l" format="1">
  <advance width="262"/>
  <unicode hex="006C"/>
  <outline>
    <contour>
      <point x="90" y="0" type="line" name="hr00"/>
      <point x="172" y="0" type="line"/>
      <point x="172" y="720" type="line"/>
      <point x="90" y="720" type="line"/>
    </contour>
  </outline>
</glyph>
<glyph name="m" format="1">
  <advance width="752"/>
  <unicode hex="006D"/>
  <outline>
    <contour>
      <point x="672" y="0" type="line"/>
      <point x="672" y="366" type="line" smooth="yes"/>
      <point x="672" y="451" smooth="yes"/>
      <point x="656" y="531" smooth="yes"/>
      <point x="541" y="531" type="curve" smooth="yes"/>
      <point x="499" y="531"/>
      <point x="441" y="529"/>
      <point x="402" y="476" type="curve"/>
      <point x="384" y="509" smooth="yes"/>
      <point x="351" y="531" smooth="yes"/>
      <point x="291" y="531" type="curve" smooth="yes"/>
      <point x="248" y="531"/>
      <point x="187" y="530"/>
      <point x="148" y="471" type="curve"/>
      <point x="135" y="520" type="line" name="hr01"/>
      <point x="90" y="520" type="line"/>
      <point x="90" y="0" type="line"/>
      <point x="172" y="0" type="line"/>
      <point x="172" y="379" type="line" smooth="yes"/>
      <point x="172" y="429" smooth="yes"/>
      <point x="187" y="466" smooth="yes"/>
      <point x="259" y="466" type="curve" smooth="yes" name="hr02"/>
      <point x="336" y="466" smooth="yes"/>
      <point x="340" y="433" smooth="yes"/>
      <point x="340" y="377" type="curve" smooth="yes"/>
      <point x="340" y="0" type="line"/>
      <point x="422" y="0" type="line"/>
      <point x="422" y="379" type="line" smooth="yes"/>
      <point x="422" y="429" smooth="yes"/>
      <point x="437" y="466" smooth="yes"/>
      <point x="509" y="466" type="curve" smooth="yes"/>
      <point x="586" y="466" smooth="yes"/>
      <point x="590" y="433" smooth="yes"/>
      <point x="590" y="377" type="curve" smooth="yes"/>
      <point x="590" y="0" type="line"/>
    </contour>
  </outline>
</glyph>
<glyph name="n" format="1">
  <advance width="517"/>
  <unicode hex="006E"/>
  <outline>
    <contour>
      <point x="437" y="0" type="line"/>
      <point x="437" y="366" type="line" smooth="yes"/>
      <point x="437" y="451" smooth="yes"/>
      <point x="421" y="531" smooth="yes"/>
      <point x="302" y="531" type="curve" smooth="yes"/>
      <point x="256" y="531"/>
      <point x="190" y="530"/>
      <point x="148" y="471" type="curve"/>
      <point x="135" y="520" type="line" name="hr01"/>
      <point x="90" y="520" type="line"/>
      <point x="90" y="0" type="line"/>
      <point x="172" y="0" type="line"/>
      <point x="172" y="379" type="line" smooth="yes"/>
      <point x="172" y="429" smooth="yes"/>
      <point x="188" y="466" smooth="yes"/>
      <point x="267" y="466" type="curve" smooth="yes" name="hr02"/>
      <point x="351" y="466" smooth="yes"/>
      <point x="355" y="433" smooth="yes"/>
      <point x="355" y="377" type="curve" smooth="yes"/>
      <point x="355" y="0" type="line"/>
    </contour>
  </outline>
</glyph>
<glyph name="o" format="1">
  <advance width="513"/>
  <unicode hex="006F"/>
  <outline>
    <contour>
      <point x="256" y="-12" type="curve" name="hr00"/>
      <point x="438" y="-12" smooth="yes"/>
      <point x="438" y="93" smooth="yes"/>
      <point x="438" y="260" type="curve" smooth="yes"/>
      <point x="438" y="427" smooth="yes"/>
      <point x="438" y="531" smooth="yes"/>
      <point x="256" y="531" type="curve" smooth="yes"/>
      <point x="75" y="531" smooth="yes"/>
      <point x="75" y="427" smooth="yes"/>
      <point x="75" y="260" type="curve" smooth="yes"/>
      <point x="75" y="93" smooth="yes"/>
      <point x="75" y="-12" smooth="yes"/>
    </contour>
    <contour>
      <point x="353" y="145" type="line"/>
      <point x="353" y="93" smooth="yes"/>
      <point x="353" y="53" smooth="yes"/>
      <point x="256" y="53" type="curve" smooth="yes"/>
      <point x="158" y="53" smooth="yes"/>
      <point x="158" y="93" smooth="yes"/>
      <point x="158" y="145" type="curve" smooth="yes"/>
      <point x="158" y="374" type="line" smooth="yes"/>
      <point x="158" y="426" smooth="yes"/>
      <point x="158" y="466" smooth="yes"/>
      <point x="256" y="466" type="curve" smooth="yes"/>
      <point x="353" y="466" smooth="yes"/>
      <point x="353" y="426" smooth="yes"/>
      <point x="353" y="374" type="curve" smooth="yes"/>
    </contour>
  </outline>
</glyph>
<glyph name="p" format="1">
  <advance width="514"/>
  <unicode hex="0070"/>
  <outline>
    <contour>
      <point x="172" y="379" type="line"/>
      <point x="172" y="429" smooth="yes"/>
      <point x="188" y="466" smooth="yes"/>
      <point x="267" y="466" type="curve" smooth="yes"/>
      <point x="351" y="466" smooth="yes"/>
      <point x="355" y="433" smooth="yes"/>
      <point x="355" y="377" type="curve" smooth="yes"/>
      <point x="355" y="158" type="line" smooth="yes"/>
      <point x="355" y="86" smooth="yes"/>
      <point x="344" y="64" smooth="yes"/>
      <point x="265" y="64" type="curve" smooth="yes"/>
      <point x="233" y="64"/>
      <point x="202" y="69"/>
      <point x="172" y="75" type="curve"/>
    </contour>
    <contour>
      <point x="439" y="295" type="curve"/>
      <point x="439" y="460" smooth="yes"/>
      <point x="421" y="531" smooth="yes"/>
      <point x="302" y="531" type="curve" smooth="yes"/>
      <point x="256" y="531"/>
      <point x="190" y="530"/>
      <point x="148" y="471" type="curve"/>
      <point x="135" y="520" type="line" name="hr01"/>
      <point x="90" y="520" type="line"/>
      <point x="90" y="-182" type="line"/>
      <point x="167" y="-182" type="line"/>
      <point x="167" y="13" type="line"/>
      <point x="194" y="5" smooth="yes"/>
      <point x="230" y="0" smooth="yes"/>
      <point x="267" y="0" type="curve" smooth="yes"/>
      <point x="436" y="0" smooth="yes"/>
      <point x="439" y="95" smooth="yes"/>
    </contour>
  </outline>
</glyph>
<glyph name="q" format="1">
  <advance width="514"/>
  <unicode hex="0071"/>
  <outline>
    <contour>
      <point x="342" y="151" type="line" name="hr00"/>
      <point x="342" y="101" smooth="yes"/>
      <point x="326" y="64" smooth="yes"/>
      <point x="247" y="64" type="curve" smooth="yes"/>
      <point x="163" y="64" smooth="yes"/>
      <point x="159" y="97" smooth="yes"/>
      <point x="159" y="153" type="curve" smooth="yes"/>
      <point x="159" y="372" type="line" smooth="yes"/>
      <point x="159" y="444" smooth="yes"/>
      <point x="170" y="466" smooth="yes"/>
      <point x="249" y="466" type="curve" smooth="yes"/>
      <point x="281" y="466"/>
      <point x="312" y="461"/>
      <point x="342" y="455" type="curve"/>
    </contour>
    <contour>
      <point x="424" y="-182" type="line"/>
      <point x="424" y="502" type="line"/>
      <point x="349" y="524" smooth="yes"/>
      <point x="284" y="531" smooth="yes"/>
      <point x="247" y="531" type="curve" smooth="yes"/>
      <point x="78" y="531" smooth="yes"/>
      <point x="75" y="436" smooth="yes"/>
      <point x="75" y="236" type="curve" smooth="yes"/>
      <point x="75" y="71" smooth="yes"/>
      <point x="93" y="0" smooth="yes"/>
      <point x="212" y="0" type="curve" smooth="yes"/>
      <point x="252" y="0"/>
      <point x="306" y="1"/>
      <point x="347" y="39" type="curve"/>
      <point x="347" y="-182" type="line"/>
    </contour>
  </outline>
</glyph>
<glyph name="r" format="1">
  <advance width="323"/>
  <unicode hex="0072"/>
  <outline>
    <contour>
      <point x="172" y="0" type="line"/>
      <point x="172" y="405" type="line"/>
      <point x="196" y="429"/>
      <point x="238" y="459"/>
      <point x="317" y="459" type="curve"/>
      <point x="325" y="531" type="line"/>
      <point x="233" y="530"/>
      <point x="184" y="491"/>
      <point x="151" y="459" type="curve"/>
      <point x="135" y="520" type="line" name="hr01"/>
      <point x="90" y="520" type="line"/>
      <point x="90" y="0" type="line"/>
    </contour>
  </outline>
</glyph>
<glyph name="s" format="1">
  <advance width="446"/>
  <unicode hex="0073"/>
  <outline>
    <contour>
      <point x="200" y="301" type="line" name="hr00"/>
      <point x="147" y="309" smooth="yes"/>
      <point x="145" y="334" smooth="yes"/>
      <point x="145" y="383" type="curve" smooth="yes"/>
      <point x="145" y="453" smooth="yes"/>
      <point x="180" y="461" smooth="yes"/>
      <point x="229" y="461" type="curve" smooth="yes"/>
      <point x="273" y="461"/>
      <point x="322" y="450"/>
      <point x="356" y="442" type="curve"/>
      <point x="371" y="498" type="line"/>
      <point x="333" y="518" smooth="yes"/>
      <point x="279" y="531" smooth="yes"/>
      <point x="216" y="531" type="curve" smooth="yes"/>
      <point x="125" y="531" smooth="yes"/>
      <point x="65" y="475" smooth="yes"/>
      <point x="65" y="368" type="curve" smooth="yes"/>
      <point x="65" y="300" smooth="yes"/>
      <point x="81" y="240" smooth="yes"/>
      <point x="166" y="228" type="curve" smooth="yes"/>
      <point x="247" y="217" type="line" smooth="yes"/>
      <point x="300" y="209" smooth="yes"/>
      <point x="306" y="175" smooth="yes"/>
      <point x="306" y="141" type="curve" smooth="yes"/>
      <point x="306" y="76" smooth="yes"/>
      <point x="280" y="54" smooth="yes"/>
      <point x="215" y="54" type="curve" smooth="yes"/>
      <point x="167" y="54"/>
      <point x="113" y="64"/>
      <point x="76" y="71" type="curve"/>
      <point x="60" y="21" type="line"/>
      <point x="101" y="1" smooth="yes"/>
      <point x="158" y="-12" smooth="yes"/>
      <point x="225" y="-12" type="curve" smooth="yes"/>
      <point x="343" y="-12" smooth="yes"/>
      <point x="386" y="56" smooth="yes"/>
      <point x="386" y="141" type="curve" smooth="yes"/>
      <point x="386" y="247" smooth="yes"/>
      <point x="349" y="281" smooth="yes"/>
      <point x="281" y="290" type="curve" smooth="yes"/>
    </contour>
  </outline>
</glyph>
<glyph name="t" format="1">
  <advance width="338"/>
  <unicode hex="0074"/>
  <outline>
    <contour>
      <point x="166" y="610" type="line" name="hr00"/>
      <point x="121" y="520" type="line"/>
      <point x="50" y="505" type="line"/>
      <point x="50" y="461" type="line"/>
      <point x="121" y="461" type="line"/>
      <point x="121" y="125" type="line" smooth="yes"/>
      <point x="121" y="43" smooth="yes"/>
      <point x="124" y="-12" smooth="yes"/>
      <point x="227" y="-12" type="curve" smooth="yes"/>
      <point x="255" y="-12"/>
      <point x="277" y="-7"/>
      <point x="298" y="0" type="curve"/>
      <point x="291" y="50" type="line"/>
      <point x="276" y="47" smooth="yes"/>
      <point x="264" y="46" smooth="yes"/>
      <point x="254" y="46" type="curve" smooth="yes"/>
      <point x="206" y="46" smooth="yes"/>
      <point x="203" y="75" smooth="yes"/>
      <point x="203" y="125" type="curve" smooth="yes"/>
      <point x="203" y="461" type="line"/>
      <point x="295" y="461" type="line"/>
      <point x="295" y="520" type="line"/>
      <point x="203" y="520" type="line"/>
      <point x="203" y="610" type="line"/>
    </contour>
  </outline>
</glyph>
<glyph name="u" format="1">
  <advance width="517"/>
  <unicode hex="0075"/>
  <outline>
    <contour>
      <point x="80" y="520" type="line"/>
      <point x="80" y="153" type="line" smooth="yes"/>
      <point x="80" y="68" smooth="yes"/>
      <point x="96" y="-12" smooth="yes"/>
      <point x="215" y="-12" type="curve" smooth="yes"/>
      <point x="261" y="-12"/>
      <point x="327" y="-10"/>
      <point x="369" y="49" type="curve"/>
      <point x="382" y="0" type="line" name="hr01"/>
      <point x="427" y="0" type="line"/>
      <point x="427" y="520" type="line"/>
      <point x="345" y="520" type="line"/>
      <point x="345" y="140" type="line" smooth="yes"/>
      <point x="345" y="90" smooth="yes"/>
      <point x="329" y="53" smooth="yes"/>
      <point x="250" y="53" type="curve" smooth="yes" name="hr02"/>
      <point x="166" y="53" smooth="yes"/>
      <point x="162" y="86" smooth="yes"/>
      <point x="162" y="142" type="curve" smooth="yes"/>
      <point x="162" y="520" type="line"/>
    </contour>
  </outline>
</glyph>
<glyph name="v" format="1">
  <advance width="454"/>
  <unicode hex="0076"/>
  <outline>
    <contour>
      <point x="161" y="0" type="line" name="hr00"/>
      <point x="293" y="0" type="line"/>
      <point x="414" y="520" type="line"/>
      <point x="333" y="520" type="line"/>
      <point x="230" y="54" type="line"/>
      <point x="224" y="54" type="line"/>
      <point x="121" y="520" type="line"/>
      <point x="40" y="520" type="line"/>
    </contour>
  </outline>
</glyph>
<glyph name="w" format="1">
  <advance width="697"/>
  <unicode hex="0077"/>
  <outline>
    <contour>
      <point x="434" y="0" type="line" name="hr00"/>
      <point x="558" y="0" type="line"/>
      <point x="657" y="520" type="line"/>
      <point x="576" y="520" type="line"/>
      <point x="493" y="54" type="line"/>
      <point x="487" y="54" type="line"/>
      <point x="400" y="520" type="line"/>
      <point x="297" y="520" type="line"/>
      <point x="210" y="54" type="line"/>
      <point x="204" y="54" type="line"/>
      <point x="121" y="520" type="line"/>
      <point x="40" y="520" type="line"/>
      <point x="139" y="0" type="line"/>
      <point x="263" y="0" type="line"/>
      <point x="345" y="444" type="line"/>
      <point x="351" y="444" type="line"/>
    </contour>
  </outline>
</glyph>
<glyph name="x" format="1">
  <advance width="457"/>
  <unicode hex="0078"/>
  <outline>
    <contour>
      <point x="322" y="520" type="line" name="hr00"/>
      <point x="228" y="343" type="line"/>
      <point x="135" y="520" type="line"/>
      <point x="48" y="520" type="line"/>
      <point x="182" y="266" type="line"/>
      <point x="40" y="0" type="line"/>
      <point x="127" y="0" type="line"/>
      <point x="228" y="190" type="line"/>
      <point x="330" y="0" type="line"/>
      <point x="417" y="0" type="line"/>
      <point x="275" y="266" type="line"/>
      <point x="409" y="520" type="line"/>
    </contour>
  </outline>
</glyph>
<glyph name="y" format="1">
  <advance width="454"/>
  <unicode hex="0079"/>
  <outline>
    <contour>
      <point x="39" y="-180" type="line" name="hr00"/>
      <point x="59" y="-189" smooth="yes"/>
      <point x="83" y="-194" smooth="yes"/>
      <point x="108" y="-194" type="curve" smooth="yes"/>
      <point x="227" y="-194" smooth="yes"/>
      <point x="262" y="-131" smooth="yes"/>
      <point x="282" y="-45" type="curve" smooth="yes"/>
      <point x="414" y="520" type="line"/>
      <point x="333" y="520" type="line"/>
      <point x="230" y="54" type="line"/>
      <point x="224" y="54" type="line"/>
      <point x="121" y="520" type="line"/>
      <point x="40" y="520" type="line"/>
      <point x="161" y="0" type="line"/>
      <point x="217" y="0" type="line"/>
      <point x="206" y="-48" type="line" smooth="yes"/>
      <point x="190" y="-113" smooth="yes"/>
      <point x="155" y="-128" smooth="yes"/>
      <point x="112" y="-128" type="curve" smooth="yes"/>
      <point x="94" y="-128"/>
      <point x="75" y="-126"/>
      <point x="57" y="-122" type="curve"/>
    </contour>
  </outline>
</glyph>
<glyph name="z" format="1">
  <advance width="453"/>
  <unicode hex="007A"/>
  <outline>
    <contour>
      <point x="70" y="520" type="line" name="hr00"/>
      <point x="70" y="455" type="line"/>
      <point x="296" y="455" type="line"/>
      <point x="60" y="54" type="line"/>
      <point x="60" y="0" type="line"/>
      <point x="393" y="0" type="line"/>
      <point x="393" y="65" type="line"/>
      <point x="154" y="65" type="line"/>
      <point x="388" y="466" type="line"/>
      <point x="388" y="520" type="line"/>
    </contour>
  </outline>
</glyph>
<glyph name="braceleft" format="1">
  <advance width="340"/>
  <unicode hex="007B"/>
  <outline>
    <contour>
      <point x="80" y="170" type="curve" name="hr00"/>
      <point x="80" y="-34"/>
      <point x="115" y="-112"/>
      <point x="290" y="-112" type="curve"/>
      <point x="295" y="-47" type="line"/>
      <point x="180" y="-47" smooth="yes"/>
      <point x="166" y="34" smooth="yes"/>
      <point x="166" y="139" type="curve" smooth="yes"/>
      <point x="166" y="287"/>
      <point x="154" y="325"/>
      <point x="99" y="344" type="curve"/>
      <point x="99" y="352" type="line"/>
      <point x="154" y="370" smooth="yes"/>
      <point x="166" y="411" smooth="yes"/>
      <point x="166" y="559" type="curve" smooth="yes"/>
      <point x="166" y="664"/>
      <point x="180" y="745"/>
      <point x="295" y="745" type="curve"/>
      <point x="290" y="810" type="line"/>
      <point x="115" y="810" smooth="yes"/>
      <point x="80" y="733" smooth="yes"/>
      <point x="80" y="530" type="curve" smooth="yes"/>
      <point x="80" y="514" smooth="yes"/>
      <point x="82" y="492" smooth="yes"/>
      <point x="82" y="469" type="curve" smooth="yes"/>
      <point x="82" y="423"/>
      <point x="74" y="374"/>
      <point x="23" y="369" type="curve"/>
      <point x="23" y="319" type="line"/>
      <point x="74" y="314" smooth="yes"/>
      <point x="82" y="270" smooth="yes"/>
      <point x="82" y="228" type="curve" smooth="yes"/>
      <point x="82" y="206" smooth="yes"/>
      <point x="80" y="186" smooth="yes"/>
    </contour>
  </outline>
</glyph>
<glyph name="bar" format="1">
  <advance width="326"/>
  <unicode hex="007C"/>
  <outline>
    <contour>
      <point x="206" y="800" type="line" name="hr00"/>
      <point x="120" y="800" type="line"/>
      <point x="120" y="-100" type="line"/>
      <point x="206" y="-100" type="line"/>
    </contour>
  </outline>
</glyph>
<glyph name="braceright" format="1">
  <advance width="340"/>
  <unicode hex="007D"/>
  <outline>
    <contour>
      <point x="260" y="170" type="curve" name="hr00"/>
      <point x="260" y="186" smooth="yes"/>
      <point x="258" y="206" smooth="yes"/>
      <point x="258" y="228" type="curve" smooth="yes"/>
      <point x="258" y="270"/>
      <point x="266" y="314"/>
      <point x="317" y="319" type="curve"/>
      <point x="317" y="369" type="line"/>
      <point x="266" y="374" smooth="yes"/>
      <point x="258" y="423" smooth="yes"/>
      <point x="258" y="469" type="curve" smooth="yes"/>
      <point x="258" y="492" smooth="yes"/>
      <point x="260" y="514" smooth="yes"/>
      <point x="260" y="530" type="curve" smooth="yes"/>
      <point x="260" y="733"/>
      <point x="225" y="810"/>
      <point x="50" y="810" type="curve"/>
      <point x="45" y="745" type="line"/>
      <point x="160" y="745" smooth="yes"/>
      <point x="174" y="664" smooth="yes"/>
      <point x="174" y="559" type="curve" smooth="yes"/>
      <point x="174" y="411"/>
      <point x="186" y="370"/>
      <point x="241" y="352" type="curve"/>
      <point x="241" y="344" type="line"/>
      <point x="186" y="325" smooth="yes"/>
      <point x="174" y="287" smooth="yes"/>
      <point x="174" y="139" type="curve" smooth="yes"/>
      <point x="174" y="34"/>
      <point x="160" y="-47"/>
      <point x="45" y="-47" type="curve"/>
      <point x="50" y="-112" type="line"/>
      <point x="225" y="-112" smooth="yes"/>
      <point x="260" y="-34" smooth="yes"/>
    </contour>
  </outline>
</glyph>
<glyph name="asciitilde" format="1">
  <advance width="500"/>
  <unicode hex="007E"/>
  <outline>
    <contour>
      <point x="60" y="282" type="line"/>
      <point x="84" y="259" smooth="yes"/>
      <point x="116" y="250" smooth="yes"/>
      <point x="149" y="250" type="curve" smooth="yes"/>
      <point x="225" y="250" smooth="yes"/>
      <point x="275" y="312" smooth="yes"/>
      <point x="349" y="312" type="curve" smooth="yes" name="hr01"/>
      <point x="382" y="312"/>
      <point x="414" y="302"/>
      <point x="440" y="282" type="curve"/>
      <point x="440" y="352" type="line"/>
      <point x="412" y="372" smooth="yes"/>
      <point x="379" y="383" smooth="yes"/>
      <point x="345" y="383" type="curve" smooth="yes"/>
      <point x="270" y="383" smooth="yes"/>
      <point x="219" y="321" smooth="yes"/>
      <point x="145" y="321" type="curve" smooth="yes" name="hr02"/>
      <point x="114" y="321"/>
      <point x="84" y="331"/>
      <point x="60" y="352" type="curve"/>
    </contour>
  </outline>
</glyph>
<glyph name="exclamdown" format="1">
  <advance width="266"/>
  <unicode hex="00A1"/>
  <outline>
    <contour>
      <point x="133" y="419" type="curve" name="hr00"/>
      <point x="168" y="419" smooth="yes"/>
      <point x="190" y="419" smooth="yes"/>
      <point x="190" y="474" type="curve" smooth="yes"/>
      <point x="190" y="530" smooth="yes"/>
      <point x="168" y="530" smooth="yes"/>
      <point x="133" y="530" type="curve" smooth="yes"/>
      <point x="98" y="530" smooth="yes"/>
      <point x="76" y="530" smooth="yes"/>
      <point x="76" y="474" type="curve" smooth="yes"/>
      <point x="76" y="419" smooth="yes"/>
      <point x="98" y="419" smooth="yes"/>
    </contour>
    <contour>
      <point x="166" y="339" type="line"/>
      <point x="100" y="339" type="line"/>
      <point x="88" y="-178" type="line"/>
      <point x="178" y="-178" type="line"/>
    </contour>
  </outline>
</glyph>
<glyph name="cent" format="1">
  <advance width="500"/>
  <unicode hex="00A2"/>
  <outline>
    <contour>
      <point x="249" y="-100" type="line" name="hr00"/>
      <point x="312" y="-100" type="line"/>
      <point x="312" y="55" type="line"/>
      <point x="361" y="57"/>
      <point x="399" y="67"/>
      <point x="432" y="81" type="curve"/>
      <point x="420" y="135" type="line"/>
      <point x="376" y="126" smooth="yes"/>
      <point x="334" y="119" smooth="yes"/>
      <point x="297" y="119" type="curve" smooth="yes"/>
      <point x="233" y="119" smooth="yes"/>
      <point x="187" y="141" smooth="yes"/>
      <point x="187" y="213" type="curve" smooth="yes"/>
      <point x="187" y="441" type="line" smooth="yes"/>
      <point x="187" y="493" smooth="yes"/>
      <point x="187" y="532" smooth="yes"/>
      <point x="300" y="532" type="curve" smooth="yes"/>
      <point x="355" y="532"/>
      <point x="386" y="527"/>
      <point x="414" y="521" type="curve"/>
      <point x="430" y="574" type="line"/>
      <point x="390" y="590"/>
      <point x="342" y="597"/>
      <point x="312" y="598" type="curve"/>
      <point x="312" y="750" type="line"/>
      <point x="249" y="750" type="line"/>
      <point x="249" y="595" type="line"/>
      <point x="106" y="576" smooth="yes"/>
      <point x="104" y="477" smooth="yes"/>
      <point x="104" y="327" type="curve" smooth="yes"/>
      <point x="104" y="174"/>
      <point x="106" y="73"/>
      <point x="249" y="57" type="curve"/>
    </contour>
  </outline>
</glyph>
<glyph name="sterling" format="1">
  <advance width="500"/>
  <unicode hex="00A3"/>
  <outline>
    <contour>
      <point x="46" y="348" type="line"/>
      <point x="46" y="288" type="line"/>
      <point x="132" y="288" type="line"/>
      <point x="132" y="197"/>
      <point x="114" y="124"/>
      <point x="80" y="56" type="curve"/>
      <point x="80" y="0" type="line"/>
      <point x="456" y="0" type="line"/>
      <point x="456" y="70" type="line"/>
      <point x="167" y="70" type="line"/>
      <point x="202" y="146"/>
      <point x="210" y="220"/>
      <point x="210" y="288" type="curve"/>
      <point x="382" y="288" type="line"/>
      <point x="382" y="348" type="line"/>
      <point x="207" y="348" type="line"/>
      <point x="201" y="409" smooth="yes"/>
      <point x="190" y="459" smooth="yes"/>
      <point x="190" y="487" type="curve" smooth="yes" name="hr01"/>
      <point x="190" y="574" smooth="yes"/>
      <point x="233" y="587" smooth="yes"/>
      <point x="290" y="587" type="curve" smooth="yes"/>
      <point x="352" y="587"/>
      <point x="414" y="573"/>
      <point x="439" y="566" type="curve"/>
      <point x="457" y="626" type="line"/>
      <point x="415" y="642" smooth="yes"/>
      <point x="358" y="658" smooth="yes"/>
      <point x="292" y="658" type="curve" smooth="yes"/>
      <point x="168" y="658" smooth="yes"/>
      <point x="110" y="591" smooth="yes"/>
      <point x="110" y="490" type="curve" smooth="yes"/>
      <point x="110" y="455"/>
      <point x="122" y="407"/>
      <point x="128" y="348" type="curve"/>
    </contour>
  </outline>
</glyph>
<glyph name="currency" format="1">
  <advance width="500"/>
  <unicode hex="00A4"/>
  <outline>
    <contour>
      <point x="472" y="490" type="line" name="hr00"/>
      <point x="423" y="539" type="line"/>
      <point x="337" y="453" type="line"/>
      <point x="316" y="460" smooth="yes"/>
      <point x="288" y="464" smooth="yes"/>
      <point x="250" y="464" type="curve" smooth="yes"/>
      <point x="212" y="464"/>
      <point x="184" y="460"/>
      <point x="163" y="452" type="curve"/>
      <point x="77" y="539" type="line"/>
      <point x="28" y="490" type="line"/>
      <point x="113" y="404" type="line"/>
      <point x="106" y="381" smooth="yes"/>
      <point x="106" y="351" smooth="yes"/>
      <point x="106" y="317" type="curve" smooth="yes"/>
      <point x="106" y="282"/>
      <point x="106" y="253"/>
      <point x="113" y="229" type="curve"/>
      <point x="28" y="144" type="line"/>
      <point x="77" y="95" type="line"/>
      <point x="163" y="181" type="line"/>
      <point x="184" y="174" smooth="yes"/>
      <point x="212" y="170" smooth="yes"/>
      <point x="250" y="170" type="curve" smooth="yes"/>
      <point x="288" y="170"/>
      <point x="316" y="173"/>
      <point x="337" y="181" type="curve"/>
      <point x="423" y="95" type="line"/>
      <point x="472" y="144" type="line"/>
      <point x="387" y="228" type="line"/>
      <point x="396" y="252" smooth="yes"/>
      <point x="396" y="282" smooth="yes"/>
      <point x="396" y="317" type="curve" smooth="yes"/>
      <point x="396" y="352"/>
      <point x="396" y="382"/>
      <point x="387" y="405" type="curve"/>
    </contour>
    <contour>
      <point x="325" y="278" type="line"/>
      <point x="325" y="252" smooth="yes"/>
      <point x="325" y="230" smooth="yes"/>
      <point x="252" y="230" type="curve" smooth="yes"/>
      <point x="177" y="230" smooth="yes"/>
      <point x="177" y="252" smooth="yes"/>
      <point x="177" y="278" type="curve" smooth="yes"/>
      <point x="177" y="355" type="line" smooth="yes"/>
      <point x="177" y="381" smooth="yes"/>
      <point x="177" y="403" smooth="yes"/>
      <point x="248" y="403" type="curve" smooth="yes"/>
      <point x="325" y="403" smooth="yes"/>
      <point x="325" y="381" smooth="yes"/>
      <point x="325" y="355" type="curve" smooth="yes"/>
    </contour>
  </outline>
</glyph>
<glyph name="yen" format="1">
  <advance width="500"/>
  <unicode hex="00A5"/>
  <outline>
    <contour>
      <point x="290" y="198" type="line" name="hr00"/>
      <point x="290" y="244" type="line"/>
      <point x="309" y="288" type="line"/>
      <point x="440" y="288" type="line"/>
      <point x="440" y="348" type="line"/>
      <point x="335" y="348" type="line"/>
      <point x="464" y="646" type="line"/>
      <point x="376" y="646" type="line"/>
      <point x="253" y="348" type="line"/>
      <point x="247" y="348" type="line"/>
      <point x="124" y="646" type="line"/>
      <point x="36" y="646" type="line"/>
      <point x="165" y="348" type="line"/>
      <point x="62" y="348" type="line"/>
      <point x="62" y="288" type="line"/>
      <point x="191" y="288" type="line"/>
      <point x="210" y="244" type="line"/>
      <point x="210" y="198" type="line"/>
      <point x="62" y="198" type="line"/>
      <point x="62" y="138" type="line"/>
      <point x="210" y="138" type="line"/>
      <point x="210" y="0" type="line"/>
      <point x="290" y="0" type="line"/>
      <point x="290" y="138" type="line"/>
      <point x="440" y="138" type="line"/>
      <point x="440" y="198" type="line"/>
    </contour>
  </outline>
</glyph>
<glyph name="brokenbar" format="1">
  <advance width="326"/>
  <unicode hex="00A6"/>
  <outline>
    <contour>
      <point x="206" y="800" type="line" name="hr00"/>
      <point x="120" y="800" type="line"/>
      <point x="120" y="453" type="line"/>
      <point x="206" y="453" type="line"/>
    </contour>
    <contour>
      <point x="206" y="247" type="line"/>
      <point x="120" y="247" type="line"/>
      <point x="120" y="-100" type="line"/>
      <point x="206" y="-100" type="line"/>
    </contour>
  </outline>
</glyph>
<glyph name="section" format="1">
  <advance width="490"/>
  <unicode hex="00A7"/>
  <outline>
    <contour>
      <point x="57" y="297" type="curve" name="hr00"/>
      <point x="57" y="190" smooth="yes"/>
      <point x="75" y="129" smooth="yes"/>
      <point x="174" y="116" type="curve" smooth="yes"/>
      <point x="273" y="103" type="line" smooth="yes"/>
      <point x="344" y="94" smooth="yes"/>
      <point x="351" y="42" smooth="yes"/>
      <point x="351" y="-5" type="curve" smooth="yes"/>
      <point x="351" y="-95" smooth="yes"/>
      <point x="312" y="-123" smooth="yes"/>
      <point x="237" y="-123" type="curve" smooth="yes"/>
      <point x="176" y="-123"/>
      <point x="110" y="-109"/>
      <point x="73" y="-97" type="curve"/>
      <point x="55" y="-157" type="line"/>
      <point x="110" y="-181" smooth="yes"/>
      <point x="182" y="-194" smooth="yes"/>
      <point x="248" y="-194" type="curve" smooth="yes"/>
      <point x="385" y="-194" smooth="yes"/>
      <point x="435" y="-107" smooth="yes"/>
      <point x="435" y="-6" type="curve" smooth="yes"/>
      <point x="435" y="50"/>
      <point x="425" y="88"/>
      <point x="408" y="115" type="curve"/>
      <point x="426" y="147" smooth="yes"/>
      <point x="435" y="185" smooth="yes"/>
      <point x="435" y="226" type="curve" smooth="yes"/>
      <point x="435" y="352" smooth="yes"/>
      <point x="387" y="391" smooth="yes"/>
      <point x="308" y="402" type="curve" smooth="yes"/>
      <point x="214" y="415" type="line" smooth="yes"/>
      <point x="152" y="423" smooth="yes"/>
      <point x="141" y="461" smooth="yes"/>
      <point x="141" y="529" type="curve" smooth="yes"/>
      <point x="141" y="627" smooth="yes"/>
      <point x="191" y="641" smooth="yes"/>
      <point x="247" y="641" type="curve" smooth="yes"/>
      <point x="308" y="641"/>
      <point x="368" y="628"/>
      <point x="393" y="622" type="curve"/>
      <point x="411" y="680" type="line"/>
      <point x="368" y="696" smooth="yes"/>
      <point x="312" y="712" smooth="yes"/>
      <point x="246" y="712" type="curve" smooth="yes"/>
      <point x="122" y="712" smooth="yes"/>
      <point x="57" y="638" smooth="yes"/>
      <point x="57" y="529" type="curve" smooth="yes"/>
      <point x="57" y="472"/>
      <point x="62" y="428"/>
      <point x="81" y="398" type="curve"/>
      <point x="65" y="370" smooth="yes"/>
      <point x="57" y="335" smooth="yes"/>
    </contour>
    <contour>
      <point x="214" y="183" type="line"/>
      <point x="152" y="191" smooth="yes"/>
      <point x="141" y="229" smooth="yes"/>
      <point x="141" y="297" type="curve" smooth="yes"/>
      <point x="141" y="355" type="line"/>
      <point x="151" y="352" smooth="yes"/>
      <point x="162" y="349" smooth="yes"/>
      <point x="174" y="348" type="curve" smooth="yes"/>
      <point x="273" y="335" type="line" smooth="yes"/>
      <point x="344" y="326" smooth="yes"/>
      <point x="351" y="274" smooth="yes"/>
      <point x="351" y="227" type="curve" smooth="yes"/>
      <point x="351" y="159" type="line"/>
      <point x="338" y="164"/>
      <point x="323" y="168"/>
      <point x="308" y="170" type="curve"/>
    </contour>
  </outline>
</glyph>
<glyph name="dieresis" format="1">
  <advance width="430"/>
  <unicode hex="00A8"/>
  <outline>
    <contour>
      <point x="125" y="717" type="curve" name="hr00"/>
      <point x="93" y="717" smooth="yes"/>
      <point x="73" y="717" smooth="yes"/>
      <point x="73" y="667" type="curve" smooth="yes"/>
      <point x="73" y="616" smooth="yes"/>
      <point x="93" y="616" smooth="yes"/>
      <point x="125" y="616" type="curve" smooth="yes"/>
      <point x="157" y="616" smooth="yes"/>
      <point x="177" y="616" smooth="yes"/>
      <point x="177" y="667" type="curve" smooth="yes"/>
      <point x="177" y="717" smooth="yes"/>
      <point x="157" y="717" smooth="yes"/>
    </contour>
    <contour>
      <point x="305" y="717" type="curve"/>
      <point x="273" y="717" smooth="yes"/>
      <point x="253" y="717" smooth="yes"/>
      <point x="253" y="667" type="curve" smooth="yes"/>
      <point x="253" y="616" smooth="yes"/>
      <point x="273" y="616" smooth="yes"/>
      <point x="305" y="616" type="curve" smooth="yes"/>
      <point x="337" y="616" smooth="yes"/>
      <point x="357" y="616" smooth="yes"/>
      <point x="357" y="667" type="curve" smooth="yes"/>
      <point x="357" y="717" smooth="yes"/>
      <point x="337" y="717" smooth="yes"/>
    </contour>
  </outline>
</glyph>
<glyph name="copyright" format="1">
  <advance width="543"/>
  <unicode hex="00A9"/>
  <outline>
    <contour>
      <point x="493" y="459" type="curve" name="hr00"/>
      <point x="493" y="615" smooth="yes"/>
      <point x="493" y="710" smooth="yes"/>
      <point x="270" y="710" type="curve" smooth="yes"/>
      <point x="50" y="710" smooth="yes"/>
      <point x="50" y="615" smooth="yes"/>
      <point x="50" y="459" type="curve" smooth="yes"/>
      <point x="50" y="304" smooth="yes"/>
      <point x="50" y="209" smooth="yes"/>
      <point x="270" y="209" type="curve" smooth="yes"/>
      <point x="493" y="209" smooth="yes"/>
      <point x="493" y="304" smooth="yes"/>
    </contour>
    <contour>
      <point x="269" y="248" type="curve"/>
      <point x="101" y="248" smooth="yes"/>
      <point x="101" y="303" smooth="yes"/>
      <point x="101" y="365" type="curve" smooth="yes"/>
      <point x="101" y="554" type="line" smooth="yes"/>
      <point x="101" y="616" smooth="yes"/>
      <point x="101" y="671" smooth="yes"/>
      <point x="269" y="671" type="curve" smooth="yes"/>
      <point x="437" y="671" smooth="yes"/>
      <point x="437" y="616" smooth="yes"/>
      <point x="437" y="554" type="curve" smooth="yes"/>
      <point x="437" y="365" type="line" smooth="yes"/>
      <point x="437" y="303" smooth="yes"/>
      <point x="437" y="248" smooth="yes"/>
    </contour>
    <contour>
      <point x="289" y="636" type="curve"/>
      <point x="171" y="636" smooth="yes"/>
      <point x="170" y="582" smooth="yes"/>
      <point x="170" y="459" type="curve" smooth="yes"/>
      <point x="170" y="335" smooth="yes"/>
      <point x="171" y="282" smooth="yes"/>
      <point x="289" y="282" type="curve" smooth="yes"/>
      <point x="318" y="282"/>
      <point x="347" y="293"/>
      <point x="366" y="301" type="curve"/>
      <point x="353" y="343" type="line"/>
      <point x="330" y="338" smooth="yes"/>
      <point x="311" y="334" smooth="yes"/>
      <point x="289" y="334" type="curve" smooth="yes"/>
      <point x="231" y="334" smooth="yes"/>
      <point x="231" y="357" smooth="yes"/>
      <point x="231" y="389" type="curve" smooth="yes"/>
      <point x="231" y="529" type="line" smooth="yes"/>
      <point x="231" y="562" smooth="yes"/>
      <point x="231" y="583" smooth="yes"/>
      <point x="289" y="583" type="curve" smooth="yes"/>
      <point x="314" y="583"/>
      <point x="334" y="579"/>
      <point x="349" y="577" type="curve"/>
      <point x="359" y="624" type="line"/>
      <point x="332" y="632" smooth="yes"/>
      <point x="302" y="636" smooth="yes"/>
    </contour>
  </outline>
</glyph>
<glyph name="ordfeminine" format="1">
  <advance width="403"/>
  <unicode hex="00AA"/>
  <outline>
    <contour>
      <point x="282" y="363" type="line" name="hr00"/>
      <point x="313" y="363" type="line"/>
      <point x="313" y="607" type="line" smooth="yes"/>
      <point x="313" y="671" smooth="yes"/>
      <point x="300" y="712" smooth="yes"/>
      <point x="204" y="712" type="curve" smooth="yes"/>
      <point x="162" y="712"/>
      <point x="122" y="699"/>
      <point x="92" y="684" type="curve"/>
      <point x="105" y="646" type="line"/>
      <point x="132" y="654" smooth="yes"/>
      <point x="169" y="662" smooth="yes"/>
      <point x="198" y="662" type="curve" smooth="yes"/>
      <point x="227" y="662" smooth="yes"/>
      <point x="253" y="653" smooth="yes"/>
      <point x="253" y="612" type="curve" smooth="yes"/>
      <point x="253" y="567" type="line"/>
      <point x="145" y="566" smooth="yes"/>
      <point x="79" y="563" smooth="yes"/>
      <point x="79" y="466" type="curve" smooth="yes"/>
      <point x="79" y="409" smooth="yes"/>
      <point x="91" y="355" smooth="yes"/>
      <point x="172" y="355" type="curve" smooth="yes"/>
      <point x="200" y="355"/>
      <point x="239" y="362"/>
      <point x="266" y="397" type="curve"/>
    </contour>
    <contour>
      <point x="253" y="458" type="line"/>
      <point x="253" y="430" smooth="yes"/>
      <point x="238" y="405" smooth="yes"/>
      <point x="194" y="405" type="curve" smooth="yes"/>
      <point x="147" y="405" smooth="yes"/>
      <point x="140" y="428" smooth="yes"/>
      <point x="140" y="459" type="curve" smooth="yes"/>
      <point x="140" y="479" type="line" smooth="yes"/>
      <point x="140" y="520"/>
      <point x="199" y="522"/>
      <point x="253" y="522" type="curve"/>
    </contour>
  </outline>
</glyph>
<glyph name="guillemotleft" format="1">
  <advance width="440"/>
  <unicode hex="00AB"/>
  <outline>
    <contour>
      <point x="115" y="308" type="line" name="hr00"/>
      <point x="190" y="520" type="line"/>
      <point x="119" y="532" type="line"/>
      <point x="30" y="308" type="line"/>
      <point x="119" y="84" type="line"/>
      <point x="190" y="96" type="line"/>
    </contour>
    <contour>
      <point x="315" y="308" type="line"/>
      <point x="390" y="520" type="line"/>
      <point x="319" y="532" type="line"/>
      <point x="230" y="308" type="line"/>
      <point x="319" y="84" type="line"/>
      <point x="390" y="96" type="line"/>
    </contour>
  </outline>
</glyph>
<glyph name="logicalnot" format="1">
  <advance width="500"/>
  <unicode hex="00AC"/>
  <outline>
    <contour>
      <point x="60" y="352" type="line" name="hr00"/>
      <point x="60" y="282" type="line"/>
      <point x="374" y="282" type="line"/>
      <point x="374" y="149" type="line"/>
      <point x="440" y="149" type="line"/>
      <point x="440" y="352" type="line"/>
    </contour>
  </outline>
</glyph>
<glyph name="registered" format="1">
  <advance width="543"/>
  <unicode hex="00AE"/>
  <outline>
    <contour>
      <point x="493" y="459" type="curve" name="hr00"/>
      <point x="493" y="615" smooth="yes"/>
      <point x="493" y="710" smooth="yes"/>
      <point x="270" y="710" type="curve" smooth="yes"/>
      <point x="50" y="710" smooth="yes"/>
      <point x="50" y="615" smooth="yes"/>
      <point x="50" y="459" type="curve" smooth="yes"/>
      <point x="50" y="304" smooth="yes"/>
      <point x="50" y="209" smooth="yes"/>
      <point x="270" y="209" type="curve" smooth="yes"/>
      <point x="493" y="209" smooth="yes"/>
      <point x="493" y="304" smooth="yes"/>
    </contour>
    <contour>
      <point x="269" y="248" type="curve"/>
      <point x="101" y="248" smooth="yes"/>
      <point x="101" y="303" smooth="yes"/>
      <point x="101" y="365" type="curve" smooth="yes"/>
      <point x="101" y="554" type="line" smooth="yes"/>
      <point x="101" y="616" smooth="yes"/>
      <point x="101" y="671" smooth="yes"/>
      <point x="269" y="671" type="curve" smooth="yes"/>
      <point x="437" y="671" smooth="yes"/>
      <point x="437" y="616" smooth="yes"/>
      <point x="437" y="554" type="curve" smooth="yes"/>
      <point x="437" y="365" type="line" smooth="yes"/>
      <point x="437" y="303" smooth="yes"/>
      <point x="437" y="248" smooth="yes"/>
    </contour>
    <contour>
      <point x="328" y="289" type="line"/>
      <point x="389" y="289" type="line"/>
      <point x="326" y="425" type="line"/>
      <point x="362" y="440" smooth="yes"/>
      <point x="377" y="470" smooth="yes"/>
      <point x="377" y="522" type="curve" smooth="yes"/>
      <point x="377" y="602" smooth="yes"/>
      <point x="341" y="630" smooth="yes"/>
      <point x="251" y="630" type="curve" smooth="yes"/>
      <point x="178" y="630" type="line"/>
      <point x="178" y="289" type="line"/>
      <point x="238" y="289" type="line"/>
      <point x="238" y="413" type="line"/>
      <point x="269" y="413" type="line"/>
    </contour>
    <contour>
      <point x="317" y="512" type="line"/>
      <point x="317" y="485" smooth="yes"/>
      <point x="317" y="465" smooth="yes"/>
      <point x="262" y="465" type="curve" smooth="yes"/>
      <point x="238" y="465" type="line"/>
      <point x="238" y="578" type="line"/>
      <point x="262" y="578" type="line" smooth="yes"/>
      <point x="317" y="578" smooth="yes"/>
      <point x="317" y="559" smooth="yes"/>
      <point x="317" y="531" type="curve" smooth="yes"/>
    </contour>
  </outline>
</glyph>
<glyph name="degree" format="1">
  <advance width="360"/>
  <unicode hex="00B0"/>
  <outline>
    <contour>
      <point x="310" y="565" type="curve" name="hr00"/>
      <point x="310" y="656" smooth="yes"/>
      <point x="310" y="712" smooth="yes"/>
      <point x="179" y="712" type="curve" smooth="yes"/>
      <point x="50" y="712" smooth="yes"/>
      <point x="50" y="656" smooth="yes"/>
      <point x="50" y="565" type="curve" smooth="yes"/>
      <point x="50" y="474" smooth="yes"/>
      <point x="50" y="418" smooth="yes"/>
      <point x="179" y="418" type="curve" smooth="yes"/>
      <point x="310" y="418" smooth="yes"/>
      <point x="310" y="474" smooth="yes"/>
    </contour>
    <contour>
      <point x="239" y="526" type="line"/>
      <point x="239" y="500" smooth="yes"/>
      <point x="239" y="478" smooth="yes"/>
      <point x="181" y="478" type="curve" smooth="yes"/>
      <point x="121" y="478" smooth="yes"/>
      <point x="121" y="500" smooth="yes"/>
      <point x="121" y="526" type="curve" smooth="yes"/>
      <point x="121" y="603" type="line" smooth="yes"/>
      <point x="121" y="629" smooth="yes"/>
      <point x="121" y="651" smooth="yes"/>
      <point x="181" y="651" type="curve" smooth="yes"/>
      <point x="239" y="651" smooth="yes"/>
      <point x="239" y="629" smooth="yes"/>
      <point x="239" y="603" type="curve" smooth="yes"/>
    </contour>
  </outline>
</glyph>
<glyph name="plusminus" format="1">
  <advance width="500"/>
  <unicode hex="00B1"/>
  <outline>
    <contour>
      <point x="60" y="352" type="line" name="hr00"/>
      <point x="60" y="282" type="line"/>
      <point x="215" y="282" type="line"/>
      <point x="215" y="127" type="line"/>
      <point x="285" y="127" type="line"/>
      <point x="285" y="282" type="line"/>
      <point x="440" y="282" type="line"/>
      <point x="440" y="352" type="line"/>
      <point x="285" y="352" type="line"/>
      <point x="285" y="507" type="line"/>
      <point x="215" y="507" type="line"/>
      <point x="215" y="352" type="line"/>
    </contour>
    <contour>
      <point x="60" y="70" type="line"/>
      <point x="60" y="0" type="line"/>
      <point x="440" y="0" type="line"/>
      <point x="440" y="70" type="line"/>
    </contour>
  </outline>
</glyph>
<glyph name="twosuperior" format="1">
  <advance width="335"/>
  <unicode hex="00B2"/>
  <outline>
    <contour>
      <point x="273" y="624" type="curve" name="hr00"/>
      <point x="273" y="686" smooth="yes"/>
      <point x="230" y="719" smooth="yes"/>
      <point x="162" y="719" type="curve" smooth="yes"/>
      <point x="124" y="719"/>
      <point x="87" y="706"/>
      <point x="59" y="694" type="curve"/>
      <point x="73" y="651" type="line"/>
      <point x="102" y="660" smooth="yes"/>
      <point x="133" y="667" smooth="yes"/>
      <point x="162" y="667" type="curve" smooth="yes"/>
      <point x="195" y="667" smooth="yes"/>
      <point x="210" y="656" smooth="yes"/>
      <point x="210" y="624" type="curve" smooth="yes"/>
      <point x="210" y="593" smooth="yes"/>
      <point x="201" y="576" smooth="yes"/>
      <point x="180" y="553" type="curve" smooth="yes"/>
      <point x="56" y="414" type="line"/>
      <point x="56" y="365" type="line"/>
      <point x="273" y="365" type="line"/>
      <point x="273" y="416" type="line"/>
      <point x="132" y="416" type="line"/>
      <point x="227" y="521" type="line" smooth="yes"/>
      <point x="249" y="546" smooth="yes"/>
      <point x="273" y="581" smooth="yes"/>
    </contour>
  </outline>
</glyph>
<glyph name="threesuperior" format="1">
  <advance width="335"/>
  <unicode hex="00B3"/>
  <outline>
    <contour>
      <point x="153" y="719" type="curve" name="hr00"/>
      <point x="115" y="719"/>
      <point x="74" y="703"/>
      <point x="54" y="694" type="curve"/>
      <point x="68" y="651" type="line"/>
      <point x="101" y="661" smooth="yes"/>
      <point x="130" y="667" smooth="yes"/>
      <point x="151" y="667" type="curve" smooth="yes"/>
      <point x="196" y="667" smooth="yes"/>
      <point x="199" y="636" smooth="yes"/>
      <point x="199" y="614" type="curve" smooth="yes"/>
      <point x="199" y="594" smooth="yes"/>
      <point x="197" y="567" smooth="yes"/>
      <point x="165" y="565" type="curve" smooth="yes"/>
      <point x="100" y="561" type="line"/>
      <point x="100" y="519" type="line"/>
      <point x="173" y="514" type="line" smooth="yes"/>
      <point x="209" y="512" smooth="yes"/>
      <point x="210" y="487" smooth="yes"/>
      <point x="210" y="465" type="curve" smooth="yes"/>
      <point x="210" y="444" smooth="yes"/>
      <point x="210" y="413" smooth="yes"/>
      <point x="153" y="413" type="curve" smooth="yes"/>
      <point x="128" y="413"/>
      <point x="111" y="416"/>
      <point x="70" y="423" type="curve"/>
      <point x="56" y="380" type="line"/>
      <point x="75" y="372" smooth="yes"/>
      <point x="110" y="360" smooth="yes"/>
      <point x="153" y="360" type="curve" smooth="yes"/>
      <point x="248" y="360" smooth="yes"/>
      <point x="273" y="411" smooth="yes"/>
      <point x="273" y="466" type="curve" smooth="yes"/>
      <point x="273" y="507"/>
      <point x="258" y="531"/>
      <point x="226" y="546" type="curve"/>
      <point x="248" y="563" smooth="yes"/>
      <point x="262" y="588" smooth="yes"/>
      <point x="262" y="624" type="curve" smooth="yes"/>
      <point x="262" y="674" smooth="yes"/>
      <point x="237" y="719" smooth="yes"/>
    </contour>
  </outline>
</glyph>
<glyph name="acute" format="1">
  <advance width="430"/>
  <unicode hex="00B4"/>
  <outline>
    <contour>
      <point x="134" y="620" type="line" name="hr00"/>
      <point x="157" y="586" type="line"/>
      <point x="345" y="689" type="line"/>
      <point x="299" y="756" type="line"/>
    </contour>
  </outline>
</glyph>
<glyph name="mu" format="1">
  <advance width="516"/>
  <unicode hex="00B5"/>
  <outline>
    <contour>
      <point x="90" y="520" type="line" name="hr00"/>
      <point x="90" y="-182" type="line"/>
      <point x="165" y="-182" type="line"/>
      <point x="165" y="16" type="line"/>
      <point x="184" y="-3" smooth="yes"/>
      <point x="214" y="-12" smooth="yes"/>
      <point x="263" y="-12" type="curve" smooth="yes"/>
      <point x="382" y="-12" smooth="yes"/>
      <point x="436" y="18" smooth="yes"/>
      <point x="436" y="153" type="curve" smooth="yes"/>
      <point x="436" y="520" type="line"/>
      <point x="354" y="520" type="line"/>
      <point x="354" y="142" type="line" smooth="yes"/>
      <point x="354" y="86" smooth="yes"/>
      <point x="347" y="53" smooth="yes"/>
      <point x="263" y="53" type="curve" smooth="yes"/>
      <point x="179" y="53" smooth="yes"/>
      <point x="172" y="86" smooth="yes"/>
      <point x="172" y="142" type="curve" smooth="yes"/>
      <point x="172" y="520" type="line"/>
    </contour>
  </outline>
</glyph>
<glyph name="paragraph" format="1">
  <advance width="399"/>
  <unicode hex="00B6"/>
  <outline>
    <contour>
      <point x="227" y="0" type="line" name="hr00"/>
      <point x="309" y="0" type="line"/>
      <point x="309" y="658" type="line"/>
      <point x="227" y="658" type="line" smooth="yes"/>
      <point x="40" y="658" smooth="yes"/>
      <point x="40" y="577" smooth="yes"/>
      <point x="40" y="445" type="curve" smooth="yes"/>
      <point x="40" y="313"/>
      <point x="40" y="232"/>
      <point x="227" y="232" type="curve"/>
    </contour>
  </outline>
</glyph>
<glyph name="periodcentered" format="1">
  <advance width="251"/>
  <unicode hex="00B7"/>
  <outline>
    <contour>
      <point x="125" y="365" type="curve" name="hr00"/>
      <point x="85" y="365" smooth="yes"/>
      <point x="60" y="365" smooth="yes"/>
      <point x="60" y="302" type="curve" smooth="yes"/>
      <point x="60" y="237" smooth="yes"/>
      <point x="85" y="237" smooth="yes"/>
      <point x="125" y="237" type="curve" smooth="yes"/>
      <point x="165" y="237" smooth="yes"/>
      <point x="191" y="237" smooth="yes"/>
      <point x="191" y="302" type="curve" smooth="yes"/>
      <point x="191" y="365" smooth="yes"/>
      <point x="165" y="365" smooth="yes"/>
    </contour>
  </outline>
</glyph>
<glyph name="cedilla" format="1">
  <advance width="182"/>
  <unicode hex="00B8"/>
  <outline>
    <contour>
      <point x="94" y="0" type="line" name="hr00"/>
      <point x="53" y="0" type="line"/>
      <point x="43" y="-70" type="line"/>
      <point x="58" y="-94" type="line"/>
      <point x="78" y="-94" type="line" smooth="yes"/>
      <point x="107" y="-94" smooth="yes"/>
      <point x="107" y="-112" smooth="yes"/>
      <point x="107" y="-122" type="curve" smooth="yes"/>
      <point x="107" y="-136" smooth="yes"/>
      <point x="107" y="-150" smooth="yes"/>
      <point x="71" y="-150" type="curve" smooth="yes"/>
      <point x="45" y="-150"/>
      <point x="41" y="-147"/>
      <point x="20" y="-142" type="curve"/>
      <point x="10" y="-177" type="line"/>
      <point x="21" y="-183" smooth="yes"/>
      <point x="47" y="-194" smooth="yes"/>
      <point x="81" y="-194" type="curve" smooth="yes"/>
      <point x="161" y="-194" smooth="yes"/>
      <point x="172" y="-157" smooth="yes"/>
      <point x="172" y="-118" type="curve" smooth="yes"/>
      <point x="172" y="-85" smooth="yes"/>
      <point x="162" y="-56" smooth="yes"/>
      <point x="99" y="-56" type="curve" smooth="yes"/>
      <point x="87" y="-56" type="line"/>
    </contour>
  </outline>
</glyph>
<glyph name="onesuperior" format="1">
  <advance width="335"/>
  <unicode hex="00B9"/>
  <outline>
    <contour>
      <point x="214" y="719" type="line" name="hr00"/>
      <point x="194" y="719" type="line"/>
      <point x="66" y="671" type="line"/>
      <point x="85" y="622" type="line"/>
      <point x="151" y="647" type="line"/>
      <point x="151" y="365" type="line"/>
      <point x="214" y="365" type="line"/>
    </contour>
  </outline>
</glyph>
<glyph name="ordmasculine" format="1">
  <advance width="413"/>
  <unicode hex="00BA"/>
  <outline>
    <contour>
      <point x="204" y="355" type="curve" name="hr00"/>
      <point x="327" y="355" smooth="yes"/>
      <point x="327" y="424" smooth="yes"/>
      <point x="327" y="534" type="curve" smooth="yes"/>
      <point x="327" y="644" smooth="yes"/>
      <point x="327" y="713" smooth="yes"/>
      <point x="204" y="713" type="curve" smooth="yes"/>
      <point x="83" y="713" smooth="yes"/>
      <point x="83" y="644" smooth="yes"/>
      <point x="83" y="534" type="curve" smooth="yes"/>
      <point x="83" y="424" smooth="yes"/>
      <point x="83" y="355" smooth="yes"/>
    </contour>
    <contour>
      <point x="263" y="456" type="line"/>
      <point x="263" y="427" smooth="yes"/>
      <point x="258" y="405" smooth="yes"/>
      <point x="204" y="405" type="curve" smooth="yes"/>
      <point x="149" y="405" smooth="yes"/>
      <point x="144" y="427" smooth="yes"/>
      <point x="144" y="456" type="curve" smooth="yes"/>
      <point x="144" y="611" type="line" smooth="yes"/>
      <point x="144" y="641" smooth="yes"/>
      <point x="149" y="663" smooth="yes"/>
      <point x="204" y="663" type="curve" smooth="yes"/>
      <point x="258" y="663" smooth="yes"/>
      <point x="263" y="641" smooth="yes"/>
      <point x="263" y="611" type="curve" smooth="yes"/>
    </contour>
  </outline>
</glyph>
<glyph name="guillemotright" format="1">
  <advance width="440"/>
  <unicode hex="00BB"/>
  <outline>
    <contour>
      <point x="250" y="520" type="line" name="hr00"/>
      <point x="325" y="308" type="line"/>
      <point x="250" y="96" type="line"/>
      <point x="321" y="84" type="line"/>
      <point x="410" y="308" type="line"/>
      <point x="321" y="532" type="line"/>
    </contour>
    <contour>
      <point x="50" y="520" type="line"/>
      <point x="125" y="308" type="line"/>
      <point x="50" y="96" type="line"/>
      <point x="121" y="84" type="line"/>
      <point x="210" y="308" type="line"/>
      <point x="121" y="532" type="line"/>
    </contour>
  </outline>
</glyph>
<glyph name="onequarter" format="1">
  <advance width="726"/>
  <unicode hex="00BC"/>
  <outline>
    <contour>
      <point x="227" y="0" type="line" name="hr00"/>
      <point x="272" y="0" type="line"/>
      <point x="447" y="646" type="line"/>
      <point x="402" y="646" type="line"/>
    </contour>
    <contour>
      <point x="209" y="655" type="line"/>
      <point x="189" y="655" type="line"/>
      <point x="61" y="607" type="line"/>
      <point x="80" y="558" type="line"/>
      <point x="146" y="583" type="line"/>
      <point x="146" y="301" type="line"/>
      <point x="209" y="301" type="line"/>
    </contour>
    <contour>
      <point x="625" y="242" type="line"/>
      <point x="583" y="242" type="line"/>
      <point x="567" y="192" type="line"/>
      <point x="567" y="133" type="line"/>
      <point x="478" y="133" type="line"/>
      <point x="553" y="349" type="line"/>
      <point x="492" y="349" type="line"/>
      <point x="414" y="124" type="line"/>
      <point x="414" y="81" type="line"/>
      <point x="567" y="81" type="line"/>
      <point x="567" y="0" type="line"/>
      <point x="625" y="0" type="line"/>
      <point x="625" y="81" type="line"/>
      <point x="664" y="81" type="line"/>
      <point x="664" y="133" type="line"/>
      <point x="625" y="133" type="line"/>
    </contour>
  </outline>
</glyph>
<glyph name="onehalf" format="1">
  <advance width="726"/>
  <unicode hex="00BD"/>
  <outline>
    <contour>
      <point x="227" y="0" type="line" name="hr00"/>
      <point x="272" y="0" type="line"/>
      <point x="447" y="646" type="line"/>
      <point x="402" y="646" type="line"/>
    </contour>
    <contour>
      <point x="209" y="655" type="line"/>
      <point x="189" y="655" type="line"/>
      <point x="61" y="607" type="line"/>
      <point x="80" y="558" type="line"/>
      <point x="146" y="583" type="line"/>
      <point x="146" y="301" type="line"/>
      <point x="209" y="301" type="line"/>
    </contour>
    <contour>
      <point x="657" y="259" type="curve"/>
      <point x="657" y="321" smooth="yes"/>
      <point x="614" y="354" smooth="yes"/>
      <point x="546" y="354" type="curve" smooth="yes"/>
      <point x="508" y="354"/>
      <point x="471" y="341"/>
      <point x="443" y="329" type="curve"/>
      <point x="457" y="286" type="line"/>
      <point x="486" y="295" smooth="yes"/>
      <point x="517" y="302" smooth="yes"/>
      <point x="546" y="302" type="curve" smooth="yes"/>
      <point x="579" y="302" smooth="yes"/>
      <point x="594" y="291" smooth="yes"/>
      <point x="594" y="259" type="curve" smooth="yes"/>
      <point x="594" y="228" smooth="yes"/>
      <point x="585" y="211" smooth="yes"/>
      <point x="564" y="188" type="curve" smooth="yes"/>
      <point x="440" y="49" type="line"/>
      <point x="440" y="0" type="line"/>
      <point x="657" y="0" type="line"/>
      <point x="657" y="51" type="line"/>
      <point x="516" y="51" type="line"/>
      <point x="611" y="156" type="line" smooth="yes"/>
      <point x="633" y="181" smooth="yes"/>
      <point x="657" y="216" smooth="yes"/>
    </contour>
  </outline>
</glyph>
<glyph name="threequarters" format="1">
  <advance width="726"/>
  <unicode hex="00BE"/>
  <outline>
    <contour>
      <point x="249" y="0" type="line" name="hr00"/>
      <point x="294" y="0" type="line"/>
      <point x="469" y="646" type="line"/>
      <point x="424" y="646" type="line"/>
    </contour>
    <contour>
      <point x="148" y="655" type="curve"/>
      <point x="110" y="655"/>
      <point x="69" y="639"/>
      <point x="49" y="630" type="curve"/>
      <point x="63" y="587" type="line"/>
      <point x="96" y="597" smooth="yes"/>
      <point x="125" y="603" smooth="yes"/>
      <point x="146" y="603" type="curve" smooth="yes"/>
      <point x="191" y="603" smooth="yes"/>
      <point x="194" y="572" smooth="yes"/>
      <point x="194" y="550" type="curve" smooth="yes"/>
      <point x="194" y="530" smooth="yes"/>
      <point x="192" y="503" smooth="yes"/>
      <point x="160" y="501" type="curve" smooth="yes"/>
      <point x="95" y="497" type="line"/>
      <point x="95" y="455" type="line"/>
      <point x="168" y="450" type="line" smooth="yes"/>
      <point x="204" y="448" smooth="yes"/>
      <point x="205" y="423" smooth="yes"/>
      <point x="205" y="401" type="curve" smooth="yes"/>
      <point x="205" y="380" smooth="yes"/>
      <point x="205" y="349" smooth="yes"/>
      <point x="148" y="349" type="curve" smooth="yes"/>
      <point x="123" y="349"/>
      <point x="106" y="352"/>
      <point x="65" y="359" type="curve"/>
      <point x="51" y="316" type="line"/>
      <point x="70" y="308" smooth="yes"/>
      <point x="105" y="296" smooth="yes"/>
      <point x="148" y="296" type="curve" smooth="yes"/>
      <point x="243" y="296" smooth="yes"/>
      <point x="268" y="347" smooth="yes"/>
      <point x="268" y="402" type="curve" smooth="yes"/>
      <point x="268" y="443"/>
      <point x="253" y="467"/>
      <point x="221" y="482" type="curve"/>
      <point x="243" y="499" smooth="yes"/>
      <point x="257" y="524" smooth="yes"/>
      <point x="257" y="560" type="curve" smooth="yes"/>
      <point x="257" y="610" smooth="yes"/>
      <point x="232" y="655" smooth="yes"/>
    </contour>
    <contour>
      <point x="625" y="242" type="line"/>
      <point x="583" y="242" type="line"/>
      <point x="567" y="192" type="line"/>
      <point x="567" y="133" type="line"/>
      <point x="478" y="133" type="line"/>
      <point x="553" y="349" type="line"/>
      <point x="492" y="349" type="line"/>
      <point x="414" y="124" type="line"/>
      <point x="414" y="81" type="line"/>
      <point x="567" y="81" type="line"/>
      <point x="567" y="0" type="line"/>
      <point x="625" y="0" type="line"/>
      <point x="625" y="81" type="line"/>
      <point x="664" y="81" type="line"/>
      <point x="664" y="133" type="line"/>
      <point x="625" y="133" type="line"/>
    </contour>
  </outline>
</glyph>
<glyph name="questiondown" format="1">
  <advance width="361"/>
  <unicode hex="00BF"/>
  <outline>
    <contour>
      <point x="212" y="-121" type="curve" name="hr00"/>
      <point x="127" y="-121" smooth="yes"/>
      <point x="115" y="-94" smooth="yes"/>
      <point x="115" y="-20" type="curve" smooth="yes"/>
      <point x="115" y="44" smooth="yes"/>
      <point x="132" y="80" smooth="yes"/>
      <point x="173" y="127" type="curve" smooth="yes"/>
      <point x="226" y="188" type="line" smooth="yes"/>
      <point x="267" y="235"/>
      <point x="269" y="259"/>
      <point x="269" y="341" type="curve"/>
      <point x="202" y="341" type="line"/>
      <point x="202" y="287" smooth="yes"/>
      <point x="202" y="277" smooth="yes"/>
      <point x="161" y="230" type="curve" smooth="yes"/>
      <point x="108" y="169" type="line" smooth="yes"/>
      <point x="67" y="122" smooth="yes"/>
      <point x="30" y="61" smooth="yes"/>
      <point x="30" y="-21" type="curve" smooth="yes"/>
      <point x="30" y="-132" smooth="yes"/>
      <point x="78" y="-192" smooth="yes"/>
      <point x="212" y="-192" type="curve" smooth="yes"/>
      <point x="239" y="-192"/>
      <point x="296" y="-185"/>
      <point x="341" y="-171" type="curve"/>
      <point x="326" y="-106" type="line"/>
      <point x="301" y="-112" smooth="yes"/>
      <point x="264" y="-121" smooth="yes"/>
    </contour>
    <contour>
      <point x="232" y="421" type="curve"/>
      <point x="267" y="421" smooth="yes"/>
      <point x="289" y="421" smooth="yes"/>
      <point x="289" y="476" type="curve" smooth="yes"/>
      <point x="289" y="532" smooth="yes"/>
      <point x="267" y="532" smooth="yes"/>
      <point x="232" y="532" type="curve" smooth="yes"/>
      <point x="197" y="532" smooth="yes"/>
      <point x="175" y="532" smooth="yes"/>
      <point x="175" y="476" type="curve" smooth="yes"/>
      <point x="175" y="421" smooth="yes"/>
      <point x="197" y="421" smooth="yes"/>
    </contour>
  </outline>
</glyph>
<glyph name="AE" format="1">
  <advance width="756"/>
  <unicode hex="00C6"/>
  <outline>
    <contour>
      <point x="0" y="0" type="line" name="hr00"/>
      <point x="88" y="0" type="line"/>
      <point x="195" y="276" type="line"/>
      <point x="373" y="276" type="line"/>
      <point x="373" y="0" type="line"/>
      <point x="716" y="0" type="line"/>
      <point x="716" y="70" type="line"/>
      <point x="459" y="70" type="line"/>
      <point x="459" y="276" type="line"/>
      <point x="676" y="276" type="line"/>
      <point x="676" y="346" type="line"/>
      <point x="459" y="346" type="line"/>
      <point x="459" y="630" type="line"/>
      <point x="696" y="630" type="line"/>
      <point x="706" y="700" type="line"/>
      <point x="275" y="700" type="line"/>
    </contour>
    <contour>
      <point x="222" y="346" type="line"/>
      <point x="332" y="630" type="line"/>
      <point x="373" y="630" type="line"/>
      <point x="373" y="346" type="line"/>
    </contour>
  </outline>
</glyph>
<glyph name="Eth" format="1">
  <advance width="587"/>
  <unicode hex="00D0"/>
  <outline>
    <contour>
      <point x="36" y="381" type="line" name="hr00"/>
      <point x="36" y="321" type="line"/>
      <point x="90" y="321" type="line"/>
      <point x="90" y="0" type="line"/>
      <point x="290" y="0" type="line" smooth="yes"/>
      <point x="510" y="0" smooth="yes"/>
      <point x="512" y="82" smooth="yes"/>
      <point x="512" y="349" type="curve" smooth="yes"/>
      <point x="512" y="615" smooth="yes"/>
      <point x="510" y="700" smooth="yes"/>
      <point x="290" y="700" type="curve" smooth="yes"/>
      <point x="90" y="700" type="line"/>
      <point x="90" y="381" type="line"/>
    </contour>
    <contour>
      <point x="176" y="628" type="line"/>
      <point x="291" y="628" type="line" smooth="yes"/>
      <point x="425" y="628" smooth="yes"/>
      <point x="425" y="575" smooth="yes"/>
      <point x="425" y="497" type="curve" smooth="yes"/>
      <point x="425" y="205" type="line" smooth="yes"/>
      <point x="425" y="127" smooth="yes"/>
      <point x="425" y="74" smooth="yes"/>
      <point x="291" y="74" type="curve" smooth="yes"/>
      <point x="176" y="74" type="line"/>
      <point x="176" y="321" type="line"/>
      <point x="316" y="321" type="line"/>
      <point x="316" y="381" type="line"/>
      <point x="176" y="381" type="line"/>
    </contour>
  </outline>
</glyph>
<glyph name="multiply" format="1">
  <advance width="500"/>
  <unicode hex="00D7"/>
  <outline>
    <contour>
      <point x="118" y="497" type="line" name="hr00"/>
      <point x="70" y="449" type="line"/>
      <point x="202" y="317" type="line"/>
      <point x="70" y="185" type="line"/>
      <point x="118" y="137" type="line"/>
      <point x="250" y="269" type="line"/>
      <point x="382" y="137" type="line"/>
      <point x="430" y="185" type="line"/>
      <point x="298" y="317" type="line"/>
      <point x="430" y="449" type="line"/>
      <point x="382" y="497" type="line"/>
      <point x="250" y="365" type="line"/>
    </contour>
  </outline>
</glyph>
<glyph name="Thorn" format="1">
  <advance width="513"/>
  <unicode hex="00DE"/>
  <outline>
    <contour>
      <point x="176" y="700" type="line" name="hr00"/>
      <point x="90" y="700" type="line"/>
      <point x="90" y="0" type="line"/>
      <point x="176" y="0" type="line"/>
      <point x="176" y="124" type="line"/>
      <point x="241" y="124" type="line" smooth="yes"/>
      <point x="400" y="124" smooth="yes"/>
      <point x="463" y="183" smooth="yes"/>
      <point x="463" y="350" type="curve" smooth="yes"/>
      <point x="463" y="517" smooth="yes"/>
      <point x="400" y="576" smooth="yes"/>
      <point x="241" y="576" type="curve" smooth="yes"/>
      <point x="176" y="576" type="line"/>
    </contour>
    <contour>
      <point x="376" y="326" type="line"/>
      <point x="376" y="248" smooth="yes"/>
      <point x="376" y="195" smooth="yes"/>
      <point x="242" y="195" type="curve" smooth="yes"/>
      <point x="176" y="195" type="line"/>
      <point x="176" y="505" type="line"/>
      <point x="242" y="505" type="line" smooth="yes"/>
      <point x="376" y="505" smooth="yes"/>
      <point x="376" y="452" smooth="yes"/>
      <point x="376" y="374" type="curve" smooth="yes"/>
    </contour>
  </outline>
</glyph>
<glyph name="germandbls" format="1">
  <advance width="592"/>
  <unicode hex="00DF"/>
  <outline>
    <contour>
      <point x="232" y="13" type="line"/>
      <point x="257" y="0" smooth="yes"/>
      <point x="297" y="-12" smooth="yes"/>
      <point x="340" y="-12" type="curve" smooth="yes"/>
      <point x="476" y="-12" smooth="yes"/>
      <point x="530" y="40" smooth="yes"/>
      <point x="530" y="186" type="curve" smooth="yes"/>
      <point x="530" y="299"/>
      <point x="489" y="347"/>
      <point x="414" y="370" type="curve"/>
      <point x="414" y="376" type="line"/>
      <point x="469" y="400" smooth="yes"/>
      <point x="502" y="433" smooth="yes"/>
      <point x="502" y="520" type="curve" smooth="yes" name="hr01"/>
      <point x="502" y="617" smooth="yes"/>
      <point x="502" y="729" smooth="yes"/>
      <point x="310" y="729" type="curve" smooth="yes"/>
      <point x="143" y="729"/>
      <point x="122" y="650"/>
      <point x="119" y="519" type="curve"/>
      <point x="50" y="505" type="line"/>
      <point x="50" y="461" type="line"/>
      <point x="119" y="461" type="line"/>
      <point x="119" y="0" type="line"/>
      <point x="201" y="0" type="line"/>
      <point x="201" y="566" type="line" smooth="yes"/>
      <point x="201" y="618" smooth="yes"/>
      <point x="201" y="658" smooth="yes"/>
      <point x="309" y="658" type="curve" smooth="yes"/>
      <point x="416" y="658" smooth="yes"/>
      <point x="416" y="618" smooth="yes"/>
      <point x="416" y="566" type="curve" smooth="yes"/>
      <point x="416" y="454" smooth="yes"/>
      <point x="416" y="410" smooth="yes"/>
      <point x="331" y="410" type="curve" smooth="yes"/>
      <point x="251" y="410" type="line"/>
      <point x="251" y="352" type="line"/>
      <point x="353" y="342" type="line" smooth="yes"/>
      <point x="443" y="333" smooth="yes"/>
      <point x="443" y="243" smooth="yes"/>
      <point x="443" y="183" type="curve" smooth="yes" name="hr02"/>
      <point x="443" y="86" smooth="yes"/>
      <point x="442" y="53" smooth="yes"/>
      <point x="346" y="53" type="curve" smooth="yes"/>
      <point x="307" y="53"/>
      <point x="282" y="57"/>
      <point x="251" y="68" type="curve"/>
    </contour>
  </outline>
</glyph>
<glyph name="ae" format="1">
  <advance width="737"/>
  <unicode hex="00E6"/>
  <outline>
    <contour>
      <point x="513" y="531" type="curve" name="hr00"/>
      <point x="450" y="531"/>
      <point x="410" y="518"/>
      <point x="384" y="494" type="curve"/>
      <point x="361" y="517" smooth="yes"/>
      <point x="322" y="531" smooth="yes"/>
      <point x="256" y="531" type="curve" smooth="yes"/>
      <point x="189" y="531"/>
      <point x="132" y="513"/>
      <point x="91" y="493" type="curve"/>
      <point x="107" y="443" type="line"/>
      <point x="144" y="455" smooth="yes"/>
      <point x="198" y="465" smooth="yes"/>
      <point x="246" y="465" type="curve" smooth="yes"/>
      <point x="299" y="465" smooth="yes"/>
      <point x="335" y="451" smooth="yes"/>
      <point x="335" y="376" type="curve" smooth="yes"/>
      <point x="335" y="288" type="line"/>
      <point x="167" y="288" smooth="yes"/>
      <point x="70" y="283" smooth="yes"/>
      <point x="70" y="147" type="curve" smooth="yes"/>
      <point x="70" y="61" smooth="yes"/>
      <point x="87" y="-12" smooth="yes"/>
      <point x="212" y="-12" type="curve" smooth="yes"/>
      <point x="252" y="-12"/>
      <point x="317" y="-10"/>
      <point x="362" y="53" type="curve"/>
      <point x="384" y="11" smooth="yes"/>
      <point x="425" y="-12" smooth="yes"/>
      <point x="505" y="-12" type="curve" smooth="yes"/>
      <point x="572" y="-12"/>
      <point x="620" y="2"/>
      <point x="671" y="32" type="curve"/>
      <point x="655" y="82" type="line"/>
      <point x="608" y="62" smooth="yes"/>
      <point x="554" y="54" smooth="yes"/>
      <point x="506" y="54" type="curve" smooth="yes"/>
      <point x="455" y="54" smooth="yes"/>
      <point x="417" y="67" smooth="yes"/>
      <point x="417" y="137" type="curve" smooth="yes"/>
      <point x="417" y="231" type="line"/>
      <point x="585" y="231" smooth="yes"/>
      <point x="682" y="235" smooth="yes"/>
      <point x="682" y="381" type="curve" smooth="yes"/>
      <point x="682" y="467" smooth="yes"/>
      <point x="665" y="531" smooth="yes"/>
    </contour>
    <contour>
      <point x="417" y="385" type="line"/>
      <point x="417" y="431" smooth="yes"/>
      <point x="437" y="465" smooth="yes"/>
      <point x="512" y="465" type="curve" smooth="yes"/>
      <point x="596" y="465" smooth="yes"/>
      <point x="600" y="432" smooth="yes"/>
      <point x="600" y="376" type="curve" smooth="yes"/>
      <point x="600" y="356" type="line" smooth="yes"/>
      <point x="600" y="289"/>
      <point x="517" y="288"/>
      <point x="417" y="288" type="curve"/>
    </contour>
    <contour>
      <point x="335" y="140" type="line"/>
      <point x="335" y="90" smooth="yes"/>
      <point x="319" y="53" smooth="yes"/>
      <point x="240" y="53" type="curve" smooth="yes"/>
      <point x="156" y="53" smooth="yes"/>
      <point x="152" y="86" smooth="yes"/>
      <point x="152" y="142" type="curve" smooth="yes"/>
      <point x="152" y="162" type="line" smooth="yes"/>
      <point x="152" y="231"/>
      <point x="240" y="231"/>
      <point x="335" y="231" type="curve"/>
    </contour>
  </outline>
</glyph>
<glyph name="eth" format="1">
  <advance width="513"/>
  <unicode hex="00F0"/>
  <outline>
    <contour>
      <point x="220" y="593" type="line" name="hr00"/>
      <point x="250" y="535" type="line"/>
      <point x="340" y="581" type="line"/>
      <point x="351" y="551"/>
      <point x="356" y="515"/>
      <point x="357" y="475" type="curve"/>
      <point x="332" y="485" smooth="yes"/>
      <point x="299" y="491" smooth="yes"/>
      <point x="256" y="491" type="curve" smooth="yes"/>
      <point x="75" y="491" smooth="yes"/>
      <point x="75" y="395" smooth="yes"/>
      <point x="75" y="240" type="curve" smooth="yes"/>
      <point x="75" y="85" smooth="yes"/>
      <point x="75" y="-12" smooth="yes"/>
      <point x="256" y="-12" type="curve" smooth="yes"/>
      <point x="438" y="-12" smooth="yes"/>
      <point x="438" y="85" smooth="yes"/>
      <point x="438" y="240" type="curve" smooth="yes"/>
      <point x="438" y="452" type="line" smooth="yes"/>
      <point x="438" y="520"/>
      <point x="427" y="574"/>
      <point x="408" y="615" type="curve"/>
      <point x="499" y="662" type="line"/>
      <point x="469" y="720" type="line"/>
      <point x="373" y="671" type="line"/>
      <point x="335" y="715"/>
      <point x="285" y="741"/>
      <point x="234" y="761" type="curve"/>
      <point x="207" y="702" type="line"/>
      <point x="250" y="686"/>
      <point x="283" y="664"/>
      <point x="306" y="637" type="curve"/>
    </contour>
    <contour>
      <point x="353" y="145" type="line"/>
      <point x="353" y="93" smooth="yes"/>
      <point x="353" y="53" smooth="yes"/>
      <point x="256" y="53" type="curve" smooth="yes"/>
      <point x="158" y="53" smooth="yes"/>
      <point x="158" y="93" smooth="yes"/>
      <point x="158" y="145" type="curve" smooth="yes"/>
      <point x="158" y="334" type="line" smooth="yes"/>
      <point x="158" y="386" smooth="yes"/>
      <point x="158" y="426" smooth="yes"/>
      <point x="256" y="426" type="curve" smooth="yes"/>
      <point x="353" y="426" smooth="yes"/>
      <point x="353" y="386" smooth="yes"/>
      <point x="353" y="334" type="curve" smooth="yes"/>
    </contour>
  </outline>
</glyph>
<glyph name="divide" format="1">
  <advance width="500"/>
  <unicode hex="00F7"/>
  <outline>
    <contour>
      <point x="251" y="192" type="curve" name="hr00"/>
      <point x="216" y="192" smooth="yes"/>
      <point x="194" y="192" smooth="yes"/>
      <point x="194" y="137" type="curve" smooth="yes"/>
      <point x="194" y="81" smooth="yes"/>
      <point x="216" y="81" smooth="yes"/>
      <point x="251" y="81" type="curve" smooth="yes"/>
      <point x="286" y="81" smooth="yes"/>
      <point x="308" y="81" smooth="yes"/>
      <point x="308" y="137" type="curve" smooth="yes"/>
      <point x="308" y="192" smooth="yes"/>
      <point x="286" y="192" smooth="yes"/>
    </contour>
    <contour>
      <point x="251" y="553" type="curve"/>
      <point x="216" y="553" smooth="yes"/>
      <point x="194" y="553" smooth="yes"/>
      <point x="194" y="498" type="curve" smooth="yes"/>
      <point x="194" y="442" smooth="yes"/>
      <point x="216" y="442" smooth="yes"/>
      <point x="251" y="442" type="curve" smooth="yes"/>
      <point x="286" y="442" smooth="yes"/>
      <point x="308" y="442" smooth="yes"/>
      <point x="308" y="498" type="curve" smooth="yes"/>
      <point x="308" y="553" smooth="yes"/>
      <point x="286" y="553" smooth="yes"/>
    </contour>
    <contour>
      <point x="60" y="352" type="line"/>
      <point x="60" y="282" type="line"/>
      <point x="440" y="282" type="line"/>
      <point x="440" y="352" type="line"/>
    </contour>
  </outline>
</glyph>
<glyph name="thorn" format="1">
  <advance width="514"/>
  <unicode hex="00FE"/>
  <outline>
    <contour>
      <point x="167" y="720" type="line" name="hr00"/>
      <point x="90" y="720" type="line"/>
      <point x="90" y="17"/>
      <point x="90" y="16"/>
      <point x="91" y="-181" type="curve"/>
      <point x="166" y="-181" type="line"/>
      <point x="166" y="-1" type="line"/>
      <point x="208" y="-9" smooth="yes"/>
      <point x="243" y="-12" smooth="yes"/>
      <point x="267" y="-12" type="curve" smooth="yes"/>
      <point x="436" y="-12" smooth="yes"/>
      <point x="439" y="84" smooth="yes"/>
      <point x="439" y="284" type="curve" smooth="yes"/>
      <point x="439" y="449" smooth="yes"/>
      <point x="421" y="520" smooth="yes"/>
      <point x="302" y="520" type="curve" smooth="yes"/>
      <point x="262" y="520"/>
      <point x="208" y="519"/>
      <point x="167" y="481" type="curve"/>
    </contour>
    <contour>
      <point x="172" y="369" type="line"/>
      <point x="172" y="419" smooth="yes"/>
      <point x="188" y="456" smooth="yes"/>
      <point x="267" y="456" type="curve" smooth="yes"/>
      <point x="351" y="456" smooth="yes"/>
      <point x="355" y="423" smooth="yes"/>
      <point x="355" y="367" type="curve" smooth="yes"/>
      <point x="355" y="147" type="line" smooth="yes"/>
      <point x="355" y="75" smooth="yes"/>
      <point x="344" y="53" smooth="yes"/>
      <point x="265" y="53" type="curve" smooth="yes"/>
      <point x="233" y="53"/>
      <point x="202" y="58"/>
      <point x="172" y="64" type="curve"/>
    </contour>
  </outline>
</glyph>
<glyph name="dotlessi" format="1">
  <advance width="262"/>
  <unicode hex="0131"/>
  <outline>
    <contour>
      <point x="172" y="520" type="line" name="hr00"/>
      <point x="90" y="520" type="line"/>
      <point x="90" y="0" type="line"/>
      <point x="172" y="0" type="line"/>
    </contour>
  </outline>
</glyph>
<glyph name="kgreenlandic" format="1">
  <advance width="470"/>
  <unicode hex="0138"/>
  <outline>
    <contour>
      <point x="172" y="0" type="line" name="hr00"/>
      <point x="172" y="520" type="line"/>
      <point x="90" y="520" type="line"/>
      <point x="90" y="0" type="line"/>
    </contour>
    <contour>
      <point x="345" y="520" type="line"/>
      <point x="196" y="276" type="line"/>
      <point x="353" y="0" type="line"/>
      <point x="440" y="0" type="line"/>
      <point x="283" y="276" type="line"/>
      <point x="432" y="520" type="line"/>
    </contour>
  </outline>
</glyph>
<glyph name="Lslash" format="1">
  <advance width="422"/>
  <unicode hex="0141"/>
  <outline>
    <contour>
      <point x="-6" y="303" type="line" name="hr00"/>
      <point x="24" y="245" type="line"/>
      <point x="90" y="278" type="line"/>
      <point x="90" y="0" type="line"/>
      <point x="402" y="0" type="line"/>
      <point x="402" y="70" type="line"/>
      <point x="176" y="70" type="line"/>
      <point x="176" y="322" type="line"/>
      <point x="273" y="372" type="line"/>
      <point x="243" y="430" type="line"/>
      <point x="176" y="396" type="line"/>
      <point x="176" y="700" type="line"/>
      <point x="90" y="700" type="line"/>
      <point x="90" y="352" type="line"/>
    </contour>
  </outline>
</glyph>
<glyph name="lslash" format="1">
  <advance width="262"/>
  <unicode hex="0142"/>
  <outline>
    <contour>
      <point x="-8" y="403" type="line" name="hr00"/>
      <point x="22" y="345" type="line"/>
      <point x="90" y="379" type="line"/>
      <point x="90" y="0" type="line"/>
      <point x="172" y="0" type="line"/>
      <point x="172" y="421" type="line"/>
      <point x="271" y="472" type="line"/>
      <point x="241" y="530" type="line"/>
      <point x="172" y="495" type="line"/>
      <point x="172" y="720" type="line"/>
      <point x="90" y="720" type="line"/>
      <point x="90" y="453" type="line"/>
    </contour>
  </outline>
</glyph>
<glyph name="Eng" format="1">
  <advance width="597"/>
  <unicode hex="014A"/>
  <outline>
    <contour>
      <point x="507" y="700" type="line" name="hr00"/>
      <point x="423" y="700" type="line"/>
      <point x="423" y="182" type="line"/>
      <point x="418" y="182" type="line"/>
      <point x="412" y="220" smooth="yes"/>
      <point x="403" y="250" smooth="yes"/>
      <point x="390" y="280" type="curve" smooth="yes"/>
      <point x="216" y="700" type="line"/>
      <point x="90" y="700" type="line"/>
      <point x="90" y="0" type="line"/>
      <point x="174" y="0" type="line"/>
      <point x="174" y="584" type="line"/>
      <point x="180" y="584" type="line"/>
      <point x="425" y="-6" type="line"/>
      <point x="425" y="-54" type="line" smooth="yes"/>
      <point x="425" y="-105" smooth="yes"/>
      <point x="419" y="-130" smooth="yes"/>
      <point x="384" y="-130" type="curve" smooth="yes"/>
      <point x="366" y="-130"/>
      <point x="353" y="-127"/>
      <point x="335" y="-122" type="curve"/>
      <point x="317" y="-180" type="line"/>
      <point x="337" y="-189" smooth="yes"/>
      <point x="361" y="-194" smooth="yes"/>
      <point x="386" y="-194" type="curve" smooth="yes"/>
      <point x="503" y="-194" smooth="yes"/>
      <point x="507" y="-113" smooth="yes"/>
      <point x="507" y="-33" type="curve" smooth="yes"/>
    </contour>
  </outline>
</glyph>
<glyph name="eng" format="1">
  <advance width="517"/>
  <unicode hex="014B"/>
  <outline>
    <contour>
      <point x="135" y="520" type="line"/>
      <point x="90" y="520" type="line"/>
      <point x="90" y="0" type="line"/>
      <point x="172" y="0" type="line"/>
      <point x="172" y="379" type="line" smooth="yes"/>
      <point x="172" y="429" smooth="yes"/>
      <point x="188" y="466" smooth="yes"/>
      <point x="267" y="466" type="curve" smooth="yes" name="hr01"/>
      <point x="351" y="466" smooth="yes"/>
      <point x="355" y="433" smooth="yes"/>
      <point x="355" y="377" type="curve" smooth="yes"/>
      <point x="355" y="-54" type="line" smooth="yes"/>
      <point x="355" y="-105" smooth="yes"/>
      <point x="349" y="-130" smooth="yes"/>
      <point x="314" y="-130" type="curve" smooth="yes"/>
      <point x="296" y="-130"/>
      <point x="283" y="-127"/>
      <point x="265" y="-122" type="curve"/>
      <point x="247" y="-180" type="line"/>
      <point x="267" y="-189" smooth="yes"/>
      <point x="291" y="-194" smooth="yes"/>
      <point x="316" y="-194" type="curve" smooth="yes"/>
      <point x="433" y="-194" smooth="yes"/>
      <point x="437" y="-113" smooth="yes"/>
      <point x="437" y="-33" type="curve" smooth="yes"/>
      <point x="437" y="366" type="line" smooth="yes"/>
      <point x="437" y="451" smooth="yes"/>
      <point x="421" y="531" smooth="yes"/>
      <point x="302" y="531" type="curve" smooth="yes" name="hr02"/>
      <point x="256" y="531"/>
      <point x="190" y="530"/>
      <point x="148" y="471" type="curve"/>
    </contour>
  </outline>
</glyph>
<glyph name="OE" format="1">
  <advance width="814"/>
  <unicode hex="0152"/>
  <outline>
    <contour>
      <point x="774" y="0" type="line" name="hr00"/>
      <point x="774" y="70" type="line"/>
      <point x="487" y="70" type="line"/>
      <point x="515" y="119"/>
      <point x="517" y="198"/>
      <point x="518" y="316" type="curve"/>
      <point x="734" y="316" type="line"/>
      <point x="734" y="386" type="line"/>
      <point x="518" y="386" type="line"/>
      <point x="517" y="503"/>
      <point x="514" y="581"/>
      <point x="486" y="630" type="curve"/>
      <point x="754" y="630" type="line"/>
      <point x="764" y="700" type="line"/>
      <point x="296" y="700" type="line" smooth="yes"/>
      <point x="77" y="700" smooth="yes"/>
      <point x="75" y="615" smooth="yes"/>
      <point x="75" y="349" type="curve" smooth="yes"/>
      <point x="75" y="82" smooth="yes"/>
      <point x="77" y="0" smooth="yes"/>
      <point x="296" y="0" type="curve" smooth="yes"/>
    </contour>
    <contour>
      <point x="431" y="205" type="line"/>
      <point x="431" y="127" smooth="yes"/>
      <point x="431" y="71" smooth="yes"/>
      <point x="297" y="71" type="curve" smooth="yes"/>
      <point x="162" y="71" smooth="yes"/>
      <point x="162" y="127" smooth="yes"/>
      <point x="162" y="205" type="curve" smooth="yes"/>
      <point x="162" y="495" type="line" smooth="yes"/>
      <point x="162" y="573" smooth="yes"/>
      <point x="162" y="629" smooth="yes"/>
      <point x="297" y="629" type="curve" smooth="yes"/>
      <point x="431" y="629" smooth="yes"/>
      <point x="431" y="573" smooth="yes"/>
      <point x="431" y="495" type="curve" smooth="yes"/>
    </contour>
  </outline>
</glyph>
<glyph name="oe" format="1">
  <advance width="758"/>
  <unicode hex="0153"/>
  <outline>
    <contour>
      <point x="534" y="531" type="curve" name="hr00"/>
      <point x="465" y="531"/>
      <point x="422" y="515"/>
      <point x="396" y="486" type="curve"/>
      <point x="370" y="515" smooth="yes"/>
      <point x="327" y="531" smooth="yes"/>
      <point x="256" y="531" type="curve" smooth="yes"/>
      <point x="75" y="531" smooth="yes"/>
      <point x="75" y="427" smooth="yes"/>
      <point x="75" y="260" type="curve" smooth="yes"/>
      <point x="75" y="93" smooth="yes"/>
      <point x="75" y="-12" smooth="yes"/>
      <point x="256" y="-12" type="curve" smooth="yes"/>
      <point x="326" y="-12"/>
      <point x="369" y="3"/>
      <point x="395" y="32" type="curve"/>
      <point x="420" y="3" smooth="yes"/>
      <point x="460" y="-12" smooth="yes"/>
      <point x="526" y="-12" type="curve" smooth="yes"/>
      <point x="593" y="-12"/>
      <point x="641" y="2"/>
      <point x="692" y="32" type="curve"/>
      <point x="676" y="82" type="line"/>
      <point x="629" y="62" smooth="yes"/>
      <point x="575" y="54" smooth="yes"/>
      <point x="527" y="54" type="curve" smooth="yes"/>
      <point x="474" y="54" smooth="yes"/>
      <point x="438" y="68" smooth="yes"/>
      <point x="438" y="143" type="curve" smooth="yes"/>
      <point x="438" y="218" type="line"/>
      <point x="606" y="220" smooth="yes"/>
      <point x="703" y="223" smooth="yes"/>
      <point x="703" y="375" type="curve" smooth="yes"/>
      <point x="703" y="464" smooth="yes"/>
      <point x="686" y="531" smooth="yes"/>
    </contour>
    <contour>
      <point x="353" y="145" type="line"/>
      <point x="353" y="93" smooth="yes"/>
      <point x="353" y="53" smooth="yes"/>
      <point x="256" y="53" type="curve" smooth="yes"/>
      <point x="158" y="53" smooth="yes"/>
      <point x="158" y="93" smooth="yes"/>
      <point x="158" y="145" type="curve" smooth="yes"/>
      <point x="158" y="374" type="line" smooth="yes"/>
      <point x="158" y="426" smooth="yes"/>
      <point x="158" y="466" smooth="yes"/>
      <point x="256" y="466" type="curve" smooth="yes"/>
      <point x="353" y="466" smooth="yes"/>
      <point x="353" y="426" smooth="yes"/>
      <point x="353" y="374" type="curve" smooth="yes"/>
    </contour>
    <contour>
      <point x="438" y="378" type="line"/>
      <point x="438" y="428" smooth="yes"/>
      <point x="454" y="465" smooth="yes"/>
      <point x="533" y="465" type="curve" smooth="yes"/>
      <point x="617" y="465" smooth="yes"/>
      <point x="621" y="432" smooth="yes"/>
      <point x="621" y="376" type="curve" smooth="yes"/>
      <point x="621" y="353" type="line" smooth="yes"/>
      <point x="621" y="275"/>
      <point x="533" y="275"/>
      <point x="438" y="275" type="curve"/>
    </contour>
  </outline>
</glyph>
<glyph name="florin" format="1">
  <advance width="500"/>
  <unicode hex="0192"/>
  <outline>
    <contour>
      <point x="88" y="348" type="line"/>
      <point x="88" y="288" type="line"/>
      <point x="211" y="288" type="line"/>
      <point x="222" y="197" smooth="yes"/>
      <point x="234" y="105" smooth="yes"/>
      <point x="234" y="68" type="curve" smooth="yes"/>
      <point x="234" y="-19" smooth="yes"/>
      <point x="191" y="-34" smooth="yes"/>
      <point x="134" y="-34" type="curve" smooth="yes"/>
      <point x="111" y="-34"/>
      <point x="96" y="-31"/>
      <point x="84" y="-29" type="curve"/>
      <point x="66" y="-90" type="line"/>
      <point x="88" y="-97" smooth="yes"/>
      <point x="113" y="-103" smooth="yes"/>
      <point x="132" y="-103" type="curve" smooth="yes"/>
      <point x="256" y="-103" smooth="yes"/>
      <point x="314" y="-36" smooth="yes"/>
      <point x="314" y="65" type="curve" smooth="yes"/>
      <point x="314" y="104"/>
      <point x="302" y="197"/>
      <point x="291" y="288" type="curve"/>
      <point x="424" y="288" type="line"/>
      <point x="424" y="348" type="line"/>
      <point x="284" y="348" type="line"/>
      <point x="277" y="407" smooth="yes"/>
      <point x="272" y="460" smooth="yes"/>
      <point x="272" y="486" type="curve" smooth="yes" name="hr01"/>
      <point x="272" y="573" smooth="yes"/>
      <point x="315" y="589" smooth="yes"/>
      <point x="372" y="589" type="curve" smooth="yes"/>
      <point x="411" y="589"/>
      <point x="427" y="586"/>
      <point x="446" y="584" type="curve"/>
      <point x="464" y="644" type="line"/>
      <point x="444" y="651" smooth="yes"/>
      <point x="400" y="658" smooth="yes"/>
      <point x="374" y="658" type="curve" smooth="yes"/>
      <point x="250" y="658" smooth="yes"/>
      <point x="192" y="590" smooth="yes"/>
      <point x="192" y="489" type="curve" smooth="yes"/>
      <point x="192" y="462"/>
      <point x="197" y="408"/>
      <point x="204" y="348" type="curve"/>
    </contour>
  </outline>
</glyph>
<glyph name="dotlessj" format="1">
  <advance width="262"/>
  <unicode hex="0237"/>
  <outline>
    <contour>
      <point x="90" y="520" type="line" name="hr00"/>
      <point x="90" y="-54" type="line" smooth="yes"/>
      <point x="90" y="-105" smooth="yes"/>
      <point x="84" y="-130" smooth="yes"/>
      <point x="49" y="-130" type="curve" smooth="yes"/>
      <point x="31" y="-130"/>
      <point x="18" y="-127"/>
      <point x="0" y="-122" type="curve"/>
      <point x="-18" y="-180" type="line"/>
      <point x="2" y="-189" smooth="yes"/>
      <point x="26" y="-194" smooth="yes"/>
      <point x="51" y="-194" type="curve" smooth="yes"/>
      <point x="168" y="-194" smooth="yes"/>
      <point x="172" y="-113" smooth="yes"/>
      <point x="172" y="-33" type="curve" smooth="yes"/>
      <point x="172" y="520" type="line"/>
    </contour>
  </outline>
</glyph>
<glyph name="circumflex" format="1">
  <advance width="430"/>
  <unicode hex="02C6"/>
  <outline>
    <contour>
      <point x="318" y="603" type="line" name="hr00"/>
      <point x="349" y="640" type="line"/>
      <point x="215" y="756" type="line"/>
      <point x="82" y="640" type="line"/>
      <point x="112" y="603" type="line"/>
      <point x="215" y="670" type="line"/>
    </contour>
  </outline>
</glyph>
<glyph name="caron" format="1">
  <advance width="430"/>
  <unicode hex="02C7"/>
  <outline>
    <contour>
      <point x="113" y="747" type="line" name="hr00"/>
      <point x="82" y="710" type="line"/>
      <point x="216" y="594" type="line"/>
      <point x="349" y="710" type="line"/>
      <point x="319" y="747" type="line"/>
      <point x="216" y="680" type="line"/>
    </contour>
  </outline>
</glyph>
<glyph name="breve" format="1">
  <advance width="430"/>
  <unicode hex="02D8"/>
  <outline>
    <contour>
      <point x="215" y="591" type="curve" name="hr00"/>
      <point x="272" y="591" smooth="yes"/>
      <point x="301" y="612" smooth="yes"/>
      <point x="323" y="658" type="curve" smooth="yes"/>
      <point x="344" y="702" type="line"/>
      <point x="299" y="724" type="line"/>
      <point x="283" y="693" smooth="yes"/>
      <point x="268" y="661" smooth="yes"/>
      <point x="215" y="661" type="curve" smooth="yes"/>
      <point x="162" y="661"/>
      <point x="147" y="693"/>
      <point x="131" y="724" type="curve"/>
      <point x="86" y="702" type="line"/>
      <point x="107" y="658" type="line" smooth="yes"/>
      <point x="129" y="612" smooth="yes"/>
      <point x="158" y="591" smooth="yes"/>
    </contour>
  </outline>
</glyph>
<glyph name="dotaccent" format="1">
  <advance width="254"/>
  <unicode hex="02D9"/>
  <outline>
    <contour>
      <point x="127" y="732" type="curve" name="hr00"/>
      <point x="92" y="732" smooth="yes"/>
      <point x="70" y="732" smooth="yes"/>
      <point x="70" y="677" type="curve" smooth="yes"/>
      <point x="70" y="621" smooth="yes"/>
      <point x="92" y="621" smooth="yes"/>
      <point x="127" y="621" type="curve" smooth="yes"/>
      <point x="162" y="621" smooth="yes"/>
      <point x="184" y="621" smooth="yes"/>
      <point x="184" y="677" type="curve" smooth="yes"/>
      <point x="184" y="732" smooth="yes"/>
      <point x="162" y="732" smooth="yes"/>
    </contour>
  </outline>
</glyph>
<glyph name="ring" format="1">
  <advance width="430"/>
  <unicode hex="02DA"/>
  <outline>
    <contour>
      <point x="215" y="712" type="curve" name="hr00"/>
      <point x="233" y="712" smooth="yes"/>
      <point x="248" y="709" smooth="yes"/>
      <point x="248" y="677" type="curve" smooth="yes"/>
      <point x="248" y="644" smooth="yes"/>
      <point x="233" y="642" smooth="yes"/>
      <point x="215" y="642" type="curve" smooth="yes"/>
      <point x="197" y="642" smooth="yes"/>
      <point x="182" y="644" smooth="yes"/>
      <point x="182" y="677" type="curve" smooth="yes"/>
      <point x="182" y="709" smooth="yes"/>
      <point x="197" y="712" smooth="yes"/>
    </contour>
    <contour>
      <point x="215" y="761" type="curve"/>
      <point x="163" y="761" smooth="yes"/>
      <point x="128" y="753" smooth="yes"/>
      <point x="128" y="677" type="curve" smooth="yes"/>
      <point x="128" y="601" smooth="yes"/>
      <point x="163" y="593" smooth="yes"/>
      <point x="215" y="593" type="curve" smooth="yes"/>
      <point x="267" y="593" smooth="yes"/>
      <point x="302" y="601" smooth="yes"/>
      <point x="302" y="677" type="curve" smooth="yes"/>
      <point x="302" y="753" smooth="yes"/>
      <point x="267" y="761" smooth="yes"/>
    </contour>
  </outline>
</glyph>
<glyph name="ogonek" format="1">
  <advance width="182"/>
  <unicode hex="02DB"/>
  <outline>
    <contour>
      <point x="138" y="15" type="line" name="hr00"/>
      <point x="107" y="15" type="line"/>
      <point x="52" y="-44" type="line" smooth="yes"/>
      <point x="26" y="-72" smooth="yes"/>
      <point x="16" y="-90" smooth="yes"/>
      <point x="16" y="-113" type="curve" smooth="yes"/>
      <point x="16" y="-143" smooth="yes"/>
      <point x="27" y="-177" smooth="yes"/>
      <point x="88" y="-177" type="curve" smooth="yes"/>
      <point x="136" y="-177"/>
      <point x="170" y="-157"/>
      <point x="188" y="-144" type="curve"/>
      <point x="178" y="-109" type="line"/>
      <point x="154" y="-125" smooth="yes"/>
      <point x="133" y="-133" smooth="yes"/>
      <point x="107" y="-133" type="curve" smooth="yes"/>
      <point x="84" y="-133" smooth="yes"/>
      <point x="81" y="-120" smooth="yes"/>
      <point x="81" y="-107" type="curve" smooth="yes"/>
      <point x="81" y="-91" smooth="yes"/>
      <point x="105" y="-53" smooth="yes"/>
      <point x="118" y="-33" type="curve" smooth="yes"/>
      <point x="138" y="0" type="line"/>
    </contour>
  </outline>
</glyph>
<glyph name="tilde" format="1">
  <advance width="448"/>
  <unicode hex="02DC"/>
  <outline>
    <contour>
      <point x="340" y="715" type="line"/>
      <point x="320" y="702" smooth="yes"/>
      <point x="304" y="695" smooth="yes"/>
      <point x="284" y="695" type="curve" smooth="yes"/>
      <point x="246" y="695" smooth="yes"/>
      <point x="218" y="722" smooth="yes"/>
      <point x="183" y="722" type="curve" smooth="yes" name="hr01"/>
      <point x="159" y="722"/>
      <point x="140" y="717"/>
      <point x="99" y="675" type="curve"/>
      <point x="121" y="637" type="line"/>
      <point x="141" y="650" smooth="yes"/>
      <point x="157" y="657" smooth="yes"/>
      <point x="177" y="657" type="curve" smooth="yes"/>
      <point x="215" y="657" smooth="yes"/>
      <point x="243" y="630" smooth="yes"/>
      <point x="278" y="630" type="curve" smooth="yes" name="hr02"/>
      <point x="302" y="630"/>
      <point x="321" y="635"/>
      <point x="362" y="677" type="curve"/>
    </contour>
  </outline>
</glyph>
<glyph name="hungarumlaut" format="1">
  <advance width="430"/>
  <unicode hex="02DD"/>
  <outline>
    <contour>
      <point x="35" y="619" type="line" name="hr00"/>
      <point x="62" y="586" type="line"/>
      <point x="230" y="689" type="line"/>
      <point x="180" y="755" type="line"/>
    </contour>
    <contour>
      <point x="235" y="619" type="line"/>
      <point x="262" y="586" type="line"/>
      <point x="430" y="689" type="line"/>
      <point x="380" y="755" type="line"/>
    </contour>
  </outline>
</glyph>
<glyph name="commaaccent" format="1">
  <advance width="240"/>
  <unicode hex="0326"/>
  <outline>
    <contour>
      <point x="121" y="-50" type="curve" name="hr00"/>
      <point x="86" y="-50" smooth="yes"/>
      <point x="64" y="-50" smooth="yes"/>
      <point x="64" y="-105" type="curve" smooth="yes"/>
      <point x="64" y="-140"/>
      <point x="72" y="-153"/>
      <point x="87" y="-158" type="curve"/>
      <point x="59" y="-241" type="line"/>
      <point x="104" y="-265" type="line"/>
      <point x="145" y="-200" type="line" smooth="yes"/>
      <point x="158" y="-179" smooth="yes"/>
      <point x="168" y="-159" smooth="yes"/>
      <point x="174" y="-138" type="curve" smooth="yes"/>
      <point x="176" y="-130" smooth="yes"/>
      <point x="178" y="-119" smooth="yes"/>
      <point x="178" y="-105" type="curve" smooth="yes"/>
      <point x="178" y="-50" smooth="yes"/>
      <point x="156" y="-50" smooth="yes"/>
    </contour>
  </outline>
</glyph>
<glyph name="pi" format="1">
  <advance width="552"/>
  <unicode hex="03C0"/>
  <outline>
    <contour>
      <point x="40" y="520" type="line"/>
      <point x="40" y="450" type="line"/>
      <point x="100" y="450" type="line"/>
      <point x="100" y="0" type="line"/>
      <point x="182" y="0" type="line"/>
      <point x="182" y="450" type="line"/>
      <point x="370" y="450" type="line"/>
      <point x="370" y="125" type="line" smooth="yes"/>
      <point x="370" y="43" smooth="yes"/>
      <point x="373" y="-12" smooth="yes"/>
      <point x="476" y="-12" type="curve" smooth="yes" name="hr01"/>
      <point x="504" y="-12"/>
      <point x="526" y="-7"/>
      <point x="547" y="0" type="curve" name="hr02"/>
      <point x="540" y="50" type="line"/>
      <point x="525" y="47" smooth="yes"/>
      <point x="513" y="46" smooth="yes"/>
      <point x="503" y="46" type="curve" smooth="yes" name="hr03"/>
      <point x="455" y="46" smooth="yes"/>
      <point x="452" y="75" smooth="yes"/>
      <point x="452" y="125" type="curve" smooth="yes"/>
      <point x="452" y="450" type="line"/>
      <point x="512" y="450" type="line"/>
      <point x="512" y="520" type="line"/>
    </contour>
  </outline>
</glyph>
<glyph name="endash" format="1">
  <advance width="592"/>
  <unicode hex="2013"/>
  <outline>
    <contour>
      <point x="0" y="332" type="line" name="hr00"/>
      <point x="0" y="267" type="line"/>
      <point x="592" y="267" type="line"/>
      <point x="592" y="332" type="line"/>
    </contour>
  </outline>
</glyph>
<glyph name="emdash" format="1">
  <advance width="726"/>
  <unicode hex="2014"/>
  <outline>
    <contour>
      <point x="0" y="332" type="line" name="hr00"/>
      <point x="0" y="267" type="line"/>
      <point x="726" y="267" type="line"/>
      <point x="726" y="332" type="line"/>
    </contour>
  </outline>
</glyph>
<glyph name="quoteleft" format="1">
  <advance width="185"/>
  <unicode hex="2018"/>
  <outline>
    <contour>
      <point x="87" y="520" type="curve" name="hr00"/>
      <point x="122" y="520" smooth="yes"/>
      <point x="144" y="520" smooth="yes"/>
      <point x="144" y="575" type="curve" smooth="yes"/>
      <point x="144" y="610"/>
      <point x="136" y="623"/>
      <point x="121" y="628" type="curve"/>
      <point x="162" y="731" type="line"/>
      <point x="117" y="755" type="line"/>
      <point x="63" y="670" type="line" smooth="yes"/>
      <point x="50" y="649" smooth="yes"/>
      <point x="40" y="629" smooth="yes"/>
      <point x="34" y="608" type="curve" smooth="yes"/>
      <point x="32" y="600" smooth="yes"/>
      <point x="30" y="589" smooth="yes"/>
      <point x="30" y="575" type="curve" smooth="yes"/>
      <point x="30" y="520" smooth="yes"/>
      <point x="52" y="520" smooth="yes"/>
    </contour>
  </outline>
</glyph>
<glyph name="quoteright" format="1">
  <advance width="185"/>
  <unicode hex="2019"/>
  <outline>
    <contour>
      <point x="98" y="734" type="curve" name="hr00"/>
      <point x="63" y="734" smooth="yes"/>
      <point x="41" y="734" smooth="yes"/>
      <point x="41" y="679" type="curve" smooth="yes"/>
      <point x="41" y="644"/>
      <point x="49" y="631"/>
      <point x="64" y="626" type="curve"/>
      <point x="23" y="523" type="line"/>
      <point x="68" y="499" type="line"/>
      <point x="122" y="584" type="line" smooth="yes"/>
      <point x="135" y="605" smooth="yes"/>
      <point x="145" y="625" smooth="yes"/>
      <point x="151" y="646" type="curve" smooth="yes"/>
      <point x="153" y="654" smooth="yes"/>
      <point x="155" y="665" smooth="yes"/>
      <point x="155" y="679" type="curve" smooth="yes"/>
      <point x="155" y="734" smooth="yes"/>
      <point x="133" y="734" smooth="yes"/>
    </contour>
  </outline>
</glyph>
<glyph name="quotedblleft" format="1">
  <advance width="355"/>
  <unicode hex="201C"/>
  <outline>
    <contour>
      <point x="87" y="520" type="curve" name="hr00"/>
      <point x="122" y="520" smooth="yes"/>
      <point x="144" y="520" smooth="yes"/>
      <point x="144" y="575" type="curve" smooth="yes"/>
      <point x="144" y="610"/>
      <point x="136" y="623"/>
      <point x="121" y="628" type="curve"/>
      <point x="162" y="731" type="line"/>
      <point x="117" y="755" type="line"/>
      <point x="63" y="670" type="line" smooth="yes"/>
      <point x="50" y="649" smooth="yes"/>
      <point x="40" y="629" smooth="yes"/>
      <point x="34" y="608" type="curve" smooth="yes"/>
      <point x="32" y="600" smooth="yes"/>
      <point x="30" y="589" smooth="yes"/>
      <point x="30" y="575" type="curve" smooth="yes"/>
      <point x="30" y="520" smooth="yes"/>
      <point x="52" y="520" smooth="yes"/>
    </contour>
    <contour>
      <point x="257" y="520" type="curve"/>
      <point x="292" y="520" smooth="yes"/>
      <point x="314" y="520" smooth="yes"/>
      <point x="314" y="575" type="curve" smooth="yes"/>
      <point x="314" y="610"/>
      <point x="306" y="623"/>
      <point x="291" y="628" type="curve"/>
      <point x="332" y="731" type="line"/>
      <point x="287" y="755" type="line"/>
      <point x="233" y="670" type="line" smooth="yes"/>
      <point x="220" y="649" smooth="yes"/>
      <point x="210" y="629" smooth="yes"/>
      <point x="204" y="608" type="curve" smooth="yes"/>
      <point x="202" y="600" smooth="yes"/>
      <point x="200" y="589" smooth="yes"/>
      <point x="200" y="575" type="curve" smooth="yes"/>
      <point x="200" y="520" smooth="yes"/>
      <point x="222" y="520" smooth="yes"/>
    </contour>
  </outline>
</glyph>
<glyph name="quotedblright" format="1">
  <advance width="355"/>
  <unicode hex="201D"/>
  <outline>
    <contour>
      <point x="98" y="734" type="curve" name="hr00"/>
      <point x="63" y="734" smooth="yes"/>
      <point x="41" y="734" smooth="yes"/>
      <point x="41" y="679" type="curve" smooth="yes"/>
      <point x="41" y="644"/>
      <point x="49" y="631"/>
      <point x="64" y="626" type="curve"/>
      <point x="23" y="523" type="line"/>
      <point x="68" y="499" type="line"/>
      <point x="122" y="584" type="line" smooth="yes"/>
      <point x="135" y="605" smooth="yes"/>
      <point x="145" y="625" smooth="yes"/>
      <point x="151" y="646" type="curve" smooth="yes"/>
      <point x="153" y="654" smooth="yes"/>
      <point x="155" y="665" smooth="yes"/>
      <point x="155" y="679" type="curve" smooth="yes"/>
      <point x="155" y="734" smooth="yes"/>
      <point x="133" y="734" smooth="yes"/>
    </contour>
    <contour>
      <point x="268" y="734" type="curve"/>
      <point x="233" y="734" smooth="yes"/>
      <point x="211" y="734" smooth="yes"/>
      <point x="211" y="679" type="curve" smooth="yes"/>
      <point x="211" y="644"/>
      <point x="219" y="631"/>
      <point x="234" y="626" type="curve"/>
      <point x="193" y="523" type="line"/>
      <point x="238" y="499" type="line"/>
      <point x="292" y="584" type="line" smooth="yes"/>
      <point x="305" y="605" smooth="yes"/>
      <point x="315" y="625" smooth="yes"/>
      <point x="321" y="646" type="curve" smooth="yes"/>
      <point x="323" y="654" smooth="yes"/>
      <point x="325" y="665" smooth="yes"/>
      <point x="325" y="679" type="curve" smooth="yes"/>
      <point x="325" y="734" smooth="yes"/>
      <point x="303" y="734" smooth="yes"/>
    </contour>
  </outline>
</glyph>
<glyph name="quotedblbase" format="1">
  <advance width="355"/>
  <unicode hex="201E"/>
  <outline>
    <contour>
      <point x="98" y="99" type="curve" name="hr00"/>
      <point x="63" y="99" smooth="yes"/>
      <point x="41" y="99" smooth="yes"/>
      <point x="41" y="44" type="curve" smooth="yes"/>
      <point x="41" y="9"/>
      <point x="49" y="-4"/>
      <point x="64" y="-9" type="curve"/>
      <point x="23" y="-112" type="line"/>
      <point x="68" y="-136" type="line"/>
      <point x="122" y="-51" type="line" smooth="yes"/>
      <point x="135" y="-30" smooth="yes"/>
      <point x="145" y="-10" smooth="yes"/>
      <point x="151" y="11" type="curve" smooth="yes"/>
      <point x="153" y="19" smooth="yes"/>
      <point x="155" y="30" smooth="yes"/>
      <point x="155" y="44" type="curve" smooth="yes"/>
      <point x="155" y="99" smooth="yes"/>
      <point x="133" y="99" smooth="yes"/>
    </contour>
    <contour>
      <point x="268" y="99" type="curve"/>
      <point x="233" y="99" smooth="yes"/>
      <point x="211" y="99" smooth="yes"/>
      <point x="211" y="44" type="curve" smooth="yes"/>
      <point x="211" y="9"/>
      <point x="219" y="-4"/>
      <point x="234" y="-9" type="curve"/>
      <point x="193" y="-112" type="line"/>
      <point x="238" y="-136" type="line"/>
      <point x="292" y="-51" type="line" smooth="yes"/>
      <point x="305" y="-30" smooth="yes"/>
      <point x="315" y="-10" smooth="yes"/>
      <point x="321" y="11" type="curve" smooth="yes"/>
      <point x="323" y="19" smooth="yes"/>
      <point x="325" y="30" smooth="yes"/>
      <point x="325" y="44" type="curve" smooth="yes"/>
      <point x="325" y="99" smooth="yes"/>
      <point x="303" y="99" smooth="yes"/>
    </contour>
  </outline>
</glyph>
<glyph name="dagger" format="1">
  <advance width="500"/>
  <unicode hex="2020"/>
  <outline>
    <contour>
      <point x="60" y="520" type="line" name="hr00"/>
      <point x="60" y="450" type="line"/>
      <point x="215" y="450" type="line"/>
      <point x="215" y="0" type="line"/>
      <point x="285" y="0" type="line"/>
      <point x="285" y="450" type="line"/>
      <point x="440" y="450" type="line"/>
      <point x="440" y="520" type="line"/>
      <point x="285" y="520" type="line"/>
      <point x="285" y="700" type="line"/>
      <point x="215" y="700" type="line"/>
      <point x="215" y="520" type="line"/>
    </contour>
  </outline>
</glyph>
<glyph name="daggerdbl" format="1">
  <advance width="500"/>
  <unicode hex="2021"/>
  <outline>
    <contour>
      <point x="60" y="520" type="line" name="hr00"/>
      <point x="60" y="450" type="line"/>
      <point x="215" y="450" type="line"/>
      <point x="215" y="250" type="line"/>
      <point x="60" y="250" type="line"/>
      <point x="60" y="180" type="line"/>
      <point x="215" y="180" type="line"/>
      <point x="215" y="0" type="line"/>
      <point x="285" y="0" type="line"/>
      <point x="285" y="180" type="line"/>
      <point x="440" y="180" type="line"/>
      <point x="440" y="250" type="line"/>
      <point x="285" y="250" type="line"/>
      <point x="285" y="450" type="line"/>
      <point x="440" y="450" type="line"/>
      <point x="440" y="520" type="line"/>
      <point x="285" y="520" type="line"/>
      <point x="285" y="700" type="line"/>
      <point x="215" y="700" type="line"/>
      <point x="215" y="520" type="line"/>
    </contour>
  </outline>
</glyph>
<glyph name="bullet" format="1">
  <advance width="274"/>
  <unicode hex="2022"/>
  <outline>
    <contour>
      <point x="137" y="376" type="curve" name="hr00"/>
      <point x="90" y="376" smooth="yes"/>
      <point x="60" y="376" smooth="yes"/>
      <point x="60" y="301" type="curve" smooth="yes"/>
      <point x="60" y="226" smooth="yes"/>
      <point x="90" y="226" smooth="yes"/>
      <point x="137" y="226" type="curve" smooth="yes"/>
      <point x="185" y="226" smooth="yes"/>
      <point x="214" y="226" smooth="yes"/>
      <point x="214" y="301" type="curve" smooth="yes"/>
      <point x="214" y="376" smooth="yes"/>
      <point x="185" y="376" smooth="yes"/>
    </contour>
  </outline>
</glyph>
<glyph name="ellipsis" format="1">
  <advance width="720"/>
  <unicode hex="2026"/>
  <outline>
    <contour>
      <point x="121" y="99" type="curve" name="hr00"/>
      <point x="86" y="99" smooth="yes"/>
      <point x="64" y="99" smooth="yes"/>
      <point x="64" y="44" type="curve" smooth="yes"/>
      <point x="64" y="-12" smooth="yes"/>
      <point x="86" y="-12" smooth="yes"/>
      <point x="121" y="-12" type="curve" smooth="yes"/>
      <point x="156" y="-12" smooth="yes"/>
      <point x="178" y="-12" smooth="yes"/>
      <point x="178" y="44" type="curve" smooth="yes"/>
      <point x="178" y="99" smooth="yes"/>
      <point x="156" y="99" smooth="yes"/>
    </contour>
    <contour>
      <point x="361" y="99" type="curve"/>
      <point x="326" y="99" smooth="yes"/>
      <point x="304" y="99" smooth="yes"/>
      <point x="304" y="44" type="curve" smooth="yes"/>
      <point x="304" y="-12" smooth="yes"/>
      <point x="326" y="-12" smooth="yes"/>
      <point x="361" y="-12" type="curve" smooth="yes"/>
      <point x="396" y="-12" smooth="yes"/>
      <point x="418" y="-12" smooth="yes"/>
      <point x="418" y="44" type="curve" smooth="yes"/>
      <point x="418" y="99" smooth="yes"/>
      <point x="396" y="99" smooth="yes"/>
    </contour>
    <contour>
      <point x="601" y="99" type="curve"/>
      <point x="566" y="99" smooth="yes"/>
      <point x="544" y="99" smooth="yes"/>
      <point x="544" y="44" type="curve" smooth="yes"/>
      <point x="544" y="-12" smooth="yes"/>
      <point x="566" y="-12" smooth="yes"/>
      <point x="601" y="-12" type="curve" smooth="yes"/>
      <point x="636" y="-12" smooth="yes"/>
      <point x="658" y="-12" smooth="yes"/>
      <point x="658" y="44" type="curve" smooth="yes"/>
      <point x="658" y="99" smooth="yes"/>
      <point x="636" y="99" smooth="yes"/>
    </contour>
  </outline>
</glyph>
<glyph name="perthousand" format="1">
  <advance width="1026"/>
  <unicode hex="2030"/>
  <outline>
    <contour>
      <point x="253" y="0" type="line"/>
      <point x="298" y="0" type="line"/>
      <point x="473" y="646" type="line"/>
      <point x="428" y="646" type="line"/>
    </contour>
    <contour>
      <point x="282" y="475" type="curve"/>
      <point x="282" y="585" smooth="yes"/>
      <point x="282" y="655" smooth="yes"/>
      <point x="166" y="655" type="curve" smooth="yes"/>
      <point x="51" y="655" smooth="yes"/>
      <point x="51" y="585" smooth="yes"/>
      <point x="51" y="475" type="curve" smooth="yes"/>
      <point x="51" y="364" smooth="yes"/>
      <point x="51" y="295" smooth="yes"/>
      <point x="166" y="295" type="curve" smooth="yes"/>
      <point x="282" y="295" smooth="yes"/>
      <point x="282" y="364" smooth="yes"/>
    </contour>
    <contour>
      <point x="220" y="394" type="line"/>
      <point x="220" y="369" smooth="yes"/>
      <point x="220" y="347" smooth="yes"/>
      <point x="168" y="347" type="curve" smooth="yes"/>
      <point x="113" y="347" smooth="yes"/>
      <point x="113" y="369" smooth="yes"/>
      <point x="113" y="394" type="curve" smooth="yes"/>
      <point x="113" y="555" type="line" smooth="yes"/>
      <point x="113" y="580" smooth="yes"/>
      <point x="113" y="603" smooth="yes"/>
      <point x="165" y="603" type="curve" smooth="yes"/>
      <point x="220" y="603" smooth="yes"/>
      <point x="220" y="580" smooth="yes"/>
      <point x="220" y="555" type="curve" smooth="yes"/>
    </contour>
    <contour>
      <point x="674" y="174" type="curve"/>
      <point x="674" y="284" smooth="yes"/>
      <point x="674" y="354" smooth="yes"/>
      <point x="558" y="354" type="curve" smooth="yes"/>
      <point x="443" y="354" smooth="yes"/>
      <point x="443" y="284" smooth="yes"/>
      <point x="443" y="174" type="curve" smooth="yes"/>
      <point x="443" y="63" smooth="yes"/>
      <point x="443" y="-6" smooth="yes"/>
      <point x="558" y="-6" type="curve" smooth="yes" name="hr01"/>
      <point x="674" y="-6" smooth="yes"/>
      <point x="674" y="63" smooth="yes"/>
    </contour>
    <contour>
      <point x="612" y="93" type="line"/>
      <point x="612" y="68" smooth="yes"/>
      <point x="612" y="46" smooth="yes"/>
      <point x="560" y="46" type="curve" smooth="yes"/>
      <point x="505" y="46" smooth="yes"/>
      <point x="505" y="68" smooth="yes"/>
      <point x="505" y="93" type="curve" smooth="yes"/>
      <point x="505" y="254" type="line" smooth="yes"/>
      <point x="505" y="279" smooth="yes"/>
      <point x="505" y="302" smooth="yes"/>
      <point x="557" y="302" type="curve" smooth="yes"/>
      <point x="612" y="302" smooth="yes"/>
      <point x="612" y="279" smooth="yes"/>
      <point x="612" y="254" type="curve" smooth="yes"/>
    </contour>
    <contour>
      <point x="974" y="174" type="curve"/>
      <point x="974" y="284" smooth="yes"/>
      <point x="974" y="354" smooth="yes"/>
      <point x="858" y="354" type="curve" smooth="yes"/>
      <point x="743" y="354" smooth="yes"/>
      <point x="743" y="284" smooth="yes"/>
      <point x="743" y="174" type="curve" smooth="yes"/>
      <point x="743" y="63" smooth="yes"/>
      <point x="743" y="-6" smooth="yes"/>
      <point x="858" y="-6" type="curve" smooth="yes"/>
      <point x="974" y="-6" smooth="yes"/>
      <point x="974" y="63" smooth="yes"/>
    </contour>
    <contour>
      <point x="912" y="93" type="line"/>
      <point x="912" y="68" smooth="yes"/>
      <point x="912" y="46" smooth="yes"/>
      <point x="860" y="46" type="curve" smooth="yes"/>
      <point x="805" y="46" smooth="yes"/>
      <point x="805" y="68" smooth="yes"/>
      <point x="805" y="93" type="curve" smooth="yes"/>
      <point x="805" y="254" type="line" smooth="yes"/>
      <point x="805" y="279" smooth="yes"/>
      <point x="805" y="302" smooth="yes"/>
      <point x="857" y="302" type="curve" smooth="yes"/>
      <point x="912" y="302" smooth="yes"/>
      <point x="912" y="279" smooth="yes"/>
      <point x="912" y="254" type="curve" smooth="yes"/>
    </contour>
  </outline>
</glyph>
<glyph name="guilsinglleft" format="1">
  <advance width="240"/>
  <unicode hex="2039"/>
  <outline>
    <contour>
      <point x="115" y="308" type="line" name="hr00"/>
      <point x="190" y="520" type="line"/>
      <point x="119" y="532" type="line"/>
      <point x="30" y="308" type="line"/>
      <point x="119" y="84" type="line"/>
      <point x="190" y="96" type="line"/>
    </contour>
  </outline>
</glyph>
<glyph name="guilsinglright" format="1">
  <advance width="240"/>
  <unicode hex="203A"/>
  <outline>
    <contour>
      <point x="50" y="520" type="line" name="hr00"/>
      <point x="125" y="308" type="line"/>
      <point x="50" y="96" type="line"/>
      <point x="121" y="84" type="line"/>
      <point x="210" y="308" type="line"/>
      <point x="121" y="532" type="line"/>
    </contour>
  </outline>
</glyph>
<glyph name="fraction" format="1">
  <advance width="310"/>
  <unicode hex="2044"/>
  <outline>
    <contour>
      <point x="45" y="0" type="line" name="hr00"/>
      <point x="90" y="0" type="line"/>
      <point x="265" y="646" type="line"/>
      <point x="220" y="646" type="line"/>
    </contour>
  </outline>
</glyph>
<glyph name="zeroinferior" format="1">
  <advance width="335"/>
  <unicode hex="2080"/>
  <outline>
    <contour>
      <point x="281" y="174" type="curve" name="hr00"/>
      <point x="281" y="284" smooth="yes"/>
      <point x="281" y="354" smooth="yes"/>
      <point x="165" y="354" type="curve" smooth="yes"/>
      <point x="50" y="354" smooth="yes"/>
      <point x="50" y="284" smooth="yes"/>
      <point x="50" y="174" type="curve" smooth="yes"/>
      <point x="50" y="63" smooth="yes"/>
      <point x="50" y="-6" smooth="yes"/>
      <point x="165" y="-6" type="curve" smooth="yes"/>
      <point x="281" y="-6" smooth="yes"/>
      <point x="281" y="63" smooth="yes"/>
    </contour>
    <contour>
      <point x="219" y="93" type="line"/>
      <point x="219" y="68" smooth="yes"/>
      <point x="219" y="46" smooth="yes"/>
      <point x="167" y="46" type="curve" smooth="yes"/>
      <point x="112" y="46" smooth="yes"/>
      <point x="112" y="68" smooth="yes"/>
      <point x="112" y="93" type="curve" smooth="yes"/>
      <point x="112" y="254" type="line" smooth="yes"/>
      <point x="112" y="279" smooth="yes"/>
      <point x="112" y="302" smooth="yes"/>
      <point x="164" y="302" type="curve" smooth="yes"/>
      <point x="219" y="302" smooth="yes"/>
      <point x="219" y="279" smooth="yes"/>
      <point x="219" y="254" type="curve" smooth="yes"/>
    </contour>
  </outline>
</glyph>
<glyph name="oneinferior" format="1">
  <advance width="335"/>
  <unicode hex="2081"/>
  <outline>
    <contour>
      <point x="214" y="354" type="line" name="hr00"/>
      <point x="194" y="354" type="line"/>
      <point x="66" y="306" type="line"/>
      <point x="85" y="257" type="line"/>
      <point x="151" y="282" type="line"/>
      <point x="151" y="0" type="line"/>
      <point x="214" y="0" type="line"/>
    </contour>
  </outline>
</glyph>
<glyph name="twoinferior" format="1">
  <advance width="335"/>
  <unicode hex="2082"/>
  <outline>
    <contour>
      <point x="273" y="259" type="curve" name="hr00"/>
      <point x="273" y="321" smooth="yes"/>
      <point x="230" y="354" smooth="yes"/>
      <point x="162" y="354" type="curve" smooth="yes"/>
      <point x="124" y="354"/>
      <point x="87" y="341"/>
      <point x="59" y="329" type="curve"/>
      <point x="73" y="286" type="line"/>
      <point x="102" y="295" smooth="yes"/>
      <point x="133" y="302" smooth="yes"/>
      <point x="162" y="302" type="curve" smooth="yes"/>
      <point x="195" y="302" smooth="yes"/>
      <point x="210" y="291" smooth="yes"/>
      <point x="210" y="259" type="curve" smooth="yes"/>
      <point x="210" y="228" smooth="yes"/>
      <point x="201" y="211" smooth="yes"/>
      <point x="180" y="188" type="curve" smooth="yes"/>
      <point x="56" y="49" type="line"/>
      <point x="56" y="0" type="line"/>
      <point x="273" y="0" type="line"/>
      <point x="273" y="51" type="line"/>
      <point x="132" y="51" type="line"/>
      <point x="227" y="156" type="line" smooth="yes"/>
      <point x="249" y="181" smooth="yes"/>
      <point x="273" y="216" smooth="yes"/>
    </contour>
  </outline>
</glyph>
<glyph name="threeinferior" format="1">
  <advance width="335"/>
  <unicode hex="2083"/>
  <outline>
    <contour>
      <point x="153" y="354" type="curve" name="hr00"/>
      <point x="115" y="354"/>
      <point x="74" y="338"/>
      <point x="54" y="329" type="curve"/>
      <point x="68" y="286" type="line"/>
      <point x="101" y="296" smooth="yes"/>
      <point x="130" y="302" smooth="yes"/>
      <point x="151" y="302" type="curve" smooth="yes"/>
      <point x="196" y="302" smooth="yes"/>
      <point x="199" y="271" smooth="yes"/>
      <point x="199" y="249" type="curve" smooth="yes"/>
      <point x="199" y="229" smooth="yes"/>
      <point x="197" y="202" smooth="yes"/>
      <point x="165" y="200" type="curve" smooth="yes"/>
      <point x="100" y="196" type="line"/>
      <point x="100" y="154" type="line"/>
      <point x="173" y="149" type="line" smooth="yes"/>
      <point x="209" y="147" smooth="yes"/>
      <point x="210" y="122" smooth="yes"/>
      <point x="210" y="100" type="curve" smooth="yes"/>
      <point x="210" y="79" smooth="yes"/>
      <point x="210" y="48" smooth="yes"/>
      <point x="153" y="48" type="curve" smooth="yes"/>
      <point x="128" y="48"/>
      <point x="111" y="51"/>
      <point x="70" y="58" type="curve"/>
      <point x="56" y="15" type="line"/>
      <point x="75" y="7" smooth="yes"/>
      <point x="110" y="-5" smooth="yes"/>
      <point x="153" y="-5" type="curve" smooth="yes"/>
      <point x="248" y="-5" smooth="yes"/>
      <point x="273" y="46" smooth="yes"/>
      <point x="273" y="101" type="curve" smooth="yes"/>
      <point x="273" y="142"/>
      <point x="258" y="166"/>
      <point x="226" y="181" type="curve"/>
      <point x="248" y="198" smooth="yes"/>
      <point x="262" y="223" smooth="yes"/>
      <point x="262" y="259" type="curve" smooth="yes"/>
      <point x="262" y="309" smooth="yes"/>
      <point x="237" y="354" smooth="yes"/>
    </contour>
  </outline>
</glyph>
<glyph name="fourinferior" format="1">
  <advance width="335"/>
  <unicode hex="2084"/>
  <outline>
    <contour>
      <point x="251" y="242" type="line" name="hr00"/>
      <point x="209" y="242" type="line"/>
      <point x="193" y="192" type="line"/>
      <point x="193" y="133" type="line"/>
      <point x="104" y="133" type="line"/>
      <point x="179" y="349" type="line"/>
      <point x="118" y="349" type="line"/>
      <point x="40" y="124" type="line"/>
      <point x="40" y="81" type="line"/>
      <point x="193" y="81" type="line"/>
      <point x="193" y="0" type="line"/>
      <point x="251" y="0" type="line"/>
      <point x="251" y="81" type="line"/>
      <point x="290" y="81" type="line"/>
      <point x="290" y="133" type="line"/>
      <point x="251" y="133" type="line"/>
    </contour>
  </outline>
</glyph>
<glyph name="fiveinferior" format="1">
  <advance width="335"/>
  <unicode hex="2085"/>
  <outline>
    <contour>
      <point x="128" y="206" type="line" name="hr00"/>
      <point x="128" y="298" type="line"/>
      <point x="256" y="298" type="line"/>
      <point x="256" y="349" type="line"/>
      <point x="70" y="349" type="line"/>
      <point x="70" y="179" type="line"/>
      <point x="87" y="158" type="line"/>
      <point x="173" y="149" type="line" smooth="yes"/>
      <point x="211" y="145" smooth="yes"/>
      <point x="211" y="121" smooth="yes"/>
      <point x="211" y="98" type="curve" smooth="yes"/>
      <point x="211" y="76" smooth="yes"/>
      <point x="211" y="48" smooth="yes"/>
      <point x="157" y="48" type="curve" smooth="yes"/>
      <point x="129" y="48"/>
      <point x="93" y="53"/>
      <point x="67" y="58" type="curve"/>
      <point x="53" y="15" type="line"/>
      <point x="73" y="8" smooth="yes"/>
      <point x="113" y="-5" smooth="yes"/>
      <point x="157" y="-5" type="curve" smooth="yes"/>
      <point x="260" y="-5" smooth="yes"/>
      <point x="274" y="50" smooth="yes"/>
      <point x="274" y="105" type="curve" smooth="yes"/>
      <point x="274" y="150" smooth="yes"/>
      <point x="260" y="192" smooth="yes"/>
      <point x="176" y="201" type="curve" smooth="yes"/>
    </contour>
  </outline>
</glyph>
<glyph name="sixinferior" format="1">
  <advance width="335"/>
  <unicode hex="2086"/>
  <outline>
    <contour>
      <point x="267" y="334" type="line" name="hr00"/>
      <point x="239" y="343" smooth="yes"/>
      <point x="205" y="354" smooth="yes"/>
      <point x="167" y="354" type="curve" smooth="yes"/>
      <point x="78" y="354" smooth="yes"/>
      <point x="52" y="319" smooth="yes"/>
      <point x="52" y="197" type="curve" smooth="yes"/>
      <point x="52" y="60" smooth="yes"/>
      <point x="52" y="-6" smooth="yes"/>
      <point x="167" y="-6" type="curve" smooth="yes"/>
      <point x="264" y="-6" smooth="yes"/>
      <point x="277" y="50" smooth="yes"/>
      <point x="277" y="107" type="curve" smooth="yes"/>
      <point x="277" y="164" smooth="yes"/>
      <point x="267" y="213" smooth="yes"/>
      <point x="170" y="213" type="curve" smooth="yes"/>
      <point x="147" y="213"/>
      <point x="130" y="211"/>
      <point x="115" y="206" type="curve"/>
      <point x="115" y="264" type="line" smooth="yes"/>
      <point x="115" y="290" smooth="yes"/>
      <point x="130" y="302" smooth="yes"/>
      <point x="163" y="302" type="curve" smooth="yes"/>
      <point x="192" y="302"/>
      <point x="231" y="296"/>
      <point x="253" y="291" type="curve"/>
    </contour>
    <contour>
      <point x="215" y="75" type="line"/>
      <point x="215" y="66" smooth="yes"/>
      <point x="215" y="46" smooth="yes"/>
      <point x="167" y="46" type="curve" smooth="yes"/>
      <point x="117" y="46" smooth="yes"/>
      <point x="115" y="66" smooth="yes"/>
      <point x="115" y="75" type="curve" smooth="yes"/>
      <point x="115" y="157" type="line"/>
      <point x="133" y="161" smooth="yes"/>
      <point x="149" y="162" smooth="yes"/>
      <point x="167" y="162" type="curve" smooth="yes"/>
      <point x="215" y="162" smooth="yes"/>
      <point x="215" y="138" smooth="yes"/>
      <point x="215" y="130" type="curve" smooth="yes"/>
    </contour>
  </outline>
</glyph>
<glyph name="seveninferior" format="1">
  <advance width="335"/>
  <unicode hex="2087"/>
  <outline>
    <contour>
      <point x="60" y="349" type="line" name="hr00"/>
      <point x="60" y="298" type="line"/>
      <point x="201" y="298" type="line"/>
      <point x="200" y="247" smooth="yes"/>
      <point x="193" y="208" smooth="yes"/>
      <point x="169" y="163" type="curve" smooth="yes"/>
      <point x="83" y="0" type="line"/>
      <point x="147" y="0" type="line"/>
      <point x="227" y="151" type="line" smooth="yes"/>
      <point x="257" y="208" smooth="yes"/>
      <point x="259" y="252" smooth="yes"/>
      <point x="259" y="313" type="curve" smooth="yes"/>
      <point x="259" y="349" type="line"/>
    </contour>
  </outline>
</glyph>
